<?xml version="1.0" standalone="no"?>
<!DOCTYPE svg PUBLIC "-//W3C//DTD SVG 20010904//EN"
 "http://www.w3.org/TR/2001/REC-SVG-20010904/DTD/svg10.dtd">
<svg version="1.0" xmlns="http://www.w3.org/2000/svg"
 width="2563.000000pt" height="1758.000000pt" viewBox="0 0 2563.000000 1758.000000"
 preserveAspectRatio="xMidYMid meet">

<g transform="translate(0.000000,1758.000000) scale(0.100000,-0.100000)"
fill="#000000" stroke="none">
<path d="M13902 17562 c-7 -2 -12 -12 -12 -23 0 -13 56 -56 198 -150 108 -73
199 -133 201 -135 2 -2 -29 -38 -68 -81 -195 -211 -340 -504 -412 -834 -12
-57 -23 -105 -24 -106 0 -1 -36 9 -79 23 -178 56 -392 54 -581 -7 -51 -16
-110 -29 -132 -29 -97 0 -202 -60 -242 -139 -10 -20 -28 -65 -39 -101 -11 -36
-36 -99 -55 -140 -19 -41 -42 -100 -50 -131 -8 -30 -28 -75 -46 -99 -114 -158
-85 -451 53 -527 17 -9 14 -18 -44 -131 -33 -67 -83 -155 -110 -197 -48 -73
-51 -75 -90 -75 -22 0 -40 -4 -40 -10 0 -5 -6 -7 -14 -4 -10 4 -33 -30 -76
-115 -38 -72 -69 -121 -78 -121 -8 0 -137 31 -286 69 -353 90 -390 95 -636 95
-225 0 -332 -13 -548 -65 -233 -57 -525 -173 -718 -287 -27 -15 -680 -315
-1451 -666 -771 -351 -1430 -655 -1464 -675 -189 -110 -347 -331 -406 -567
-24 -94 -23 -332 0 -428 72 -289 273 -527 540 -637 81 -34 109 -37 152 -19 29
12 45 6 340 -134 171 -81 314 -151 318 -155 4 -4 -53 -54 -128 -110 -702 -532
-1242 -1161 -1615 -1882 l-54 -106 -171 -27 c-1297 -205 -2486 -674 -3455
-1365 -305 -217 -526 -405 -810 -690 -706 -707 -1278 -1620 -1665 -2656 -73
-195 -82 -240 -51 -240 21 0 23 3 106 227 336 912 858 1777 1476 2453 954
1041 2330 1786 3938 2130 201 43 586 108 593 101 3 -3 -11 -45 -32 -93 -149
-345 -246 -673 -309 -1043 -50 -296 -80 -580 -131 -1270 -15 -195 -30 -358
-34 -362 -4 -5 -80 -28 -170 -53 -654 -181 -1181 -415 -1596 -708 -285 -201
-611 -507 -819 -767 -280 -349 -501 -747 -640 -1148 -39 -113 -43 -137 -23
-145 24 -9 34 6 72 118 290 846 916 1602 1713 2072 242 142 618 306 970 423
188 62 480 145 487 138 7 -6 -32 -323 -60 -498 -47 -287 -134 -640 -159 -640
-6 0 -19 -7 -29 -14 -16 -13 -17 -19 -7 -54 12 -37 9 -46 -35 -158 -66 -166
-99 -228 -128 -241 -21 -10 -31 -6 -76 25 -52 36 -54 37 -179 43 -70 4 -178
16 -241 28 -62 11 -168 25 -235 32 -105 10 -131 9 -187 -5 -53 -13 -71 -23
-105 -61 -54 -58 -118 -189 -145 -294 -23 -92 -23 -223 1 -371 39 -239 -51
-662 -183 -861 -31 -47 -40 -76 -71 -229 -61 -305 -71 -409 -71 -745 1 -381
32 -640 91 -756 32 -64 114 -142 183 -176 52 -26 63 -28 164 -25 156 4 199 25
258 130 80 141 164 371 225 615 21 82 59 198 92 276 51 119 61 136 99 162 53
37 86 104 113 229 35 159 49 212 77 280 43 107 44 106 75 -46 70 -352 149
-494 275 -494 51 0 76 11 121 53 63 60 62 154 -2 259 -91 147 -234 372 -282
441 -30 43 -54 82 -54 86 0 10 59 21 109 21 23 0 44 8 60 24 21 19 224 77
1096 311 589 158 1076 290 1082 292 22 9 -108 -352 -217 -602 -248 -568 -568
-1052 -967 -1466 -102 -105 -118 -131 -87 -143 39 -15 367 350 574 641 296
415 584 997 750 1519 l23 71 681 183 c375 101 718 193 764 206 l82 22 148 -50
c214 -72 520 -196 912 -368 605 -267 929 -396 1195 -475 l90 -27 34 -86 c125
-326 410 -802 526 -882 54 -37 139 -68 210 -76 61 -7 153 16 179 45 10 11 30
22 44 26 41 10 90 52 115 98 21 39 22 53 21 227 -1 117 -7 223 -18 289 -9 58
-16 112 -16 120 0 15 13 15 118 8 130 -9 412 -3 542 13 47 6 146 22 220 36
l135 26 220 -144 c555 -366 999 -602 1512 -807 479 -190 1073 -352 1646 -448
59 -9 107 -21 107 -26 0 -19 -243 -226 -424 -361 -267 -199 -518 -352 -846
-515 -613 -305 -1225 -482 -1925 -558 -203 -21 -777 -25 -965 -5 -670 70
-1097 196 -1975 582 -991 436 -1333 553 -1840 631 -201 30 -650 38 -895 15
-548 -52 -1020 -171 -2130 -535 -217 -71 -455 -148 -527 -170 -112 -35 -133
-45 -133 -62 0 -44 -18 -49 780 211 1010 330 1412 431 1967 497 210 24 656 24
848 -1 515 -66 876 -185 1810 -596 699 -308 1035 -431 1420 -519 1312 -302
2776 -54 3988 673 284 170 537 356 795 582 l143 125 192 -25 c1105 -147 2177
-139 2992 25 770 154 1282 384 2235 1004 721 469 981 623 1305 772 210 97 565
227 579 212 2 -2 70 -166 150 -364 81 -198 153 -367 161 -375 13 -13 17 -13
28 0 12 13 797 2719 797 2745 0 12 -2382 1205 -2405 1205 -9 0 -18 -6 -21 -14
-3 -7 45 -136 106 -286 61 -150 110 -273 108 -274 -2 -2 -43 -13 -93 -26 -342
-87 -681 -252 -1572 -763 -820 -471 -1214 -662 -1684 -816 -395 -129 -710
-181 -1091 -181 -185 0 -199 1 -194 18 3 9 25 85 50 167 25 83 110 380 190
660 244 861 416 1418 589 1910 497 1411 1018 2419 1716 3315 535 688 1183
1431 1691 1940 504 505 897 825 1250 1018 l76 42 278 -230 c154 -127 282 -230
285 -230 30 0 31 30 31 1186 0 765 -3 1165 -10 1169 -14 9 -3550 446 -3580
443 -14 -2 -26 -10 -28 -19 -2 -10 84 -92 233 -223 129 -114 235 -210 235
-214 0 -4 -26 -25 -57 -46 -204 -142 -485 -397 -969 -881 -617 -616 -1070
-1110 -1367 -1494 -864 -1113 -1610 -2482 -2132 -3911 -45 -124 -84 -231 -87
-239 -2 -9 -22 17 -46 61 -88 161 -214 302 -365 409 -165 118 -178 122 -1873
653 -870 273 -1587 496 -1595 496 -30 0 6 11 156 50 450 114 786 265 1103 493
l83 59 42 -29 c608 -432 1144 -802 1200 -829 113 -53 185 -68 322 -68 135 0
206 15 320 68 133 62 252 172 322 297 60 107 954 2089 953 2115 0 6 -39 26
-87 44 -49 19 -89 34 -90 35 -8 5 90 272 106 289 108 120 184 383 225 784 12
113 19 149 36 172 37 52 108 212 134 305 33 112 60 310 53 391 -6 76 -47 159
-91 181 -19 10 -46 14 -76 11 l-47 -5 1 136 c1 126 -1 140 -24 185 -31 61 -63
86 -121 93 -25 3 -55 15 -69 28 -81 73 -166 58 -258 -43 -23 -26 -35 -33 -39
-24 -13 34 -68 83 -103 93 -54 16 -105 4 -149 -36 -46 -42 -34 -14 -236 -545
-123 -322 -171 -439 -188 -450 -56 -38 -122 -110 -150 -165 -29 -56 -32 -67
-32 -165 0 -84 9 -151 44 -330 l44 -225 -68 -115 c-37 -63 -73 -121 -79 -127
-9 -10 -33 -4 -111 26 l-99 39 -16 -26 c-9 -15 -117 -202 -240 -417 -122 -214
-228 -396 -235 -403 -9 -10 -19 -6 -51 19 -21 17 -47 37 -57 44 -17 12 -16 18
23 110 164 386 231 677 340 1475 90 658 168 998 298 1299 74 171 186 334 285
415 l45 37 301 -200 c165 -111 307 -201 315 -201 8 0 16 6 19 14 8 20 -577
1938 -594 1948 -8 4 -635 84 -1394 178 -759 93 -1389 171 -1400 173 -12 2 -26
2 -33 -1z m1473 -233 c721 -89 1313 -165 1317 -168 10 -9 550 -1792 545 -1798
-3 -2 -124 75 -270 173 -227 151 -270 175 -292 170 -35 -9 -181 -154 -233
-233 -96 -143 -183 -344 -252 -581 -76 -265 -120 -503 -195 -1052 -72 -529
-119 -778 -196 -1030 -42 -141 -157 -440 -168 -440 -10 0 -59 42 -451 381
l-366 316 -129 201 c-213 332 -323 466 -475 581 -144 108 -374 208 -592 256
-43 9 -78 21 -78 25 0 5 18 46 40 91 31 63 47 86 71 98 53 25 146 118 200 200
102 151 304 595 345 758 18 70 18 71 55 77 50 8 82 48 77 96 l-3 35 68 -3 c87
-5 117 12 117 64 0 32 -12 49 -122 162 -229 236 -437 431 -493 463 -30 17 -55
35 -55 40 0 5 9 49 20 97 82 367 227 652 437 859 40 40 73 79 73 88 0 8 -67
60 -152 116 -164 109 -177 119 -162 119 5 1 599 -72 1319 -161z m-1646 -1778
c54 -35 113 -41 143 -15 17 16 21 13 84 -55 37 -40 80 -79 95 -87 31 -16 35
-34 18 -81 l-10 -31 -47 15 c-55 17 -106 11 -161 -17 -35 -19 -44 -32 -91
-141 -53 -118 -53 -121 -37 -149 28 -46 22 -57 -38 -76 -57 -18 -73 -37 -53
-61 14 -18 54 -12 114 18 56 27 71 62 49 117 -17 41 -17 41 21 124 20 46 38
85 40 87 2 2 23 -5 46 -16 24 -11 58 -24 76 -28 28 -6 32 -10 26 -28 -13 -43
-23 -54 -24 -26 0 15 -7 32 -15 39 -23 19 -55 -14 -55 -57 0 -41 22 -53 51
-27 19 17 20 17 13 -2 -20 -55 -181 -378 -219 -440 -57 -91 -148 -176 -211
-198 -53 -18 -152 -21 -203 -6 -24 7 -39 6 -48 -2 -19 -15 -88 34 -243 176
-69 62 -126 113 -127 112 -1 -1 47 -119 108 -262 115 -270 118 -282 68 -294
-18 -4 -25 -15 -31 -45 -11 -59 -97 -284 -97 -255 -1 14 6 84 15 155 24 200
30 180 -44 182 -122 3 -249 57 -350 148 -55 49 -142 156 -142 174 0 5 25 44
55 86 78 109 148 229 204 347 73 153 73 141 -3 178 -107 51 -151 126 -150 255
1 89 29 167 82 226 99 111 225 133 394 69 104 -39 156 -118 167 -252 l6 -78
33 20 c38 23 68 81 109 212 l28 87 47 -6 c43 -5 50 -3 77 25 17 17 31 40 31
52 0 17 16 5 75 -58 41 -44 97 -94 124 -111z m9415 -62 c936 -116 1702 -212
1704 -213 1 -2 1 -499 0 -1105 l-3 -1101 -255 210 c-140 115 -261 210 -269
210 -23 0 -196 -95 -316 -174 -637 -418 -1555 -1353 -2575 -2626 -515 -641
-822 -1115 -1170 -1805 -463 -918 -824 -1911 -1286 -3540 -69 -242 -162 -563
-206 -713 l-81 -272 -171 0 c-94 0 -288 5 -431 10 -979 38 -1642 149 -2232
372 -73 28 -133 53 -133 57 0 4 25 47 55 95 231 368 373 642 542 1046 118 282
271 726 393 1136 19 63 26 75 66 104 69 49 175 158 241 246 232 314 303 735
188 1128 l-26 89 22 66 c12 36 52 149 89 251 512 1406 1248 2758 2119 3890
272 354 769 899 1356 1485 482 483 748 724 966 876 99 69 119 86 119 99 0 6
-307 282 -415 372 -14 13 -16 17 -5 18 8 0 779 -95 1714 -211z m-5484 -468 c0
-9 -41 -139 -90 -289 -49 -151 -86 -280 -83 -288 6 -17 37 -18 50 -1 6 6 49
131 96 276 77 240 87 266 113 279 25 13 29 13 40 -2 17 -24 26 -114 18 -188
-5 -54 -136 -513 -149 -527 -3 -2 -5 8 -5 23 0 35 -24 80 -52 100 -35 25 -99
19 -204 -19 -53 -19 -99 -33 -101 -31 -6 6 194 549 223 607 13 26 39 64 59 84
l35 38 25 -23 c14 -13 25 -31 25 -39z m-350 -25 c0 -72 -106 -502 -155 -626
-4 -12 6 -20 37 -32 l43 -16 -159 -76 c-87 -42 -160 -75 -162 -74 -2 2 59 166
136 365 76 199 148 390 161 425 12 34 31 73 42 85 19 22 22 22 39 6 12 -10 18
-30 18 -57z m701 -445 c14 -49 -2 -203 -36 -337 -24 -96 -84 -234 -135 -314
-26 -41 -30 -60 -45 -205 -43 -419 -105 -624 -227 -751 -53 -56 -60 -67 -46
-75 15 -8 13 -20 -20 -119 -29 -86 -40 -109 -52 -105 -283 107 -820 320 -820
326 0 4 37 69 81 144 l82 138 -52 266 c-54 279 -58 319 -39 383 15 50 79 123
132 150 22 11 43 24 46 27 10 14 441 212 536 247 111 40 142 40 163 3 34 -61
0 -100 -238 -279 -99 -74 -182 -139 -184 -145 -2 -5 9 -89 25 -185 38 -227 36
-355 -5 -443 -29 -64 -115 -156 -166 -176 -23 -10 -31 -20 -31 -38 0 -36 24
-38 77 -7 71 41 136 112 174 189 32 66 34 76 37 190 3 93 -2 154 -22 275 -14
85 -26 157 -26 161 0 4 81 69 181 145 99 76 194 154 210 173 l29 36 -16 -55
c-9 -30 -27 -89 -40 -130 -13 -41 -22 -75 -21 -76 1 -1 26 -14 56 -29 64 -32
56 -38 129 94 56 104 131 278 183 429 21 62 41 118 44 123 12 18 24 8 36 -30z
m-5666 -1 c15 -47 115 -182 190 -257 105 -104 180 -143 347 -178 27 -5 25 -8
-110 -184 l-137 -179 -29 17 c-50 27 -154 137 -207 219 -51 77 -115 204 -159
315 l-23 59 54 104 c30 57 57 104 61 104 4 0 9 -9 13 -20z m-917 -91 c115 -12
181 -27 484 -105 l226 -59 42 -95 c59 -131 161 -306 114 -194 -24 57 -9 51 26
-11 49 -86 140 -195 201 -241 55 -42 110 -74 128 -74 5 0 66 74 135 164 69 91
130 167 134 170 8 5 -36 -435 -44 -444 -10 -10 -132 0 -180 15 -26 8 -50 13
-52 11 -8 -9 142 -75 183 -82 44 -6 45 -7 40 -38 -3 -17 -30 -161 -59 -320
-45 -249 -55 -291 -72 -297 -21 -9 -2414 -529 -2434 -529 -12 0 -11 13 11 90
8 29 31 50 122 117 480 353 828 850 986 1408 40 142 81 342 74 361 -3 8 -16
14 -29 14 -25 0 -25 2 -44 -105 -6 -33 -27 -119 -45 -191 -143 -553 -450
-1018 -910 -1381 -72 -57 -148 -120 -170 -140 -38 -36 -67 -46 -574 -199
l-534 -162 -216 90 c-289 122 -828 302 -839 282 -7 -13 -14 -13 -51 1 -65 23
-91 20 -91 -9 0 -18 9 -27 38 -38 20 -9 286 -109 591 -223 431 -162 557 -206
570 -198 13 8 71 -13 266 -94 137 -57 251 -106 253 -107 3 -3 -555 -1336 -563
-1344 -3 -4 -1626 764 -1818 860 l-57 28 38 53 c77 106 88 123 67 108 -11 -8
-49 -46 -85 -84 l-65 -70 -35 18 c-115 59 -254 189 -319 298 -47 80 -91 213
-104 318 -14 113 0 234 41 353 39 113 82 184 166 273 82 87 168 147 291 201
447 197 2717 1239 2845 1305 459 237 917 340 1318 296z m2078 -258 c-27 -52
-42 -71 -56 -71 -15 0 -20 7 -20 29 0 17 5 33 10 36 17 10 12 19 -27 45 l-37
25 80 5 c43 3 80 4 82 4 2 -1 -13 -34 -32 -73z m-166 0 c0 -5 -12 -16 -26 -26
l-26 -17 18 30 c16 28 34 34 34 13z m20 -178 c-8 -98 -34 -196 -56 -214 -10
-8 -27 16 -78 119 l-65 130 47 6 c26 4 70 19 97 35 28 15 53 25 56 22 4 -3 3
-47 -1 -98z m-75 -311 c44 -6 107 102 127 217 l12 71 33 0 c49 0 294 -66 397
-106 172 -68 290 -148 411 -276 93 -99 133 -154 310 -427 l141 -216 349 -303
c193 -167 428 -365 522 -439 102 -81 170 -140 166 -147 -4 -6 -123 -197 -266
-424 -258 -413 -280 -457 -232 -457 15 0 80 95 285 423 209 333 269 422 284
420 15 -2 69 84 272 437 195 339 257 440 271 438 10 -1 290 -108 623 -237 411
-160 604 -239 602 -248 -5 -21 -570 -1284 -735 -1642 -157 -341 -197 -410
-283 -484 -114 -98 -248 -146 -404 -146 -91 0 -116 4 -190 30 -47 17 -103 42
-125 56 -22 14 -349 243 -726 509 l-687 484 -386 368 c-323 309 -385 372 -381
390 3 12 62 249 130 527 109 443 122 507 109 520 -22 23 -46 1 -60 -56 -173
-712 -238 -963 -247 -961 -6 1 -126 -309 -267 -689 -222 -601 -255 -697 -253
-740 2 -40 1 -44 -7 -24 -5 14 -52 527 -105 1140 -53 613 -98 1125 -101 1138
-3 16 -11 22 -30 22 -22 0 -25 4 -21 23 3 12 29 154 58 315 52 288 53 293 78
298 56 13 154 84 138 100 -4 4 -12 2 -19 -4 -7 -5 -37 -17 -65 -25 -41 -12
-53 -13 -53 -3 0 9 97 286 146 416 3 9 36 -44 82 -135 57 -112 82 -151 97
-153z m-343 -2369 c70 -802 126 -1459 124 -1460 -3 -3 -3942 -543 -3962 -543
-10 0 -287 1220 -279 1228 1 2 26 -8 54 -22 28 -15 52 -25 54 -24 9 7 106 -46
100 -55 -3 -6 -1 -7 5 -3 12 7 83 -24 77 -34 -2 -3 4 -7 13 -8 9 -1 25 -3 36
-4 15 -3 32 30 98 187 44 105 81 191 82 193 2 1 72 -15 157 -35 l154 -37 115
-87 c137 -103 261 -183 388 -247 50 -26 90 -52 88 -58 -2 -6 -12 -60 -21 -119
-12 -78 -16 -151 -13 -269 3 -150 5 -164 28 -205 30 -54 64 -80 113 -88 101
-16 208 61 246 178 20 60 25 67 64 84 23 10 65 42 92 70 30 31 68 58 97 69 26
9 66 33 90 51 24 19 52 35 63 35 40 0 121 48 168 98 35 38 71 100 141 245 52
107 100 212 106 233 l12 40 62 -13 c33 -7 72 -13 86 -13 48 0 104 22 137 55
28 28 33 40 33 79 0 26 -6 61 -14 79 -17 43 -102 118 -190 169 -39 23 -157 96
-262 164 -224 143 -268 167 -361 192 -38 11 -96 33 -128 50 -190 95 -485 198
-665 232 -145 27 -231 48 -297 72 -48 18 -52 21 -42 40 6 11 7 23 2 27 -4 4
-95 43 -200 87 -106 43 -193 81 -193 84 0 6 3355 737 3390 739 l25 1 127
-1457z m1102 96 c197 -188 343 -318 404 -362 53 -37 100 -71 105 -76 12 -12
-250 -185 -393 -260 -225 -118 -490 -214 -804 -291 -90 -22 -166 -40 -169 -40
-3 0 2 19 10 42 8 24 17 74 20 113 4 60 37 157 221 658 l216 587 40 -38 c23
-21 180 -171 350 -333z m-4114 217 c47 -13 102 -24 123 -25 50 -2 238 -51 352
-91 112 -40 337 -137 344 -149 3 -4 35 -23 71 -41 110 -55 201 -120 301 -217
68 -66 101 -92 113 -87 30 11 17 47 -36 102 -62 63 -49 59 102 -38 58 -37 138
-86 179 -110 85 -50 145 -103 138 -122 -9 -28 -148 -1 -290 57 -16 7 -17 1
-16 -61 1 -41 -5 -88 -15 -115 -26 -76 -172 -371 -205 -416 -27 -38 -87 -81
-97 -70 -2 2 46 101 107 221 61 119 108 223 105 231 -3 8 -16 15 -28 15 -20 0
-39 -32 -142 -238 -66 -130 -133 -252 -150 -270 -29 -31 -84 -68 -91 -60 -1 2
26 95 62 208 35 112 61 210 59 217 -7 17 -41 17 -53 1 -5 -7 -41 -114 -79
-237 -64 -209 -72 -228 -112 -273 -52 -58 -75 -63 -67 -15 10 61 45 366 45
397 0 35 -24 51 -44 29 -8 -8 -23 -94 -36 -209 -13 -107 -27 -197 -31 -200 -4
-3 -19 -52 -34 -109 -36 -145 -47 -168 -90 -188 -33 -16 -36 -16 -53 0 -15 16
-17 40 -16 205 0 179 12 274 49 397 5 17 -9 27 -102 73 -201 100 -379 216
-552 360 -75 63 -86 69 -97 54 -11 -15 -19 -15 -110 7 -133 31 -134 31 -134
42 0 9 303 737 321 771 8 16 13 16 67 -3 31 -11 95 -30 142 -43z m-1044 -1709
c82 -368 151 -672 154 -678 4 -5 136 9 336 36 181 25 335 45 343 45 20 0 9
-79 -51 -345 l-51 -230 -54 -54 c-41 -40 -59 -52 -76 -48 -12 2 -92 23 -177
46 -359 95 -785 162 -1285 203 -103 8 -328 13 -630 13 -472 -1 -648 -9 -994
-49 -64 -8 -118 -12 -120 -11 -11 12 205 390 332 578 343 513 893 1073 1411
1436 l56 39 329 -157 329 -156 148 -668z m-871 -1082 c355 -27 662 -68 975
-131 172 -34 438 -101 452 -113 4 -3 -47 -65 -114 -136 -239 -258 -435 -507
-633 -805 -310 -469 -560 -985 -661 -1365 -29 -112 -33 -120 -55 -119 -13 1
-89 7 -169 13 -607 45 -1218 5 -1857 -124 -122 -25 -225 -45 -228 -45 -4 0 -4
17 -1 38 3 20 20 217 36 437 37 486 54 664 86 905 62 465 164 847 331 1237 62
143 67 151 96 157 105 19 581 58 852 70 161 7 696 -4 890 -19z m1553 -280 c1
-1 -95 -421 -213 -934 -186 -799 -232 -983 -324 -1291 -59 -198 -110 -358
-113 -355 -15 16 -460 117 -633 145 -110 18 -205 34 -211 35 -16 5 5 95 62
265 221 666 740 1490 1293 2052 76 78 100 97 116 92 11 -4 21 -8 23 -9z m3273
-575 c911 -164 1069 -195 1069 -210 0 -5 -771 -734 -1105 -1046 l-33 -30 -174
134 c-264 203 -574 436 -763 571 -93 67 -171 126 -173 131 -3 7 229 620 234
620 0 0 426 -76 945 -170z m-836 -778 c280 -206 715 -541 715 -550 0 -4 -115
-114 -255 -246 -140 -131 -255 -244 -255 -250 0 -6 234 -270 519 -586 l518
-575 -194 -127 c-107 -71 -198 -128 -202 -128 -4 0 -200 225 -435 500 -235
275 -430 500 -434 500 -4 0 -38 -32 -77 -70 -69 -68 -73 -71 -127 -75 -39 -3
-79 -15 -127 -40 -39 -19 -141 -56 -227 -80 -258 -75 -390 -135 -438 -198 -33
-43 -45 -102 -46 -214 0 -51 -2 -93 -5 -93 -3 0 -56 34 -119 76 l-114 76 23
41 c17 30 827 2097 898 2290 8 22 41 0 382 -251z m4645 -147 c0 -16 -169 -539
-223 -691 -206 -573 -392 -967 -673 -1419 l-96 -153 -36 15 c-258 107 -760
384 -1123 619 l-100 64 1118 784 c615 431 1121 785 1126 785 4 1 7 -1 7 -4z
m8250 -1270 c349 -174 636 -318 637 -319 1 -1 -160 -562 -358 -1246 -198 -685
-367 -1271 -376 -1303 -9 -32 -19 -54 -23 -50 -5 4 -67 154 -140 333 -72 179
-137 331 -144 338 -28 29 -433 -119 -740 -270 -299 -148 -534 -288 -1106 -659
-652 -424 -929 -585 -1255 -730 -530 -235 -1072 -368 -1775 -435 -226 -21
-941 -30 -1238 -15 -436 23 -1136 92 -1159 115 -4 3 50 63 118 133 562 579
963 1301 1319 2376 l72 217 162 0 c733 0 1394 201 2326 708 96 52 373 208 616
347 826 474 1132 621 1489 715 66 18 124 36 129 40 5 5 -33 113 -92 259 -56
138 -102 252 -102 255 0 6 811 -394 1640 -809z m-17035 335 c66 -7 122 -13
123 -15 2 -2 -6 -86 -17 -187 -12 -101 -21 -203 -21 -226 0 -34 -4 -44 -22
-52 -13 -6 -126 -37 -252 -70 -810 -214 -1582 -469 -1991 -657 -77 -35 -145
-67 -152 -70 -8 -3 -6 17 8 64 60 209 124 565 157 876 l18 161 29 8 c87 24
447 92 621 117 170 25 416 51 624 65 114 8 760 -3 875 -14z m417 -56 c195 -32
414 -82 609 -140 26 -7 -6 -113 -38 -125 -13 -5 -23 -12 -23 -17 0 -5 -62 -12
-137 -15 -155 -8 -340 -33 -518 -72 -66 -14 -132 -28 -148 -32 l-27 -6 5 54
c15 151 36 328 41 356 7 38 -15 38 236 -3z m3581 -550 c96 -49 99 -60 147
-490 23 -203 43 -378 45 -389 3 -15 22 -27 67 -43 35 -13 143 -53 241 -89
l178 -66 -76 -43 c-65 -37 -80 -42 -102 -33 -15 5 -147 86 -293 179 -147 94
-276 170 -288 170 -16 0 -22 -6 -22 -23 0 -19 31 -43 180 -137 99 -62 179
-115 177 -116 -1 -2 -79 21 -172 50 -170 54 -205 57 -205 21 0 -21 11 -25 300
-115 146 -45 266 -83 267 -83 0 -1 -12 -57 -27 -125 -41 -177 -72 -409 -73
-542 -1 -104 1 -120 25 -171 35 -76 75 -104 149 -104 l57 1 6 -60 c3 -32 6
-91 6 -130 0 -40 11 -121 26 -185 59 -262 90 -611 65 -718 -27 -112 -133 -151
-278 -102 -80 27 -137 77 -218 194 -240 343 -418 741 -530 1186 -22 87 -26
126 -29 302 -3 161 -8 221 -25 297 -49 217 -122 389 -237 557 -79 116 -113
217 -121 353 -7 124 8 206 45 241 32 31 123 65 313 119 75 21 168 54 205 74
78 40 144 47 197 20z m2661 -173 c329 -209 691 -410 956 -532 74 -34 137 -64
139 -66 14 -11 -337 -496 -509 -703 -134 -161 -416 -442 -550 -550 -248 -198
-547 -366 -811 -454 -74 -25 -140 -46 -147 -46 -23 0 -464 321 -868 631 l-231
177 -11 74 c-6 40 -14 107 -18 148 l-6 75 75 -100 c105 -141 223 -272 280
-311 115 -80 218 -67 274 32 53 92 17 186 -103 266 -87 58 -333 210 -442 273
-45 27 -85 52 -87 56 -3 4 25 25 62 46 66 37 68 40 71 81 3 42 4 43 122 122
92 62 119 76 124 64 5 -12 60 21 237 141 l232 157 52 -58 53 -59 83 58 c46 31
253 176 459 321 206 145 379 265 384 265 4 1 85 -48 180 -108z m-3686 -379
c103 -69 113 -79 123 -116 22 -85 46 -134 118 -241 83 -123 123 -206 169 -345
61 -183 75 -275 77 -490 2 -189 3 -199 38 -330 20 -74 47 -170 60 -213 14 -42
21 -77 17 -77 -4 0 -84 25 -176 56 -227 76 -550 207 -1014 411 -438 193 -661
284 -872 358 l-147 51 92 23 c297 77 571 210 809 393 183 141 391 372 504 561
l39 66 25 -16 c14 -9 76 -50 138 -91z m5126 -351 c558 -191 1201 -291 2051
-321 165 -6 379 -14 477 -18 l176 -7 -82 -245 c-358 -1062 -745 -1746 -1324
-2340 l-127 -130 -170 29 c-641 112 -1216 273 -1735 488 -333 137 -803 383
-1160 608 -191 119 -400 258 -400 266 0 3 19 11 43 18 163 49 390 152 562 256
444 269 887 729 1312 1362 l95 141 68 -29 c37 -15 133 -51 214 -78z m-10485
-63 l28 -63 -71 -42 c-39 -23 -71 -41 -73 -39 -3 3 81 205 85 206 2 0 16 -28
31 -62z m197 -438 c100 -229 158 -377 230 -593 53 -159 94 -289 93 -291 -8 -5
-463 -125 -466 -123 -4 5 -243 1142 -243 1158 0 14 228 159 243 156 5 -2 69
-140 143 -307z m-949 250 c98 -16 213 -30 256 -30 43 0 92 -6 110 -14 44 -18
94 -77 108 -128 13 -46 8 -62 -197 -649 l-58 -166 177 -184 177 -184 -43 -7
c-76 -12 -127 -9 -145 9 -9 9 -94 140 -188 292 -147 237 -174 276 -195 276
-13 0 -25 -7 -27 -15 -1 -8 47 -95 108 -193 60 -98 110 -180 110 -183 0 -3
-57 48 -126 113 -69 65 -132 122 -140 126 -17 10 -44 -8 -44 -28 0 -7 60 -68
133 -136 72 -67 169 -157 213 -199 l82 -77 -80 -99 c-44 -54 -120 -160 -169
-234 -178 -266 -219 -395 -158 -496 19 -31 72 -64 103 -64 9 0 16 -2 16 -4 0
-2 -23 -58 -51 -123 -29 -67 -68 -182 -89 -268 -68 -264 -178 -554 -246 -642
-72 -94 -188 -81 -301 33 -66 68 -85 120 -112 304 -34 237 -45 474 -32 684 19
303 81 667 126 737 162 252 247 700 190 1004 -20 105 -16 189 16 291 29 96 94
218 135 254 31 27 42 30 99 30 35 0 144 -13 242 -30z m8023 -298 c235 -145
260 -162 288 -202 28 -42 28 -78 -1 -121 -52 -78 -130 -59 -247 60 -107 108
-320 388 -320 421 0 13 37 -8 280 -158z m-362 -22 c27 -116 32 -168 41 -364 5
-126 8 -233 5 -237 -11 -19 -74 -21 -100 -4 -48 31 -68 97 -67 215 2 155 65
553 84 533 4 -5 21 -69 37 -143z m549 -645 c175 -132 375 -280 445 -330 70
-49 124 -93 120 -97 -12 -12 -224 -46 -357 -57 -128 -11 -391 -12 -514 -2
l-75 6 -18 80 c-10 44 -22 153 -27 243 l-9 163 25 46 c24 41 25 52 20 126 -3
45 -9 93 -13 107 -7 24 -6 23 38 -10 25 -19 189 -143 365 -275z m-7937 -665
c-24 -109 -47 -176 -122 -350 -50 -118 -95 -219 -99 -224 -14 -16 -78 4 -96
31 -42 64 -8 170 117 370 60 95 221 316 226 310 2 -2 -10 -63 -26 -137z m312
-130 c157 -246 181 -287 192 -332 14 -61 -43 -128 -110 -128 -40 0 -106 72
-133 144 -40 108 -121 473 -121 545 0 32 34 -12 172 -229z"/>
<path d="M12748 15641 c-71 -36 -117 -82 -143 -144 -12 -28 -12 -38 -1 -52 16
-23 53 -12 62 18 3 12 17 37 31 55 66 88 203 102 295 29 17 -13 15 -22 -22
-147 -45 -149 -47 -168 -24 -177 31 -12 47 13 80 123 34 113 38 113 39 4 0
-60 2 -65 22 -68 30 -4 43 30 43 111 0 108 -61 201 -160 246 -60 27 -170 28
-222 2z"/>
<path d="M13489 15274 c-14 -38 -4 -74 21 -74 43 0 55 92 13 98 -17 3 -26 -4
-34 -24z"/>
<path d="M17551 7884 c-24 -31 -26 -44 -8 -67 10 -13 628 -376 736 -432 29
-15 35 -15 56 -1 29 19 39 49 26 74 -11 20 -751 452 -775 452 -8 0 -24 -12
-35 -26z"/>
<path d="M17572 13793 c-133 -169 -247 -405 -287 -591 -12 -57 -12 -69 0 -81
24 -24 40 -5 54 60 37 183 125 363 295 603 12 17 1 46 -18 46 -8 0 -28 -17
-44 -37z"/>
<path d="M11850 12267 c-411 -83 -455 -94 -458 -112 -3 -26 274 -895 290 -911
10 -9 76 5 298 65 157 42 358 97 448 120 145 39 162 46 162 65 0 12 -51 210
-113 441 l-112 420 -30 2 c-17 1 -235 -39 -485 -90z m484 26 c53 -180 205
-778 199 -783 -16 -15 -815 -222 -823 -214 -10 12 -272 835 -267 840 6 7 829
172 859 173 17 1 28 -5 32 -16z"/>
<path d="M11851 12058 c-44 -119 -101 -283 -101 -294 0 -17 20 -28 31 -17 5 5
29 65 53 134 24 68 46 124 49 124 3 0 42 -42 87 -93 79 -89 101 -103 108 -70
4 19 -188 238 -209 238 -5 0 -13 -10 -18 -22z"/>
<path d="M11942 11660 c-85 -82 -152 -155 -150 -161 11 -32 39 -11 179 127
134 134 173 185 137 184 -7 -1 -82 -68 -166 -150z"/>
<path d="M11776 10749 c-35 -28 -33 -73 5 -102 68 -50 139 50 73 102 -33 26
-45 26 -78 0z"/>
<path d="M2588 13701 c-169 -55 -292 -204 -319 -384 -35 -233 117 -462 346
-522 342 -89 657 211 584 557 -29 137 -129 263 -258 326 -72 34 -82 37 -186
39 -86 2 -122 -1 -167 -16z m223 -41 c129 -24 237 -107 296 -228 37 -73 38
-80 38 -182 0 -99 -2 -109 -33 -173 -43 -86 -113 -156 -199 -199 -64 -31 -73
-33 -178 -33 -105 0 -113 2 -177 34 -122 61 -207 175 -230 310 -36 210 103
415 317 467 64 16 99 16 166 4z"/>
<path d="M3988 13701 c-330 -106 -434 -536 -189 -779 190 -190 484 -190 672 0
247 248 141 675 -192 779 -80 25 -213 25 -291 0z m223 -41 c126 -24 239 -111
298 -231 89 -181 27 -407 -142 -520 -83 -55 -150 -72 -256 -67 -105 5 -177 35
-250 103 -125 117 -169 272 -122 424 46 148 153 248 306 287 63 16 99 17 166
4z"/>
<path d="M5379 13697 c-327 -112 -424 -533 -179 -778 241 -242 661 -152 776
167 94 256 -41 535 -297 615 -87 27 -214 25 -300 -4z m286 -53 c235 -79 349
-346 243 -570 -34 -72 -120 -159 -195 -196 -55 -27 -80 -33 -153 -36 -108 -5
-174 12 -259 69 -213 142 -242 450 -59 632 114 114 273 152 423 101z"/>
<path d="M4388 10025 c-50 -28 -72 -106 -48 -169 13 -36 64 -59 117 -53 143
16 144 220 1 233 -27 3 -53 -1 -70 -11z"/>
<path d="M5182 9445 c-161 -24 -299 -46 -307 -49 -20 -7 -20 -65 0 -72 8 -4
166 15 351 42 284 40 337 50 345 66 6 12 6 25 -1 38 -15 27 -40 26 -388 -25z"/>
<path d="M4868 8013 c-30 -48 -78 -127 -106 -175 l-53 -87 -173 105 c-172 103
-206 115 -206 74 0 -14 47 -47 163 -116 89 -53 167 -101 174 -106 8 -7 -18
-58 -94 -184 -85 -143 -103 -178 -93 -189 7 -8 18 -15 25 -15 6 0 58 76 114
170 57 93 106 172 109 174 4 2 81 -41 172 -95 161 -97 201 -112 208 -77 2 12
-40 42 -155 111 -87 53 -166 102 -175 109 -15 12 -8 28 83 178 97 161 112 201
77 208 -11 2 -33 -24 -70 -85z"/>
</g>
</svg>
