<?xml version="1.0" encoding="UTF-8"?>
<!DOCTYPE svg PUBLIC "-//W3C//DTD SVG 1.1//EN" "http://www.w3.org/Graphics/SVG/1.1/DTD/svg11.dtd">
<svg xmlns="http://www.w3.org/2000/svg" version="1.1" width="2563px" height="1758px" style="shape-rendering:geometricPrecision; text-rendering:geometricPrecision; image-rendering:optimizeQuality; fill-rule:evenodd; clip-rule:evenodd" xmlns:xlink="http://www.w3.org/1999/xlink">
<g><path style="opacity:0.852" fill="#395cee" d="M 1568.5,524.5 C 1565.71,524.378 1563.71,523.044 1562.5,520.5C 1573.93,494.468 1582.43,467.468 1588,439.5C 1594.17,403.962 1599.51,368.295 1604,332.5C 1608.2,302.815 1615.2,273.815 1625,245.5C 1632.44,224.098 1644.28,205.598 1660.5,190C 1662.81,187.861 1665.47,186.361 1668.5,185.5C 1686.72,196.531 1704.56,208.197 1722,220.5C 1704.82,161.454 1687.15,102.454 1669,43.5C 1667.21,41.9007 1665.05,41.0674 1662.5,41C 1577.51,30.2509 1492.51,19.9175 1407.5,10C 1416.56,16.7246 1425.89,23.0579 1435.5,29C 1436.8,29.804 1437.47,30.9707 1437.5,32.5C 1408.27,60.9642 1390.6,95.6309 1384.5,136.5C 1382,137.121 1379.67,136.455 1377.5,134.5C 1383.23,95.0687 1399.9,61.2354 1427.5,33C 1414.33,23.8333 1401.17,14.6667 1388,5.5C 1387.28,3.88762 1387.45,2.38762 1388.5,1C 1482.9,11.425 1577.24,22.7584 1671.5,35C 1673.06,35.3176 1674.23,36.1509 1675,37.5C 1693.8,100.227 1712.8,162.893 1732,225.5C 1732.67,227.833 1732.67,230.167 1732,232.5C 1730.61,233.554 1729.11,233.72 1727.5,233C 1707.83,219.833 1688.17,206.667 1668.5,193.5C 1658.03,201.809 1649.53,211.809 1643,223.5C 1632.22,245.164 1624.22,267.83 1619,291.5C 1610.09,344.457 1601.42,397.457 1593,450.5C 1587.52,476.112 1579.35,500.778 1568.5,524.5 Z"/></g>
<g><path style="opacity:1" fill="#3e24af" d="M 1377.5,134.5 C 1379.67,136.455 1382,137.121 1384.5,136.5C 1388.94,140.081 1393.61,143.581 1398.5,147C 1415.9,163.281 1432.74,180.114 1449,197.5C 1451.16,201.192 1450.99,204.692 1448.5,208C 1443.29,209.397 1437.96,209.897 1432.5,209.5C 1433.34,218.326 1429.34,222.659 1420.5,222.5C 1418.65,233.223 1415.48,243.556 1411,253.5C 1402.48,274.209 1392.15,293.876 1380,312.5C 1374.83,318.85 1368.66,323.85 1361.5,327.5C 1358.34,328.331 1355.34,329.331 1352.5,330.5C 1347.49,330.334 1342.49,330.501 1337.5,331C 1339.98,332.643 1342.31,334.476 1344.5,336.5C 1342.77,338.851 1342.1,341.518 1342.5,344.5C 1343.83,344.5 1345.17,344.5 1346.5,344.5C 1348.9,344.448 1351.24,344.781 1353.5,345.5C 1392.62,351.131 1424.12,369.464 1448,400.5C 1459.06,416.563 1469.73,432.897 1480,449.5C 1507.08,473.75 1534.58,497.417 1562.5,520.5C 1563.71,523.044 1565.71,524.378 1568.5,524.5C 1571.81,527.635 1575.31,530.635 1579,533.5C 1596.17,505.161 1612.84,476.494 1629,447.5C 1635.52,450.065 1642.02,452.731 1648.5,455.5C 1649.48,455.023 1650.31,454.357 1651,453.5C 1654.93,445.906 1659.27,438.573 1664,431.5C 1662.25,415.733 1659.58,400.066 1656,384.5C 1653.89,373.019 1655.89,362.353 1662,352.5C 1666.75,347.41 1671.75,342.744 1677,338.5C 1688.72,307.389 1700.72,276.389 1713,245.5C 1724.06,234.151 1733.9,235.151 1742.5,248.5C 1745.33,244.841 1748.66,241.674 1752.5,239C 1760.57,234.748 1767.57,236.082 1773.5,243C 1786.43,243.598 1792.93,250.431 1793,263.5C 1793.03,270.872 1793.2,278.205 1793.5,285.5C 1803.56,282.78 1810.06,286.446 1813,296.5C 1814.93,313.475 1813.26,330.141 1808,346.5C 1803.78,357.928 1798.78,368.928 1793,379.5C 1791.96,406.423 1786.63,432.423 1777,457.5C 1774.06,462.772 1770.73,467.772 1767,472.5C 1764.27,480.871 1761.43,489.204 1758.5,497.5C 1763.71,499.938 1769.04,502.105 1774.5,504C 1775.52,504.519 1776.18,505.353 1776.5,506.5C 1746.6,573.957 1716.44,641.29 1686,708.5C 1667.5,744.998 1638,759.498 1597.5,752C 1590.15,749.826 1583.15,746.826 1576.5,743C 1538.18,715.491 1499.52,688.658 1460.5,662.5C 1459.73,659.438 1457.73,657.772 1454.5,657.5C 1448.08,652.443 1441.41,647.61 1434.5,643C 1411.64,620.469 1388.47,598.302 1365,576.5C 1351.2,614.244 1337.2,651.911 1323,689.5C 1322.05,698.264 1320.55,706.931 1318.5,715.5C 1317.44,716.575 1317.44,717.575 1318.5,718.5C 1321.33,719.933 1324.33,720.6 1327.5,720.5C 1434.63,754.93 1541.96,789.096 1649.5,823C 1678.18,835.518 1699.51,855.685 1713.5,883.5C 1714.31,887.116 1715.65,890.449 1717.5,893.5C 1733.81,942.757 1725.31,987.091 1692,1026.5C 1685.94,1032.07 1679.77,1037.41 1673.5,1042.5C 1669.92,1044.08 1666.59,1046.08 1663.5,1048.5C 1588.87,1100.48 1514.53,1152.81 1440.5,1205.5C 1437.8,1205.84 1435.8,1207.18 1434.5,1209.5C 1404.38,1230.07 1374.38,1250.9 1344.5,1272C 1343.24,1272.98 1341.91,1273.32 1340.5,1273C 1336.96,1269.62 1333.62,1266.12 1330.5,1262.5C 1315.25,1272.71 1300.08,1283.04 1285,1293.5C 1284.09,1292.67 1283.42,1291.67 1283,1290.5C 1274.83,1295.82 1267,1301.49 1259.5,1307.5C 1243.81,1300.82 1227.81,1294.48 1211.5,1288.5C 1207.94,1263.58 1204.77,1238.58 1202,1213.5C 1200.03,1207.21 1196.36,1202.21 1191,1198.5C 1190.44,1199.02 1189.77,1199.36 1189,1199.5C 1186.89,1198.53 1184.72,1197.69 1182.5,1197C 1181.75,1196.33 1181.41,1195.5 1181.5,1194.5C 1186.91,1190.6 1191.91,1186.1 1196.5,1181C 1197.17,1180.33 1197.83,1180.33 1198.5,1181C 1226.83,1214 1255.17,1247 1283.5,1280C 1284.5,1280.67 1285.5,1280.67 1286.5,1280C 1298.9,1271.27 1311.56,1262.94 1324.5,1255C 1289.13,1216.88 1254.46,1178.21 1220.5,1139C 1237.03,1121.97 1254.03,1105.47 1271.5,1089.5C 1274.09,1088.58 1276.09,1086.91 1277.5,1084.5C 1315.45,1049.22 1353.12,1013.55 1390.5,977.5C 1385.67,975.502 1380.67,974.002 1375.5,973C 1313.15,961.831 1250.82,950.665 1188.5,939.5C 1180.83,960.167 1173.17,980.833 1165.5,1001.5C 1163.71,1003.43 1162.71,1005.76 1162.5,1008.5C 1132.05,1086.5 1101.38,1164.5 1070.5,1242.5C 1068.67,1244.15 1067.34,1246.15 1066.5,1248.5C 1033.88,1302.74 986.546,1337.08 924.5,1351.5C 919.927,1352.39 915.594,1353.72 911.5,1355.5C 861.13,1368.68 810.797,1382.01 760.5,1395.5C 757.888,1396.37 755.221,1397.04 752.5,1397.5C 680.417,1417.19 608.417,1436.85 536.5,1456.5C 534.488,1453.92 532.988,1450.92 532,1447.5C 520.884,1437.22 510.717,1426.22 501.5,1414.5C 508.9,1393.13 516.4,1371.8 524,1350.5C 524.667,1345.17 524.667,1339.83 524,1334.5C 522.202,1330.58 520.702,1326.58 519.5,1322.5C 521.684,1323.11 523.684,1322.44 525.5,1320.5C 529.683,1318.91 533.35,1316.58 536.5,1313.5C 541.272,1311.28 545.938,1308.78 550.5,1306C 548.58,1302.03 546.58,1298.2 544.5,1294.5C 543.686,1290.88 542.352,1287.55 540.5,1284.5C 539.744,1282.73 539.077,1280.9 538.5,1279C 540.043,1277.29 541.709,1275.79 543.5,1274.5C 546.581,1273.46 549.581,1272.13 552.5,1270.5C 591.036,1252.57 630.702,1237.41 671.5,1225C 711.917,1212.56 752.584,1201.06 793.5,1190.5C 796.067,1190.28 798.401,1189.61 800.5,1188.5C 827.423,1181.8 854.756,1177.8 882.5,1176.5C 883.655,1175.05 885.155,1174.05 887,1173.5C 888.15,1170.23 888.984,1166.9 889.5,1163.5C 890.677,1161.32 891.677,1158.99 892.5,1156.5C 900.428,1129.21 908.261,1101.88 916,1074.5C 929.347,1016.11 942.847,957.779 956.5,899.5C 958.245,893.262 959.578,886.929 960.5,880.5C 965.905,861.473 969.905,842.14 972.5,822.5C 950.134,825.219 927.801,828.219 905.5,831.5C 904.833,831.167 904.167,830.833 903.5,830.5C 893.322,785.454 882.988,740.454 872.5,695.5C 850.921,685.209 829.254,675.209 807.5,665.5C 805.354,662.747 802.688,661.747 799.5,662.5C 799.631,661.624 799.298,660.957 798.5,660.5C 778.621,650.727 758.621,641.227 738.5,632C 735.232,631.62 732.232,632.454 729.5,634.5C 682.928,618.051 660.761,585.051 663,535.5C 668.134,499.031 687.634,473.531 721.5,459C 811.251,418.527 900.917,377.86 990.5,337C 1041.23,305.568 1096.23,293.234 1155.5,300C 1174.53,304.508 1193.53,309.175 1212.5,314C 1214.26,314.798 1215.93,314.631 1217.5,313.5C 1221.59,306.324 1225.42,298.991 1229,291.5C 1233.16,290.529 1237.49,289.196 1242,287.5C 1249.85,275.811 1256.68,263.477 1262.5,250.5C 1256.67,246.517 1252.5,241.184 1250,234.5C 1245.9,218.597 1248.9,204.263 1259,191.5C 1259.84,187.789 1260.84,184.123 1262,180.5C 1267.27,169.415 1271.94,158.082 1276,146.5C 1279.57,141.969 1284.07,138.802 1289.5,137C 1304.48,134.009 1319.48,131.009 1334.5,128C 1349.37,126.854 1363.7,129.021 1377.5,134.5 Z M 1396.5,242.5 C 1390.45,243.251 1388.45,246.584 1390.5,252.5C 1392.05,253.452 1393.71,253.785 1395.5,253.5C 1388.73,269.702 1380.9,285.369 1372,300.5C 1361.83,315.502 1348,320.502 1330.5,315.5C 1328.97,315.529 1327.8,316.196 1327,317.5C 1314.91,308.077 1303.41,297.91 1292.5,287C 1291.83,286.333 1291.17,286.333 1290.5,287C 1298.3,304.76 1305.96,322.593 1313.5,340.5C 1310.37,341.703 1307.7,343.537 1305.5,346C 1306.02,346.561 1306.36,347.228 1306.5,348C 1303.77,356.05 1300.77,363.883 1297.5,371.5C 1298.16,361.11 1298.99,350.777 1300,340.5C 1278.98,339.824 1261.98,331.158 1249,314.5C 1247.5,312.167 1246,309.833 1244.5,307.5C 1257.86,290.291 1268.53,271.458 1276.5,251C 1273.43,247.952 1269.76,245.619 1265.5,244C 1256.56,235.771 1253.39,225.604 1256,213.5C 1261.24,194.45 1273.74,186.284 1293.5,189C 1312.73,192.895 1321.06,204.561 1318.5,224C 1322.58,223.948 1325.75,222.115 1328,218.5C 1331.74,209.945 1335.07,201.279 1338,192.5C 1341.89,195.131 1345.72,194.965 1349.5,192C 1351.77,189.656 1352.94,186.822 1353,183.5C 1359.66,194.5 1368.99,202.167 1381,206.5C 1384,206.086 1386.5,204.752 1388.5,202.5C 1393.71,209.877 1400.04,216.044 1407.5,221C 1407.15,223.966 1405.98,226.466 1404,228.5C 1395.55,225.193 1387.72,226.193 1380.5,231.5C 1377.33,238.5 1374.17,245.5 1371,252.5C 1370.83,256.424 1371.49,260.09 1373,263.5C 1369.6,265.191 1366.1,266.691 1362.5,268C 1361.45,269.388 1361.28,270.888 1362,272.5C 1368.42,273.695 1374.09,272.028 1379,267.5C 1381.17,263.041 1380.67,258.874 1377.5,255C 1380.21,249.09 1383.04,243.257 1386,237.5C 1389.4,239.621 1392.9,241.288 1396.5,242.5 Z M 1759.5,250.5 C 1762.67,250.662 1764.67,252.328 1765.5,255.5C 1758.73,274.646 1752.89,293.979 1748,313.5C 1748.75,314.126 1749.58,314.626 1750.5,315C 1743.1,316.91 1735.94,319.41 1729,322.5C 1735.71,302.06 1743.04,281.727 1751,261.5C 1753.36,257.442 1756.19,253.775 1759.5,250.5 Z M 1691.5,339.5 C 1702.15,310.031 1713.49,280.865 1725.5,252C 1726.5,251.333 1727.5,251.333 1728.5,252C 1729.89,253.739 1730.56,255.739 1730.5,258C 1726.73,279.4 1721.4,300.4 1714.5,321C 1716.47,322.991 1718.81,324.491 1721.5,325.5C 1711.75,330.709 1701.75,335.375 1691.5,339.5 Z M 1773.5,257.5 C 1775.17,257.5 1776.83,257.5 1778.5,257.5C 1779.53,265.472 1779.7,273.472 1779,281.5C 1775.1,296.785 1770.43,311.785 1765,326.5C 1764.56,323.624 1763.56,320.957 1762,318.5C 1759.42,316.484 1756.59,314.984 1753.5,314C 1759.49,296.027 1765.49,278.027 1771.5,260C 1772.06,258.989 1772.72,258.156 1773.5,257.5 Z M 1797.5,298.5 C 1798.75,298.577 1799.58,299.244 1800,300.5C 1801.45,326.812 1794.78,350.812 1780,372.5C 1778.77,393.431 1775.77,414.098 1771,434.5C 1767.78,448.782 1760.61,460.615 1749.5,470C 1751.18,470.347 1752.18,471.347 1752.5,473C 1750.19,479.428 1748.19,485.928 1746.5,492.5C 1718.31,482.435 1690.31,471.768 1662.5,460.5C 1668.42,450.998 1674.09,441.331 1679.5,431.5C 1676.14,416.221 1672.98,400.888 1670,385.5C 1666.55,373.532 1669.38,363.365 1678.5,355C 1697.95,344.276 1717.95,334.609 1738.5,326C 1743.14,324.399 1747.8,322.899 1752.5,321.5C 1756.41,321.913 1758.41,324.08 1758.5,328C 1757.88,331.287 1756.38,334.121 1754,336.5C 1741,346.5 1728,356.5 1715,366.5C 1716.22,379.178 1717.89,391.845 1720,404.5C 1722.66,424.844 1715,439.844 1697,449.5C 1696.28,451.112 1696.45,452.612 1697.5,454C 1699.97,454.706 1702.3,454.373 1704.5,453C 1722.67,441.483 1730.17,424.983 1727,403.5C 1725.32,392.082 1723.65,380.748 1722,369.5C 1735.93,359.563 1749.27,348.896 1762,337.5C 1760.09,344.965 1757.92,352.465 1755.5,360C 1757.89,362.711 1760.89,364.711 1764.5,366C 1765.5,366.667 1766.5,366.667 1767.5,366C 1780.49,344.883 1790.49,322.383 1797.5,298.5 Z M 1231.5,301.5 C 1235.87,307.193 1240.04,313.193 1244,319.5C 1249.5,325 1255,330.5 1260.5,336C 1269.39,341.63 1279.05,345.297 1289.5,347C 1280.66,358.668 1271.66,370.168 1262.5,381.5C 1249.99,373.49 1240.49,362.824 1234,349.5C 1229.56,340.285 1225.39,330.951 1221.5,321.5C 1225.3,315.045 1228.63,308.378 1231.5,301.5 Z M 1226.5,356.5 C 1228.85,359.871 1231.18,363.204 1233.5,366.5C 1232.17,363.167 1230.83,359.833 1229.5,356.5C 1235.41,365.758 1242.41,374.258 1250.5,382C 1254.47,385.137 1258.8,387.637 1263.5,389.5C 1265.73,388.781 1267.56,387.448 1269,385.5C 1276.09,375.654 1283.42,365.987 1291,356.5C 1290,370.824 1288.67,385.157 1287,399.5C 1285.09,400.131 1283.09,400.464 1281,400.5C 1276.13,400.026 1271.3,399.359 1266.5,398.5C 1265.22,397.069 1263.55,396.402 1261.5,396.5C 1262.94,398.063 1264.61,399.396 1266.5,400.5C 1272.32,404.107 1278.65,406.107 1285.5,406.5C 1282.16,428.221 1278.49,449.887 1274.5,471.5C 1192.96,488.926 1111.46,506.593 1030,524.5C 1029.5,524.167 1029,523.833 1028.5,523.5C 1029.51,519.78 1030.68,516.114 1032,512.5C 1097.83,467.536 1136.83,405.536 1149,326.5C 1147,323.833 1145,323.833 1143,326.5C 1130.26,402.842 1092.09,462.675 1028.5,506C 1027.23,507.307 1026.23,508.807 1025.5,510.5C 989.952,521.572 954.286,532.238 918.5,542.5C 883.991,527.663 848.657,514.996 812.5,504.5C 812.649,505.552 812.483,506.552 812,507.5C 807.993,505.494 803.827,504.327 799.5,504C 796.833,506 796.833,508 799.5,510C 836.578,523.804 873.578,537.804 910.5,552C 914.446,553.662 918.446,553.996 922.5,553C 938.5,559.667 954.5,566.333 970.5,573C 951.642,617.885 932.642,662.718 913.5,707.5C 851.491,677.829 789.491,648.162 727.5,618.5C 730.553,613.798 733.553,609.131 736.5,604.5C 739.605,601.725 741.938,598.392 743.5,594.5C 740.139,596.895 737.472,599.895 735.5,603.5C 730.824,608.009 725.991,612.343 721,616.5C 696.087,604.573 681.421,584.906 677,557.5C 673.107,522.459 685.94,495.626 715.5,477C 826.436,426.864 937.103,376.198 1047.5,325C 1084.59,311.113 1122.59,307.78 1161.5,315C 1178.46,319.489 1195.46,323.823 1212.5,328C 1217.04,337.572 1221.7,347.072 1226.5,356.5 Z M 1352.5,330.5 C 1350.5,335.162 1348.5,339.829 1346.5,344.5C 1345.17,344.5 1343.83,344.5 1342.5,344.5C 1342.1,341.518 1342.77,338.851 1344.5,336.5C 1342.31,334.476 1339.98,332.643 1337.5,331C 1342.49,330.501 1347.49,330.334 1352.5,330.5 Z M 1333.5,345.5 C 1334.8,347.223 1335.47,349.39 1335.5,352C 1335.72,361.169 1333.55,369.669 1329,377.5C 1324.83,369.167 1320.67,360.833 1316.5,352.5C 1322.99,351.899 1328.66,349.566 1333.5,345.5 Z M 1309.5,396.5 C 1311.08,395.998 1311.58,394.998 1311,393.5C 1310.01,394.066 1309.17,394.733 1308.5,395.5C 1304.4,397.99 1300.06,398.99 1295.5,398.5C 1300.77,384.538 1305.93,370.538 1311,356.5C 1315.83,366.167 1320.67,375.833 1325.5,385.5C 1326.33,386.415 1327.33,387.081 1328.5,387.5C 1337.29,379.924 1341.79,370.257 1342,358.5C 1378.7,360.683 1409.03,375.683 1433,403.5C 1446.62,423.247 1460.12,443.08 1473.5,463C 1506.41,491.919 1539.91,520.085 1574,547.5C 1557.49,576.149 1540.16,604.482 1522,632.5C 1521.49,636.62 1523.32,638.12 1527.5,637C 1544.96,608.58 1562.79,580.413 1581,552.5C 1582.18,553.731 1583.35,553.731 1584.5,552.5C 1601.5,523.167 1618.5,493.833 1635.5,464.5C 1676.06,480.611 1716.72,496.444 1757.5,512C 1758.02,512.561 1758.36,513.228 1758.5,514C 1729.02,580.797 1698.85,647.297 1668,713.5C 1645.96,741.11 1618.79,747.61 1586.5,733C 1539.5,700 1492.5,667 1445.5,634C 1419.17,609 1392.83,584 1366.5,559C 1375.07,525.221 1383.57,491.387 1392,457.5C 1393.33,451.833 1391.33,450.167 1386,452.5C 1377.82,486.204 1369.49,519.871 1361,553.5C 1359.44,552.655 1358.44,553.321 1358,555.5C 1340.8,602.101 1323.8,648.768 1307,695.5C 1300.33,619.842 1293.83,544.175 1287.5,468.5C 1285.49,469.014 1283.49,469.18 1281.5,469C 1285.58,448.588 1289.42,428.088 1293,407.5C 1299.72,405.599 1305.22,401.933 1309.5,396.5 Z M 1454.5,657.5 C 1413.97,687.474 1368.64,706.807 1318.5,715.5C 1320.55,706.931 1322.05,698.264 1323,689.5C 1337.2,651.911 1351.2,614.244 1365,576.5C 1388.47,598.302 1411.64,620.469 1434.5,643C 1441.41,647.61 1448.08,652.443 1454.5,657.5 Z M 1118.5,640.5 C 1130.78,647.978 1143.11,655.478 1155.5,663C 1163.97,669.609 1162.64,671.942 1151.5,670C 1145.36,668.399 1139.36,666.399 1133.5,664C 1132.06,663.219 1130.72,663.386 1129.5,664.5C 1130.99,671.289 1130.49,677.956 1128,684.5C 1122.61,696.289 1116.94,707.956 1111,719.5C 1108.18,724.164 1104.35,727.497 1099.5,729.5C 1105.8,715.577 1112.63,701.91 1120,688.5C 1120.98,685.443 1119.98,683.443 1117,682.5C 1115.74,682.759 1114.74,683.426 1114,684.5C 1106,700.5 1098,716.5 1090,732.5C 1087.02,736.056 1083.52,738.056 1079.5,738.5C 1083.65,725.552 1087.65,712.552 1091.5,699.5C 1090.34,695.278 1088.17,694.612 1085,697.5C 1080.54,712.561 1075.87,727.561 1071,742.5C 1068.72,747.116 1065.38,750.783 1061,753.5C 1061.71,739.282 1063.21,725.115 1065.5,711C 1065.17,707.26 1063.17,705.927 1059.5,707C 1057.22,719.719 1055.39,732.552 1054,745.5C 1050.84,755.125 1047.84,764.792 1045,774.5C 1038.11,782.222 1034.44,780.889 1034,770.5C 1033.33,763.167 1033.33,755.833 1034,748.5C 1035.17,737.356 1036.83,726.356 1039,715.5C 1012.4,703.206 988.233,687.372 966.5,668C 964.593,667.868 963.093,668.702 962,670.5C 954.385,668.888 946.885,666.888 939.5,664.5C 950.371,638.545 961.038,612.545 971.5,586.5C 980.504,588.889 989.504,591.389 998.5,594C 1036.12,599.649 1070.45,613.315 1101.5,635C 1108.17,640.333 1114.17,646.333 1119.5,653C 1122.55,654.072 1124.55,653.072 1125.5,650C 1123.53,646.554 1121.2,643.388 1118.5,640.5 Z M 1277.5,1084.5 C 1240.73,1056.06 1203.4,1028.4 1165.5,1001.5C 1173.17,980.833 1180.83,960.167 1188.5,939.5C 1250.82,950.665 1313.15,961.831 1375.5,973C 1380.67,974.002 1385.67,975.502 1390.5,977.5C 1353.12,1013.55 1315.45,1049.22 1277.5,1084.5 Z M 1162.5,1008.5 C 1199.68,1034.34 1236.01,1061.34 1271.5,1089.5C 1254.03,1105.47 1237.03,1121.97 1220.5,1139C 1254.46,1178.21 1289.13,1216.88 1324.5,1255C 1311.56,1262.94 1298.9,1271.27 1286.5,1280C 1285.5,1280.67 1284.5,1280.67 1283.5,1280C 1255.17,1247 1226.83,1214 1198.5,1181C 1197.83,1180.33 1197.17,1180.33 1196.5,1181C 1191.91,1186.1 1186.91,1190.6 1181.5,1194.5C 1172.72,1194.39 1164.72,1196.89 1157.5,1202C 1141.62,1205.9 1126.29,1211.07 1111.5,1217.5C 1104.18,1219.57 1098.68,1223.9 1095,1230.5C 1093,1239.05 1092.16,1247.72 1092.5,1256.5C 1085.42,1251.41 1078.08,1246.75 1070.5,1242.5C 1101.38,1164.5 1132.05,1086.5 1162.5,1008.5 Z"/></g>
<g><path style="opacity:0.842" fill="#8122e6" d="M 1875.5,1320.5 C 1874.41,1322.61 1873.41,1324.78 1872.5,1327C 1872.73,1327.4 1873.06,1327.57 1873.5,1327.5C 1857.18,1382.29 1835.68,1434.96 1809,1485.5C 1785.71,1527.64 1756.88,1565.64 1722.5,1599.5C 1719.83,1601.5 1717.5,1603.83 1715.5,1606.5C 1608.63,1704.26 1482.3,1754.26 1336.5,1756.5C 1273.36,1756.98 1212.36,1745.81 1153.5,1723C 1109.59,1704.92 1065.92,1686.25 1022.5,1667C 992.58,1654.36 961.747,1644.53 930,1637.5C 883.272,1628.71 836.439,1628.21 789.5,1636C 752.967,1642.47 716.967,1651.13 681.5,1662C 635.395,1677.04 589.228,1691.87 543,1706.5C 538.625,1704.19 538.458,1701.69 542.5,1699C 588.228,1684.54 633.895,1669.87 679.5,1655C 729.998,1638.77 781.665,1628.43 834.5,1624C 884.832,1620.92 933.832,1627.58 981.5,1644C 997.655,1649.61 1013.66,1655.61 1029.5,1662C 1069.72,1679.61 1110.05,1696.94 1150.5,1714C 1250.19,1752.79 1352.19,1760.12 1456.5,1736C 1547.37,1714.73 1627.71,1673.73 1697.5,1613C 1700.37,1610.3 1703.04,1607.46 1705.5,1604.5C 1708.47,1603.19 1710.81,1601.19 1712.5,1598.5C 1759.19,1553.27 1796.03,1500.94 1823,1441.5C 1839.63,1404.43 1853.8,1366.43 1865.5,1327.5C 1866.61,1325.4 1867.28,1323.07 1867.5,1320.5C 1888.19,1248.73 1909.36,1177.06 1931,1105.5C 1959.75,1011.25 1997.08,920.583 2043,833.5C 2061.17,801.156 2080.83,769.823 2102,739.5C 2166.53,653.605 2237.03,572.438 2313.5,496C 2342.52,467.634 2373.85,442.3 2407.5,420C 2415.13,415.354 2423.13,411.521 2431.5,408.5C 2433.79,408.622 2435.79,409.455 2437.5,411C 2452.5,423.5 2467.5,436 2482.5,448.5C 2483.67,375.836 2483.83,303.169 2483,230.5C 2369.95,215.806 2256.78,201.973 2143.5,189C 2157.3,200.461 2170.8,212.294 2184,224.5C 2184.8,226.259 2184.63,227.926 2183.5,229.5C 2162.49,244.34 2142.49,260.506 2123.5,278C 2064.8,334.024 2008.97,392.524 1956,453.5C 1851.86,586.067 1772.36,732.734 1717.5,893.5C 1715.65,890.449 1714.31,887.116 1713.5,883.5C 1769.53,720.038 1851.36,571.704 1959,438.5C 2016.43,373.072 2077.26,310.905 2141.5,252C 2152.21,242.952 2163.21,234.286 2174.5,226C 2158.7,212.538 2143.2,198.704 2128,184.5C 2127.29,182.633 2127.79,181.133 2129.5,180C 2249.56,193.841 2369.56,208.508 2489.5,224C 2490.5,302.763 2490.83,381.596 2490.5,460.5C 2488.47,460.662 2486.47,460.495 2484.5,460C 2466.76,445.047 2448.93,430.214 2431,415.5C 2406.52,428.653 2383.69,444.153 2362.5,462C 2325.76,494.406 2290.59,528.572 2257,564.5C 2204.81,621.618 2155.47,680.951 2109,742.5C 2061.08,810.98 2021.41,884.313 1990,962.5C 1970.89,1010.15 1953.56,1058.48 1938,1107.5C 1916.45,1178.31 1895.62,1249.31 1875.5,1320.5 Z"/></g>
<g><path style="opacity:1" fill="#3e25af" d="M 1282.5,190.5 C 1300.54,191.346 1310.87,200.68 1313.5,218.5C 1313.08,222.208 1312.08,225.708 1310.5,229C 1307.74,229.977 1305.74,229.144 1304.5,226.5C 1306.5,222.188 1306.67,217.854 1305,213.5C 1303,220.167 1301,226.833 1299,233.5C 1293.93,236.894 1291.93,235.56 1293,229.5C 1295.35,221.115 1297.85,212.782 1300.5,204.5C 1289.74,194.946 1279.24,195.279 1269,205.5C 1267.41,208.121 1265.91,210.787 1264.5,213.5C 1261.54,215.121 1259.54,214.288 1258.5,211C 1262.41,199.244 1270.41,192.41 1282.5,190.5 Z"/></g>
<g><path style="opacity:0.94" fill="#3c3637" d="M 1350.5,226.5 C 1353.7,226.513 1355.36,228.18 1355.5,231.5C 1355.08,235.019 1353.25,237.353 1350,238.5C 1348.03,237.507 1346.87,235.84 1346.5,233.5C 1347.1,230.651 1348.43,228.318 1350.5,226.5 Z"/></g>
<g><path style="opacity:0.968" fill="#352f33" d="M 1396.5,242.5 C 1396.5,243.167 1396.83,243.5 1397.5,243.5C 1397.21,245.735 1397.54,247.735 1398.5,249.5C 1397.85,251.141 1396.85,252.474 1395.5,253.5C 1393.71,253.785 1392.05,253.452 1390.5,252.5C 1388.45,246.584 1390.45,243.251 1396.5,242.5 Z"/></g>
<g><path style="opacity:1" fill="#e3e0ec" d="M 1397.5,242.5 C 1398.68,242.281 1399.68,242.614 1400.5,243.5C 1399.63,245.45 1398.96,247.45 1398.5,249.5C 1397.54,247.735 1397.21,245.735 1397.5,243.5C 1397.5,243.167 1397.5,242.833 1397.5,242.5 Z"/></g>
<g><path style="opacity:0.871" fill="#395cee" d="M 1361.5,327.5 C 1359.38,333.74 1356.71,339.74 1353.5,345.5C 1351.24,344.781 1348.9,344.448 1346.5,344.5C 1348.5,339.829 1350.5,335.162 1352.5,330.5C 1355.34,329.331 1358.34,328.331 1361.5,327.5 Z"/></g>
<g><path style="opacity:1" fill="#d1cce0" d="M 1331.5,335.5 C 1332.47,335.987 1333.47,336.487 1334.5,337C 1329.54,342.19 1328.54,341.69 1331.5,335.5 Z"/></g>
<g><path style="opacity:1" fill="#b1a9c9" d="M 1227.5,352.5 C 1229.08,353.002 1229.58,354.002 1229,355.5C 1227.96,354.756 1227.46,353.756 1227.5,352.5 Z"/></g>
<g><path style="opacity:0.702" fill="#736f70" d="M 1226.5,356.5 C 1227.5,356.5 1228.5,356.5 1229.5,356.5C 1230.83,359.833 1232.17,363.167 1233.5,366.5C 1231.18,363.204 1228.85,359.871 1226.5,356.5 Z"/></g>
<g><path style="opacity:0.951" fill="#322d2e" d="M 1759.5,373.5 C 1763.49,373.652 1764.99,375.652 1764,379.5C 1748.05,398.398 1737.72,420.065 1733,444.5C 1729.22,448.706 1727.06,447.873 1726.5,442C 1732.04,416.422 1743.04,393.589 1759.5,373.5 Z"/></g>
<g><path style="opacity:0.846" fill="#8122e7" d="M 264.5,384.5 C 301.22,383.254 320.053,400.921 321,437.5C 315.122,467.374 296.955,481.541 266.5,480C 236.301,472.775 222.801,453.609 226,422.5C 231.435,402.231 244.268,389.565 264.5,384.5 Z M 266.5,391.5 C 292.973,390.307 308.806,402.64 314,428.5C 314.6,445.556 307.767,458.723 293.5,468C 271.134,477.95 252.634,473.117 238,453.5C 227.277,430.557 232.11,411.724 252.5,397C 257.017,394.445 261.684,392.612 266.5,391.5 Z"/></g>
<g><path style="opacity:0.845" fill="#8122e7" d="M 404.5,384.5 C 432.795,382.316 451.295,394.649 460,421.5C 463.951,443.998 456.451,461.498 437.5,474C 418.339,483.629 400.006,482.295 382.5,470C 363.655,451.413 360.155,430.247 372,406.5C 380.082,394.888 390.916,387.554 404.5,384.5 Z M 405.5,391.5 C 433.971,390.393 450.304,403.893 454.5,432C 451.006,459.064 435.673,472.731 408.5,473C 382.021,466.843 370.188,450.343 373,423.5C 377.79,406.543 388.623,395.876 405.5,391.5 Z"/></g>
<g><path style="opacity:0.846" fill="#8122e7" d="M 544.5,384.5 C 573.228,382.415 591.728,395.082 600,422.5C 603.326,444.558 595.826,461.724 577.5,474C 553.853,485.203 533.02,481.37 515,462.5C 502.415,444.476 501.415,425.809 512,406.5C 519.96,394.781 530.793,387.447 544.5,384.5 Z M 545.5,391.5 C 569.848,389.702 585.682,400.368 593,423.5C 595.758,450.49 583.924,466.99 557.5,473C 530.259,473.19 514.925,459.69 511.5,432.5C 513.436,410.908 524.769,397.241 545.5,391.5 Z"/></g>
<g><path style="opacity:0.094" fill="#adaaab" d="M 1309.5,396.5 C 1309.5,395.833 1309.17,395.5 1308.5,395.5C 1309.17,394.733 1310.01,394.066 1311,393.5C 1311.58,394.998 1311.08,395.998 1309.5,396.5 Z"/></g>
<g><path style="opacity:0.647" fill="#747071" d="M 1261.5,396.5 C 1263.55,396.402 1265.22,397.069 1266.5,398.5C 1266.5,399.167 1266.5,399.833 1266.5,400.5C 1264.61,399.396 1262.94,398.063 1261.5,396.5 Z"/></g>
<g><path style="opacity:1" fill="#fe6538" d="M 909.5,713.5 C 910.78,714.931 912.447,715.598 914.5,715.5C 915.496,715.414 916.329,715.748 917,716.5C 921.942,705.616 926.609,694.616 931,683.5C 931.848,681.126 933.181,679.126 935,677.5C 945.183,679.921 955.349,682.421 965.5,685C 983.996,699.749 1003.66,712.749 1024.5,724C 1019.98,743.433 1019.48,762.933 1023,782.5C 1029.21,793.111 1037.71,795.278 1048.5,789C 1052,786.833 1054.83,784 1057,780.5C 1058.65,775.858 1060.49,771.358 1062.5,767C 1069.31,764.197 1074.97,759.864 1079.5,754C 1086.24,752.463 1091.91,749.13 1096.5,744C 1105.81,743.094 1113.31,738.927 1119,731.5C 1127.97,715.222 1136.14,698.556 1143.5,681.5C 1152.35,685.144 1161.02,684.977 1169.5,681C 1175.58,674.301 1176.08,667.134 1171,659.5C 1168.13,656.296 1164.96,653.463 1161.5,651C 1141.5,638.667 1121.5,626.333 1101.5,614C 1087.08,609.46 1073.08,603.794 1059.5,597C 1039.57,588.69 1018.9,583.023 997.5,580C 990.391,578.357 983.725,575.857 977.5,572.5C 978.04,571.252 978.707,570.085 979.5,569C 965.686,563.258 952.019,557.258 938.5,551C 1052.58,526.48 1166.58,501.646 1280.5,476.5C 1289.77,574.109 1298.43,671.776 1306.5,769.5C 1173.9,787.967 1041.23,805.967 908.5,823.5C 899.582,782.994 890.582,742.494 881.5,702C 881.833,701.5 882.167,701 882.5,700.5C 891.48,705.159 900.48,709.492 909.5,713.5 Z"/></g>
<g><path style="opacity:1" fill="#1e181b" d="M 1229.5,521.5 C 1231.79,521.244 1233.96,521.577 1236,522.5C 1243.33,549.833 1250.67,577.167 1258,604.5C 1258.67,606.167 1258.67,607.833 1258,609.5C 1233.64,616.716 1209.14,623.549 1184.5,630C 1178.92,631.815 1173.26,632.815 1167.5,633C 1157.62,603.981 1148.12,574.815 1139,545.5C 1138.33,543.833 1138.33,542.167 1139,540.5C 1169.27,534.214 1199.44,527.88 1229.5,521.5 Z"/></g>
<g><path style="opacity:1" fill="#fcfcfc" d="M 1225.5,526.5 C 1228.39,526.042 1230.89,526.709 1233,528.5C 1239.83,553.833 1246.67,579.167 1253.5,604.5C 1253.17,605.167 1252.83,605.833 1252.5,606.5C 1225.45,614.929 1198.12,622.096 1170.5,628C 1161.51,600.356 1152.51,572.689 1143.5,545C 1143.91,544.055 1144.57,543.388 1145.5,543C 1172.36,537.795 1199.03,532.295 1225.5,526.5 Z"/></g>
<g><path style="opacity:1" fill="#191a1c" d="M 1185.5,549.5 C 1186.55,549.351 1187.55,549.517 1188.5,550C 1194,556.167 1199.5,562.333 1205,568.5C 1206.9,570.441 1207.74,572.774 1207.5,575.5C 1206.45,575.649 1205.45,575.483 1204.5,575C 1199,568.833 1193.5,562.667 1188,556.5C 1184.42,564.234 1181.42,572.234 1179,580.5C 1178.42,583.124 1177.09,583.791 1175,582.5C 1177.41,571.216 1180.91,560.216 1185.5,549.5 Z"/></g>
<g><path style="opacity:1" fill="#1b1b1d" d="M 1208.5,576.5 C 1211.08,576.722 1211.91,578.055 1211,580.5C 1201.5,590 1192,599.5 1182.5,609C 1179.33,609.833 1178.17,608.667 1179,605.5C 1189.34,596.328 1199.17,586.661 1208.5,576.5 Z"/></g>
<g><path style="opacity:0.537" fill="#696466" d="M 743.5,594.5 C 741.938,598.392 739.605,601.725 736.5,604.5C 736.5,603.833 736.167,603.5 735.5,603.5C 737.472,599.895 740.139,596.895 743.5,594.5 Z"/></g>
<g><path style="opacity:1" fill="#9a90b9" d="M 1117.5,640.5 C 1116.37,639.878 1115.37,639.045 1114.5,638C 1116.49,637.481 1117.49,638.314 1117.5,640.5 Z"/></g>
<g><path style="opacity:0.845" fill="#395cee" d="M 1454.5,657.5 C 1457.73,657.772 1459.73,659.438 1460.5,662.5C 1420.94,692.261 1376.61,711.595 1327.5,720.5C 1324.33,720.6 1321.33,719.933 1318.5,718.5C 1317.44,717.575 1317.44,716.575 1318.5,715.5C 1368.64,706.807 1413.97,687.474 1454.5,657.5 Z"/></g>
<g><path style="opacity:0.847" fill="#395cee" d="M 807.5,665.5 C 730.899,718.591 671.232,786.424 628.5,869C 723.404,857.332 817.738,860.999 911.5,880C 923.882,883.012 936.216,886.179 948.5,889.5C 949.5,889.333 950.5,889.167 951.5,889C 954.369,885.962 957.369,883.129 960.5,880.5C 959.578,886.929 958.245,893.262 956.5,899.5C 954.774,899.185 953.107,899.019 951.5,899C 892.212,958.366 847.045,1027.2 816,1105.5C 812.21,1115.99 809.044,1126.66 806.5,1137.5C 835.568,1142.05 864.235,1148.38 892.5,1156.5C 891.677,1158.99 890.677,1161.32 889.5,1163.5C 862.742,1155.08 835.409,1149.08 807.5,1145.5C 806.353,1145.82 805.519,1146.48 805,1147.5C 802.877,1161.1 801.377,1174.77 800.5,1188.5C 798.401,1189.61 796.067,1190.28 793.5,1190.5C 794.11,1175.17 795.777,1160.01 798.5,1145C 721.944,1137.09 646.278,1142.26 571.5,1160.5C 568.836,1197.82 562.503,1234.48 552.5,1270.5C 549.581,1272.13 546.581,1273.46 543.5,1274.5C 554.373,1237.93 561.373,1200.6 564.5,1162.5C 510.117,1175.53 458.784,1196.03 410.5,1224C 330.297,1275.22 275.13,1346.05 245,1436.5C 243.274,1437.58 241.441,1437.74 239.5,1437C 238.919,1436.11 238.585,1435.11 238.5,1434C 275.158,1325.01 345.158,1245.34 448.5,1195C 486.15,1178.12 524.984,1164.62 565,1154.5C 568.051,1118.51 571.051,1082.51 574,1046.5C 577.963,988.316 591.796,932.649 615.5,879.5C 475.728,897.571 349.728,948.737 237.5,1033C 161.436,1095.02 100.936,1169.52 56,1256.5C 37.6629,1292.85 21.6629,1330.18 8,1368.5C 3.37718,1370.68 1.37718,1369.34 2,1364.5C 42.0288,1246.2 106.862,1144.04 196.5,1058C 271.552,991.777 356.886,942.444 452.5,910C 507.018,891.787 562.685,878.454 619.5,870C 662.141,785.853 722.141,716.686 799.5,662.5C 802.688,661.747 805.354,662.747 807.5,665.5 Z M 711.5,869.5 C 773.352,867.857 834.685,872.69 895.5,884C 911.739,887.06 927.739,891.06 943.5,896C 880.724,959.667 834.224,1033.83 804,1118.5C 802.339,1124.81 800.839,1131.14 799.5,1137.5C 723.02,1130.18 647.353,1135.18 572.5,1152.5C 575.335,1114.48 578.502,1076.48 582,1038.5C 586.25,984.902 599.25,933.569 621,884.5C 622.123,881.751 623.623,879.251 625.5,877C 654.236,873.495 682.902,870.995 711.5,869.5 Z"/></g>
<g><path style="opacity:1" fill="#7a58cc" d="M 1177.5,681.5 C 1187.27,681.073 1189.6,684.906 1184.5,693C 1178.98,694.925 1175.65,693.091 1174.5,687.5C 1174.98,685.199 1175.98,683.199 1177.5,681.5 Z"/></g>
<g><path style="opacity:1" fill="#7563ab" d="M 1306.5,696.5 C 1307.73,697.152 1308.39,698.319 1308.5,700C 1308.17,701.167 1307.83,702.333 1307.5,703.5C 1306.53,701.257 1306.19,698.924 1306.5,696.5 Z"/></g>
<g><path style="opacity:1" fill="#b5a5ba" d="M 909.5,713.5 C 911.553,713.402 913.22,714.069 914.5,715.5C 912.447,715.598 910.78,714.931 909.5,713.5 Z"/></g>
<g><path style="opacity:0.903" fill="#8122e7" d="M 441.5,752.5 C 453.134,752.971 457.968,758.971 456,770.5C 450.976,778.749 444.143,780.582 435.5,776C 428.666,765.719 430.666,757.885 441.5,752.5 Z"/></g>
<g><path style="opacity:1" fill="#6b51d9" d="M 1199.5,806.5 C 1205.02,806.562 1206.86,809.229 1205,814.5C 1200.63,817.543 1197.79,816.543 1196.5,811.5C 1196.32,809.032 1197.32,807.365 1199.5,806.5 Z"/></g>
<g><path style="opacity:0.874" fill="#395cef" d="M 547.5,807.5 C 554.981,805.494 558.147,808.161 557,815.5C 556.5,816 556,816.5 555.5,817C 533.493,820.12 511.493,823.287 489.5,826.5C 484.849,825.807 483.349,823.141 485,818.5C 485.5,818 486,817.5 486.5,817C 506.994,813.955 527.327,810.788 547.5,807.5 Z"/></g>
<g><path style="opacity:1" fill="#3b59eb" d="M 1348.5,854.5 C 1363.89,853.535 1378.89,856.035 1393.5,862C 1388.5,862.667 1383.5,862.667 1378.5,862C 1368.48,859.495 1358.48,856.995 1348.5,854.5 Z"/></g>
<g><path style="opacity:0.815" fill="#8122e7" d="M 491.5,946.5 C 495.605,946.496 497.105,948.496 496,952.5C 489.626,963.416 483.126,974.25 476.5,985C 487.334,991.918 498.334,998.585 509.5,1005C 512.341,1009.51 511.007,1011.51 505.5,1011C 494.584,1004.63 483.75,998.126 473,991.5C 466.082,1002.33 459.415,1013.33 453,1024.5C 447.636,1027.46 445.636,1025.79 447,1019.5C 453.5,1009 460,998.5 466.5,988C 455.666,981.082 444.666,974.415 433.5,968C 431.38,966.477 431.047,964.644 432.5,962.5C 434.421,961.359 436.421,961.192 438.5,962C 449,968.5 459.5,975 470,981.5C 477.178,969.805 484.344,958.139 491.5,946.5 Z"/></g>
<g><path style="opacity:0.915" fill="#8122e7" d="M 1755.5,966.5 C 1759.13,966.16 1762.46,966.994 1765.5,969C 1789.08,982.707 1812.58,996.541 1836,1010.5C 1837.67,1017.83 1834.83,1021 1827.5,1020C 1803.33,1005.75 1779,991.747 1754.5,978C 1751.68,973.899 1752.01,970.065 1755.5,966.5 Z"/></g>
<g><path style="opacity:0.859" fill="#395cee" d="M 1165.5,1001.5 C 1203.4,1028.4 1240.73,1056.06 1277.5,1084.5C 1276.09,1086.91 1274.09,1088.58 1271.5,1089.5C 1236.01,1061.34 1199.68,1034.34 1162.5,1008.5C 1162.71,1005.76 1163.71,1003.43 1165.5,1001.5 Z"/></g>
<g><path style="opacity:0.867" fill="#8122e6" d="M 1673.5,1042.5 C 1655.81,1106.54 1631.98,1168.21 1602,1227.5C 1592.4,1244.39 1582.56,1261.05 1572.5,1277.5C 1570.39,1279.02 1568.72,1281.02 1567.5,1283.5C 1540.3,1327 1507.96,1366.5 1470.5,1402C 1440.43,1428.71 1406.1,1448.21 1367.5,1460.5C 1363.65,1460.29 1360.32,1461.29 1357.5,1463.5C 1324.13,1470.65 1290.46,1472.65 1256.5,1469.5C 1255.53,1467.39 1255.2,1465.06 1255.5,1462.5C 1287.09,1465.55 1318.42,1463.89 1349.5,1457.5C 1353.12,1457.1 1356.45,1456.1 1359.5,1454.5C 1398.19,1443.83 1432.52,1425.33 1462.5,1399C 1500.77,1363.85 1533.44,1324.35 1560.5,1280.5C 1562.82,1279.2 1564.16,1277.2 1564.5,1274.5C 1598.84,1223.07 1625.68,1167.74 1645,1108.5C 1651.68,1088.63 1657.85,1068.63 1663.5,1048.5C 1666.59,1046.08 1669.92,1044.08 1673.5,1042.5 Z"/></g>
<g><path style="opacity:0.852" fill="#395cee" d="M 1715.5,1606.5 C 1717.5,1603.83 1719.83,1601.5 1722.5,1599.5C 1809.06,1612.87 1896.06,1615.37 1983.5,1607C 2067.21,1598.1 2144.21,1570.77 2214.5,1525C 2258.03,1495.81 2302.37,1467.81 2347.5,1441C 2377.92,1423.64 2409.92,1409.97 2443.5,1400C 2446.35,1399.06 2448.85,1399.56 2451,1401.5C 2459.62,1423.36 2468.62,1445.03 2478,1466.5C 2502.68,1380.78 2527.51,1295.12 2552.5,1209.5C 2477.6,1171.13 2402.43,1133.13 2327,1095.5C 2332.57,1110.87 2338.57,1126.2 2345,1141.5C 2345.76,1143.77 2345.59,1145.94 2344.5,1148C 2321.73,1153.48 2299.73,1161.15 2278.5,1171C 2263.34,1178.41 2248.34,1186.08 2233.5,1194C 2190.09,1219.07 2146.42,1243.73 2102.5,1268C 2055.18,1293.66 2005.18,1311.99 1952.5,1323C 1926.29,1327.42 1899.96,1328.92 1873.5,1327.5C 1873.06,1327.57 1872.73,1327.4 1872.5,1327C 1873.41,1324.78 1874.41,1322.61 1875.5,1320.5C 1929.13,1322.88 1980.8,1313.71 2030.5,1293C 2057.44,1282.03 2083.77,1269.7 2109.5,1256C 2148.49,1234.51 2187.16,1212.51 2225.5,1190C 2253.84,1174.16 2283.17,1160.5 2313.5,1149C 2321.5,1146.67 2329.5,1144.33 2337.5,1142C 2329.9,1124.13 2322.57,1106.13 2315.5,1088C 2316.44,1085.02 2318.44,1084.02 2321.5,1085C 2401.08,1124.71 2480.58,1164.54 2560,1204.5C 2534.71,1296.72 2508.38,1388.72 2481,1480.5C 2479.19,1481.76 2477.35,1481.76 2475.5,1480.5C 2465.39,1456.61 2455.56,1432.61 2446,1408.5C 2445.44,1407.98 2444.77,1407.64 2444,1407.5C 2413.15,1416.84 2383.65,1429.34 2355.5,1445C 2309.66,1472.08 2264.66,1500.42 2220.5,1530C 2139.37,1582.6 2050.37,1611.6 1953.5,1617C 1873.82,1621.44 1794.49,1617.94 1715.5,1606.5 Z"/></g>
<g><path style="opacity:0.974" fill="#060303" d="M 1181.5,1194.5 C 1181.41,1195.5 1181.75,1196.33 1182.5,1197C 1184.72,1197.69 1186.89,1198.53 1189,1199.5C 1189.77,1199.36 1190.44,1199.02 1191,1198.5C 1196.36,1202.21 1200.03,1207.21 1202,1213.5C 1204.77,1238.58 1207.94,1263.58 1211.5,1288.5C 1227.81,1294.48 1243.81,1300.82 1259.5,1307.5C 1260.9,1310.33 1260.57,1312.99 1258.5,1315.5C 1254.13,1318.23 1249.79,1320.89 1245.5,1323.5C 1243.12,1322.65 1241.12,1321.32 1239.5,1319.5C 1243.94,1316.44 1248.6,1313.61 1253.5,1311C 1237.73,1304.47 1221.73,1298.63 1205.5,1293.5C 1202.66,1266.81 1199.5,1240.14 1196,1213.5C 1191.02,1203.93 1183.18,1200.09 1172.5,1202C 1168.5,1204 1164.5,1206 1160.5,1208C 1145.57,1211.87 1130.9,1216.53 1116.5,1222C 1114.29,1223.87 1112.46,1226.04 1111,1228.5C 1106.28,1252.67 1111.95,1274 1128,1292.5C 1144.21,1320.97 1150.71,1351.47 1147.5,1384C 1157.75,1435.79 1178.25,1482.95 1209,1525.5C 1219.25,1538.25 1232.09,1542.09 1247.5,1537C 1251.62,1534.26 1253.79,1530.43 1254,1525.5C 1255.1,1498.7 1252.1,1472.37 1245,1446.5C 1244.78,1436.79 1244.28,1427.12 1243.5,1417.5C 1245.7,1415.9 1248.03,1414.57 1250.5,1413.5C 1249.83,1430.1 1251.49,1446.44 1255.5,1462.5C 1255.2,1465.06 1255.53,1467.39 1256.5,1469.5C 1260.2,1489.66 1261.37,1509.99 1260,1530.5C 1257.5,1538.84 1252,1543.84 1243.5,1545.5C 1227.56,1547.13 1214.39,1541.8 1204,1529.5C 1173.69,1487.29 1153.03,1440.63 1142,1389.5C 1145.84,1349.2 1135.84,1312.86 1112,1280.5C 1103.2,1262.59 1101.2,1243.92 1106,1224.5C 1107.67,1222 1109.5,1219.67 1111.5,1217.5C 1126.29,1211.07 1141.62,1205.9 1157.5,1202C 1164.72,1196.89 1172.72,1194.39 1181.5,1194.5 Z"/></g>
<g><path style="opacity:1" fill="#fe6638" d="M 1239.5,1319.5 C 1236.33,1318.83 1233.33,1317.66 1230.5,1316C 1214.5,1305.67 1198.5,1295.33 1182.5,1285C 1180.32,1283.8 1177.99,1283.3 1175.5,1283.5C 1175.26,1285.47 1175.59,1287.3 1176.5,1289C 1187.34,1295.58 1198,1302.42 1208.5,1309.5C 1208.17,1309.83 1207.83,1310.17 1207.5,1310.5C 1197.62,1307.1 1187.62,1304.1 1177.5,1301.5C 1173.17,1301.98 1172.51,1303.81 1175.5,1307C 1193.75,1312.81 1212.08,1318.31 1230.5,1323.5C 1223.59,1347.35 1220.09,1371.68 1220,1396.5C 1220.21,1406.1 1224.38,1413.27 1232.5,1418C 1236.22,1418.68 1239.89,1418.51 1243.5,1417.5C 1244.28,1427.12 1244.78,1436.79 1245,1446.5C 1252.1,1472.37 1255.1,1498.7 1254,1525.5C 1253.79,1530.43 1251.62,1534.26 1247.5,1537C 1232.09,1542.09 1219.25,1538.25 1209,1525.5C 1178.25,1482.95 1157.75,1435.79 1147.5,1384C 1150.71,1351.47 1144.21,1320.97 1128,1292.5C 1111.95,1274 1106.28,1252.67 1111,1228.5C 1112.46,1226.04 1114.29,1223.87 1116.5,1222C 1130.9,1216.53 1145.57,1211.87 1160.5,1208C 1164.5,1206 1168.5,1204 1172.5,1202C 1183.18,1200.09 1191.02,1203.93 1196,1213.5C 1199.5,1240.14 1202.66,1266.81 1205.5,1293.5C 1221.73,1298.63 1237.73,1304.47 1253.5,1311C 1248.6,1313.61 1243.94,1316.44 1239.5,1319.5 Z"/></g>
<g><path style="opacity:0.863" fill="#395cee" d="M 1440.5,1205.5 C 1480,1231.59 1521.33,1254.59 1564.5,1274.5C 1564.16,1277.2 1562.82,1279.2 1560.5,1280.5C 1516.23,1260.38 1474.23,1236.71 1434.5,1209.5C 1435.8,1207.18 1437.8,1205.84 1440.5,1205.5 Z"/></g>
<g><path style="opacity:0.95" fill="#1e181a" d="M 1111.5,1217.5 C 1109.5,1219.67 1107.67,1222 1106,1224.5C 1101.2,1243.92 1103.2,1262.59 1112,1280.5C 1135.84,1312.86 1145.84,1349.2 1142,1389.5C 1153.03,1440.63 1173.69,1487.29 1204,1529.5C 1214.39,1541.8 1227.56,1547.13 1243.5,1545.5C 1241.2,1548.32 1238.2,1550.16 1234.5,1551C 1219.47,1553.43 1206.63,1549.27 1196,1538.5C 1175.35,1510.54 1158.85,1480.21 1146.5,1447.5C 1146.48,1444.12 1145.48,1441.12 1143.5,1438.5C 1138.24,1422.78 1133.9,1406.78 1130.5,1390.5C 1134.31,1352.45 1124.81,1318.11 1102,1287.5C 1098.2,1280.95 1095.7,1273.95 1094.5,1266.5C 1094.04,1263.09 1093.38,1259.76 1092.5,1256.5C 1092.16,1247.72 1093,1239.05 1095,1230.5C 1098.68,1223.9 1104.18,1219.57 1111.5,1217.5 Z"/></g>
<g><path style="opacity:0.864" fill="#395cee" d="M 1070.5,1242.5 C 1078.08,1246.75 1085.42,1251.41 1092.5,1256.5C 1093.38,1259.76 1094.04,1263.09 1094.5,1266.5C 1085.44,1260.11 1076.1,1254.11 1066.5,1248.5C 1067.34,1246.15 1068.67,1244.15 1070.5,1242.5 Z"/></g>
<g><path style="opacity:0.881" fill="#395cee" d="M 1572.5,1277.5 C 1611.38,1293.47 1651.72,1304.31 1693.5,1310C 1751.23,1317.82 1809.23,1321.32 1867.5,1320.5C 1867.28,1323.07 1866.61,1325.4 1865.5,1327.5C 1805.19,1328.35 1745.19,1324.52 1685.5,1316C 1644.79,1309.93 1605.46,1299.09 1567.5,1283.5C 1568.72,1281.02 1570.39,1279.02 1572.5,1277.5 Z"/></g>
<g><path style="opacity:0.933" fill="#221b1b" d="M 1239.5,1319.5 C 1241.12,1321.32 1243.12,1322.65 1245.5,1323.5C 1264.61,1333.89 1283.27,1345.06 1301.5,1357C 1314.28,1366.34 1315.62,1377.01 1305.5,1389C 1295.16,1393.36 1285.83,1391.69 1277.5,1384C 1266.91,1372.75 1257.08,1360.92 1248,1348.5C 1247.08,1357.34 1247.92,1366.01 1250.5,1374.5C 1250.57,1378.77 1251.57,1382.77 1253.5,1386.5C 1256.06,1394.58 1255.9,1402.58 1253,1410.5C 1252.15,1411.57 1251.31,1412.57 1250.5,1413.5C 1248.03,1414.57 1245.7,1415.9 1243.5,1417.5C 1239.89,1418.51 1236.22,1418.68 1232.5,1418C 1224.38,1413.27 1220.21,1406.1 1220,1396.5C 1220.09,1371.68 1223.59,1347.35 1230.5,1323.5C 1212.08,1318.31 1193.75,1312.81 1175.5,1307C 1172.51,1303.81 1173.17,1301.98 1177.5,1301.5C 1187.62,1304.1 1197.62,1307.1 1207.5,1310.5C 1207.83,1310.17 1208.17,1309.83 1208.5,1309.5C 1198,1302.42 1187.34,1295.58 1176.5,1289C 1175.59,1287.3 1175.26,1285.47 1175.5,1283.5C 1177.99,1283.3 1180.32,1283.8 1182.5,1285C 1198.5,1295.33 1214.5,1305.67 1230.5,1316C 1233.33,1317.66 1236.33,1318.83 1239.5,1319.5 Z M 1246.5,1333.5 C 1246.56,1332.96 1246.89,1332.62 1247.5,1332.5C 1264.83,1342.5 1281.83,1353 1298.5,1364C 1308.34,1372.41 1307.51,1379.25 1296,1384.5C 1291.69,1384.18 1287.86,1382.68 1284.5,1380C 1270.08,1365.76 1257.41,1350.26 1246.5,1333.5 Z"/></g>
<g><path style="opacity:0.839" fill="#395cee" d="M 540.5,1284.5 C 542.352,1287.55 543.686,1290.88 544.5,1294.5C 542.109,1300.95 539.442,1307.28 536.5,1313.5C 533.35,1316.58 529.683,1318.91 525.5,1320.5C 530.892,1308.66 535.892,1296.66 540.5,1284.5 Z"/></g>
<g><path style="opacity:0.938" fill="#1e1819" d="M 442.5,1308.5 C 437.466,1310.12 433.299,1313.12 430,1317.5C 420.863,1330.77 416.03,1345.43 415.5,1361.5C 422.52,1398.16 417.687,1433.16 401,1466.5C 396.936,1471.01 394.603,1476.34 394,1482.5C 382.605,1532.3 381.605,1582.3 391,1632.5C 395.317,1647.32 404.817,1656.98 419.5,1661.5C 402.634,1663.55 390.134,1656.89 382,1641.5C 377.572,1626.85 374.905,1611.85 374,1596.5C 370.572,1554.21 374.238,1512.54 385,1471.5C 389.696,1465.44 393.363,1458.78 396,1451.5C 406.981,1422.39 409.481,1392.56 403.5,1362C 403.909,1342.76 410.576,1326.09 423.5,1312C 429.471,1309.02 435.804,1307.85 442.5,1308.5 Z"/></g>
<g><path style="opacity:0.964" fill="#080505" d="M 442.5,1308.5 C 456.976,1309.16 471.309,1311 485.5,1314C 492.5,1314.33 499.5,1314.67 506.5,1315C 511.804,1315.98 516.137,1318.48 519.5,1322.5C 520.702,1326.58 522.202,1330.58 524,1334.5C 524.667,1339.83 524.667,1345.17 524,1350.5C 516.4,1371.8 508.9,1393.13 501.5,1414.5C 510.717,1426.22 520.884,1437.22 532,1447.5C 532.988,1450.92 534.488,1453.92 536.5,1456.5C 535.327,1458.5 533.66,1460 531.5,1461C 526.981,1461.18 522.647,1461.68 518.5,1462.5C 515.914,1461.36 514.247,1459.36 513.5,1456.5C 518.586,1454.98 523.919,1454.15 529.5,1454C 517.62,1441.62 505.954,1429.12 494.5,1416.5C 502.903,1392.12 511.403,1367.79 520,1343.5C 520.955,1332.91 516.455,1325.74 506.5,1322C 499.5,1321.67 492.5,1321.33 485.5,1321C 470.316,1316.87 454.982,1315.53 439.5,1317C 428.429,1329.32 422.429,1343.82 421.5,1360.5C 427.912,1394.14 424.745,1426.81 412,1458.5C 409.423,1464.66 406.09,1470.33 402,1475.5C 389.212,1525.4 387.212,1575.74 396,1626.5C 398.969,1642.47 408.303,1652.13 424,1655.5C 428.925,1655.37 432.925,1653.37 436,1649.5C 449.093,1624.56 458.427,1598.22 464,1570.5C 467.799,1562.26 471.299,1553.93 474.5,1545.5C 476.833,1545.5 479.167,1545.5 481.5,1545.5C 477.969,1554.92 474.136,1564.25 470,1573.5C 464.779,1600.83 455.779,1626.83 443,1651.5C 437.411,1660.19 429.577,1663.53 419.5,1661.5C 404.817,1656.98 395.317,1647.32 391,1632.5C 381.605,1582.3 382.605,1532.3 394,1482.5C 394.603,1476.34 396.936,1471.01 401,1466.5C 417.687,1433.16 422.52,1398.16 415.5,1361.5C 416.03,1345.43 420.863,1330.77 430,1317.5C 433.299,1313.12 437.466,1310.12 442.5,1308.5 Z"/></g>
<g><path style="opacity:1" fill="#fdfcfd" d="M 551.5,1312.5 C 552.496,1312.41 553.329,1312.75 554,1313.5C 562.392,1333.28 571.059,1352.95 580,1372.5C 586.809,1392.43 593.309,1412.43 599.5,1432.5C 584.023,1435.87 568.69,1439.87 553.5,1444.5C 544.728,1406.14 536.394,1367.64 528.5,1329C 528.785,1327.11 529.785,1325.78 531.5,1325C 538.399,1321.06 545.066,1316.89 551.5,1312.5 Z"/></g>
<g><path style="opacity:1" fill="#fe6638" d="M 513.5,1456.5 C 512.194,1455.03 510.694,1453.7 509,1452.5C 497.876,1433.75 486.376,1415.25 474.5,1397C 470.889,1395.75 469.389,1396.91 470,1400.5C 476.249,1411.33 482.749,1422 489.5,1432.5C 488.998,1433.52 488.332,1433.69 487.5,1433C 480.691,1426.1 473.691,1419.44 466.5,1413C 464.559,1412.26 462.726,1412.42 461,1413.5C 460.333,1414.5 460.333,1415.5 461,1416.5C 474.866,1430.03 489.032,1443.2 503.5,1456C 486.215,1475.39 472.048,1496.89 461,1520.5C 460.091,1526.61 460.424,1532.61 462,1538.5C 464.826,1543.15 468.993,1545.48 474.5,1545.5C 471.299,1553.93 467.799,1562.26 464,1570.5C 458.427,1598.22 449.093,1624.56 436,1649.5C 432.925,1653.37 428.925,1655.37 424,1655.5C 408.303,1652.13 398.969,1642.47 396,1626.5C 387.212,1575.74 389.212,1525.4 402,1475.5C 406.09,1470.33 409.423,1464.66 412,1458.5C 424.745,1426.81 427.912,1394.14 421.5,1360.5C 422.429,1343.82 428.429,1329.32 439.5,1317C 454.982,1315.53 470.316,1316.87 485.5,1321C 492.5,1321.33 499.5,1321.67 506.5,1322C 516.455,1325.74 520.955,1332.91 520,1343.5C 511.403,1367.79 502.903,1392.12 494.5,1416.5C 505.954,1429.12 517.62,1441.62 529.5,1454C 523.919,1454.15 518.586,1454.98 513.5,1456.5 Z"/></g>
<g><path style="opacity:1" fill="#f8f8f8" d="M 1233.5,1334.5 C 1234.12,1334.61 1234.62,1334.94 1235,1335.5C 1236.53,1343.95 1238.53,1352.28 1241,1360.5C 1241.73,1375.84 1242.57,1391.18 1243.5,1406.5C 1243.45,1408.1 1243.12,1409.6 1242.5,1411C 1235.45,1413.9 1230.62,1411.73 1228,1404.5C 1226.1,1389.15 1226.43,1373.82 1229,1358.5C 1230.61,1350.51 1232.11,1342.51 1233.5,1334.5 Z"/></g>
<g><path style="opacity:0.846" fill="#8122e6" d="M 924.5,1351.5 C 942.596,1357.81 960.596,1364.65 978.5,1372C 1017,1389.06 1055.67,1405.72 1094.5,1422C 1110.62,1428.21 1126.95,1433.71 1143.5,1438.5C 1145.48,1441.12 1146.48,1444.12 1146.5,1447.5C 1130.09,1442.31 1113.76,1436.81 1097.5,1431C 1055.27,1413.55 1013.27,1395.55 971.5,1377C 951.802,1368.98 931.802,1361.82 911.5,1355.5C 915.594,1353.72 919.927,1352.39 924.5,1351.5 Z"/></g>
<g><path style="opacity:0.857" fill="#395cee" d="M 1250.5,1374.5 C 1285.97,1402.4 1322.31,1429.06 1359.5,1454.5C 1356.45,1456.1 1353.12,1457.1 1349.5,1457.5C 1317.18,1434.33 1285.18,1410.67 1253.5,1386.5C 1251.57,1382.77 1250.57,1378.77 1250.5,1374.5 Z"/></g>
<g><path style="opacity:0.816" fill="#395cee" d="M 760.5,1395.5 C 737.752,1472.03 700.252,1540.03 648,1599.5C 641.5,1606 635,1612.5 628.5,1619C 623.333,1620.5 621.5,1618.67 623,1613.5C 668.446,1569.34 703.779,1518.01 729,1459.5C 737.92,1439.24 745.754,1418.57 752.5,1397.5C 755.221,1397.04 757.888,1396.37 760.5,1395.5 Z"/></g>
<g><path style="opacity:0.924" fill="#221a1b" d="M 513.5,1456.5 C 514.247,1459.36 515.914,1461.36 518.5,1462.5C 528.979,1478.78 539.479,1495.11 550,1511.5C 555.297,1518.71 557.297,1526.71 556,1535.5C 547.309,1549.79 536.975,1551.13 525,1539.5C 522.139,1535.11 519.806,1530.45 518,1525.5C 514.335,1512.17 511.002,1498.84 508,1485.5C 506.607,1489.29 504.941,1492.95 503,1496.5C 500.126,1508.54 497.126,1520.54 494,1532.5C 492.587,1535.66 490.92,1538.66 489,1541.5C 486.815,1543.54 484.315,1544.87 481.5,1545.5C 479.167,1545.5 476.833,1545.5 474.5,1545.5C 468.993,1545.48 464.826,1543.15 462,1538.5C 460.424,1532.61 460.091,1526.61 461,1520.5C 472.048,1496.89 486.215,1475.39 503.5,1456C 489.032,1443.2 474.866,1430.03 461,1416.5C 460.333,1415.5 460.333,1414.5 461,1413.5C 462.726,1412.42 464.559,1412.26 466.5,1413C 473.691,1419.44 480.691,1426.1 487.5,1433C 488.332,1433.69 488.998,1433.52 489.5,1432.5C 482.749,1422 476.249,1411.33 470,1400.5C 469.389,1396.91 470.889,1395.75 474.5,1397C 486.376,1415.25 497.876,1433.75 509,1452.5C 510.694,1453.7 512.194,1455.03 513.5,1456.5 Z M 514.5,1471.5 C 526.39,1488.26 537.557,1505.59 548,1523.5C 551.512,1531.3 549.345,1536.8 541.5,1540C 538.581,1540.55 535.914,1539.88 533.5,1538C 530.213,1534.71 527.713,1530.87 526,1526.5C 520.181,1508.57 516.348,1490.24 514.5,1471.5 Z"/></g>
<g><path style="opacity:0.847" fill="#395cee" d="M 1367.5,1460.5 C 1470.78,1534.62 1585.78,1580.62 1712.5,1598.5C 1710.81,1601.19 1708.47,1603.19 1705.5,1604.5C 1610.01,1590.84 1520.35,1560.34 1436.5,1513C 1409.77,1496.98 1383.44,1480.48 1357.5,1463.5C 1360.32,1461.29 1363.65,1460.29 1367.5,1460.5 Z"/></g>
<g><path style="opacity:1" fill="#f9f9f9" d="M 501.5,1467.5 C 500.728,1477.85 498.561,1488.18 495,1498.5C 489.264,1511.87 483.431,1525.21 477.5,1538.5C 472.77,1540.38 469.27,1539.05 467,1534.5C 466.016,1528.31 466.682,1522.31 469,1516.5C 478.485,1499.2 489.319,1482.87 501.5,1467.5 Z"/></g>
</svg>
