<?xml version="1.0" standalone="no"?>
<!DOCTYPE svg PUBLIC "-//W3C//DTD SVG 20010904//EN"
 "http://www.w3.org/TR/2001/REC-SVG-20010904/DTD/svg10.dtd">
<svg version="1.0" xmlns="http://www.w3.org/2000/svg"
 width="2563.000000pt" height="1758.000000pt" viewBox="0 0 2563.000000 1758.000000"
 preserveAspectRatio="xMidYMid meet">
<metadata>
Created by potrace 1.16, written by Peter Selinger 2001-2019
</metadata>
<g transform="translate(0.000000,1758.000000) scale(0.100000,-0.100000)"
fill="#000000" stroke="none">
<path d="M13884 17555 c-4 -8 -4 -22 -1 -30 4 -8 94 -73 202 -145 l196 -131
-69 -74 c-189 -203 -339 -507 -413 -841 l-22 -101 -74 24 c-175 55 -391 52
-578 -8 -51 -16 -110 -29 -132 -29 -97 0 -202 -60 -242 -139 -10 -20 -28 -65
-39 -101 -11 -36 -36 -99 -55 -140 -19 -41 -42 -100 -50 -131 -8 -30 -28 -75
-46 -99 -114 -158 -85 -451 53 -527 17 -9 14 -18 -44 -131 -33 -67 -83 -155
-110 -197 -48 -73 -51 -75 -90 -75 -22 0 -40 -4 -40 -10 0 -5 -6 -7 -14 -4
-10 4 -33 -30 -76 -115 -38 -72 -69 -121 -78 -121 -8 0 -137 31 -286 69 -353
90 -390 95 -636 95 -225 0 -332 -13 -548 -65 -233 -57 -525 -173 -718 -287
-27 -15 -680 -315 -1451 -666 -771 -351 -1430 -655 -1464 -675 -189 -110 -347
-331 -406 -567 -24 -94 -23 -332 0 -428 72 -289 273 -527 540 -637 81 -34 109
-37 152 -19 29 12 45 5 343 -136 171 -81 312 -151 312 -154 0 -4 -21 -22 -47
-40 -27 -19 -109 -81 -183 -139 -652 -510 -1191 -1156 -1534 -1838 -26 -52
-43 -74 -59 -77 -12 -3 -98 -17 -192 -31 -926 -144 -1891 -467 -2670 -895
-858 -470 -1520 -1029 -2092 -1766 -461 -595 -854 -1311 -1133 -2066 -41 -112
-70 -204 -66 -213 4 -11 15 -15 33 -13 25 3 31 15 98 193 463 1235 1140 2240
2014 2992 965 830 2286 1428 3702 1677 277 48 293 50 286 34 -136 -322 -198
-497 -255 -723 -99 -388 -141 -701 -202 -1490 -41 -529 -41 -536 -54 -540 -6
-2 -81 -22 -166 -45 -341 -91 -757 -245 -1055 -390 -819 -399 -1501 -1098
-1871 -1919 -73 -162 -166 -417 -162 -445 3 -24 55 -36 63 -14 126 370 248
628 428 910 154 240 314 437 541 663 469 468 992 775 1745 1025 201 67 470
144 477 137 6 -5 -24 -252 -52 -437 -42 -280 -137 -674 -166 -692 -41 -24 -41
-25 -30 -58 11 -29 7 -45 -40 -158 -96 -239 -126 -283 -164 -241 -42 47 -92
62 -229 70 -71 4 -184 17 -250 29 -154 27 -354 37 -415 20 -59 -16 -114 -73
-167 -175 -84 -162 -109 -314 -79 -480 34 -192 13 -449 -55 -661 -36 -115 -89
-234 -123 -279 -37 -48 -99 -345 -128 -615 -16 -149 -15 -563 1 -710 22 -196
49 -337 77 -396 31 -67 117 -154 182 -186 38 -19 66 -24 152 -26 193 -5 236
23 329 219 76 160 122 294 176 502 44 173 149 447 171 447 23 0 75 59 98 112
14 29 41 124 61 210 35 154 88 298 98 268 3 -8 10 -44 17 -80 22 -128 82 -335
112 -393 71 -132 181 -173 276 -101 50 39 72 81 72 139 0 80 -16 108 -277 508
-57 87 -103 162 -103 167 0 6 30 10 66 10 59 0 68 3 95 29 26 26 118 53 1101
318 590 159 1074 289 1076 287 7 -4 -134 -378 -204 -541 -258 -603 -588 -1110
-983 -1511 -84 -85 -111 -119 -109 -135 2 -15 11 -23 28 -25 21 -2 45 17 136
110 509 524 898 1186 1176 2001 26 76 49 129 58 131 8 3 345 94 749 202 l734
197 101 -32 c263 -86 536 -196 1158 -469 403 -177 607 -259 870 -347 122 -41
224 -78 228 -82 4 -5 24 -51 45 -103 116 -290 350 -695 473 -818 66 -67 158
-105 263 -110 72 -4 93 -1 130 17 120 57 165 88 194 129 l30 44 -1 226 c-1
152 -7 255 -17 312 -8 47 -14 86 -13 86 0 1 71 -2 156 -7 244 -13 479 4 740
52 l115 22 211 -140 c857 -568 1572 -888 2492 -1118 171 -43 536 -118 700
-145 73 -12 73 -12 55 -32 -40 -45 -246 -217 -388 -323 -845 -634 -1854 -1013
-2914 -1095 -173 -13 -569 -13 -742 0 -499 39 -928 136 -1424 322 -190 72
-376 150 -820 345 -585 258 -911 381 -1230 463 -311 81 -521 110 -845 117
-457 11 -856 -42 -1425 -187 -300 -77 -461 -125 -1105 -335 -294 -95 -582
-188 -640 -207 -86 -27 -106 -37 -108 -54 -2 -11 4 -26 12 -33 18 -15 107 11
771 229 559 183 804 258 1110 335 554 141 945 193 1385 182 444 -11 791 -82
1285 -262 222 -81 316 -121 831 -346 528 -230 729 -311 994 -399 245 -82 474
-140 711 -180 341 -57 440 -64 864 -65 409 0 529 8 830 56 1075 170 2076 642
2863 1348 l103 93 247 -31 c1478 -182 2674 -111 3619 214 475 163 850 363
1625 866 731 475 1009 634 1388 795 166 71 408 151 419 138 4 -5 70 -162 146
-349 76 -187 142 -350 148 -363 12 -27 52 -30 65 -4 11 20 792 2724 792 2741
0 13 -2392 1211 -2419 1211 -42 0 -32 -37 78 -307 l110 -268 -62 -18 c-398
-116 -719 -269 -1462 -695 -570 -326 -727 -413 -977 -538 -601 -301 -1099
-466 -1568 -518 -173 -20 -535 -32 -543 -19 -3 5 5 45 19 89 13 43 103 354
199 691 315 1102 518 1742 745 2347 422 1125 888 2014 1448 2765 204 273 652
821 977 1196 486 561 1025 1112 1405 1436 244 208 490 386 670 482 l85 46 272
-224 c197 -163 279 -225 298 -225 l25 0 0 1179 c0 649 -3 1182 -8 1185 -4 2
-813 104 -1797 226 -1206 150 -1795 219 -1805 212 -8 -5 -16 -16 -18 -25 -2
-9 78 -86 210 -202 117 -104 224 -198 237 -210 l23 -23 -78 -57 c-462 -340
-1559 -1442 -2182 -2193 -343 -413 -790 -1068 -1138 -1669 -482 -830 -859
-1655 -1210 -2642 -3 -9 -23 18 -50 64 -91 160 -208 291 -357 396 -165 117
-182 124 -1812 634 -836 262 -1549 485 -1585 497 l-65 21 165 42 c443 113 779
263 1093 489 42 31 82 56 87 56 5 0 268 -183 585 -406 333 -234 607 -420 648
-440 113 -53 185 -68 322 -68 135 0 206 15 320 68 133 62 252 172 322 297 60
107 954 2089 953 2115 0 6 -39 26 -87 44 -49 19 -89 34 -90 35 -8 5 90 272
106 289 108 120 184 383 225 784 12 113 19 149 36 172 37 52 108 212 134 305
33 112 60 310 53 391 -6 76 -47 159 -91 181 -19 10 -46 14 -76 11 l-47 -5 1
136 c1 126 -1 140 -24 185 -31 61 -63 86 -121 93 -25 3 -55 15 -69 28 -81 73
-166 58 -258 -43 -23 -26 -35 -33 -39 -24 -13 34 -68 83 -103 93 -54 16 -105
4 -149 -36 -46 -42 -34 -14 -236 -545 -123 -322 -171 -439 -188 -450 -56 -38
-122 -110 -150 -165 -29 -56 -32 -67 -32 -165 0 -84 9 -151 44 -330 l44 -225
-68 -115 c-37 -63 -73 -121 -79 -127 -9 -10 -33 -4 -111 27 -55 21 -100 38
-101 37 -1 -1 -106 -184 -234 -407 -128 -223 -238 -415 -246 -428 -17 -26 -26
-22 -87 30 l-38 33 65 161 c152 378 211 649 316 1429 67 502 128 798 221 1080
89 267 222 499 348 604 l50 42 301 -201 c166 -111 309 -200 318 -198 10 2 18
14 20 29 3 22 -570 1934 -583 1947 -6 6 -2780 352 -2823 352 -20 0 -35 -6 -38
-15z m1506 -236 c712 -88 1297 -163 1299 -165 7 -7 540 -1769 538 -1777 -1 -4
-120 72 -263 169 -214 145 -266 176 -286 171 -36 -10 -154 -121 -219 -209
-171 -231 -308 -630 -398 -1163 -11 -66 -41 -271 -66 -455 -78 -569 -117 -779
-196 -1053 -36 -127 -129 -380 -161 -441 l-14 -26 -39 32 c-22 18 -204 175
-405 349 l-366 316 -129 201 c-213 332 -323 466 -475 581 -144 108 -374 208
-591 256 l-77 17 42 89 c36 77 48 94 91 123 116 78 187 178 321 454 105 216
173 382 200 489 18 70 18 71 55 77 50 8 82 48 77 96 l-3 35 68 -3 c87 -5 117
12 117 64 0 32 -12 49 -122 162 -219 226 -443 436 -491 462 -32 17 -47 31 -47
45 1 40 40 199 80 318 83 251 209 465 368 623 45 46 82 90 82 98 0 8 -64 58
-142 111 -154 105 -167 115 -152 115 5 0 592 -72 1304 -161z m-1718 -1731 c93
-76 161 -93 203 -52 14 15 17 14 38 -13 48 -61 91 -104 125 -125 21 -12 38
-22 40 -24 2 -1 -2 -21 -8 -44 -10 -37 -14 -41 -33 -35 -61 19 -122 17 -173
-5 -51 -22 -51 -23 -103 -139 -28 -64 -51 -123 -51 -131 0 -9 7 -26 16 -38 22
-32 14 -44 -47 -67 -45 -18 -54 -25 -54 -45 0 -32 29 -37 95 -15 80 26 109 84
76 145 -15 26 -15 28 33 133 l30 68 39 -20 c21 -11 55 -22 75 -26 33 -6 37
-10 31 -29 -3 -11 -10 -28 -15 -36 -7 -12 -8 -10 -9 7 0 35 -11 53 -31 53 -23
0 -39 -29 -39 -70 0 -38 23 -49 51 -24 15 13 11 0 -17 -62 -77 -169 -196 -392
-239 -447 -98 -125 -210 -167 -355 -136 -36 8 -55 8 -64 0 -15 -13 -126 73
-264 203 -51 49 -95 86 -98 83 -3 -3 44 -123 105 -266 61 -143 111 -262 111
-265 0 -2 -16 -10 -35 -16 -33 -11 -39 -19 -36 -46 0 -5 -19 -66 -44 -134 -25
-68 -45 -130 -45 -139 0 -8 -2 -12 -5 -9 -3 2 4 80 14 173 11 93 17 173 15
177 -3 4 -24 8 -48 8 -74 0 -158 21 -228 56 -74 37 -200 149 -250 221 l-29 43
59 83 c104 144 262 437 262 484 0 7 -26 26 -58 42 -116 58 -159 141 -150 285
8 121 64 212 162 264 45 24 62 27 146 27 211 -1 323 -102 324 -292 1 -35 5
-63 9 -63 20 0 66 35 82 63 10 17 35 80 56 141 22 61 40 110 41 109 2 -1 15
-4 31 -8 53 -14 117 31 117 83 0 19 8 14 48 -35 27 -32 69 -75 94 -95z m9493
-107 l1670 -207 3 -1092 c1 -601 0 -1092 -3 -1092 -3 0 -114 90 -247 200 -168
139 -250 200 -267 200 -13 0 -71 -25 -127 -54 -564 -299 -1423 -1119 -2415
-2308 -438 -525 -696 -860 -918 -1193 -547 -820 -990 -1763 -1406 -2998 -176
-521 -290 -893 -559 -1837 -85 -300 -168 -585 -184 -635 l-28 -90 -334 1
c-862 3 -1616 97 -2205 274 -157 47 -392 133 -408 149 -5 5 32 73 81 152 351
567 591 1122 857 1989 37 118 70 217 76 220 35 22 148 124 188 170 207 238
304 483 317 795 7 157 -8 281 -49 424 l-25 84 43 126 c295 860 755 1854 1233
2667 385 655 844 1309 1231 1754 747 859 1754 1848 2115 2076 31 19 46 36 46
50 0 15 -56 71 -191 189 -105 93 -200 176 -211 185 -20 16 -20 16 13 12 19 -2
786 -97 1704 -211z m-5520 -435 c15 -22 11 -39 -75 -303 -49 -153 -90 -284
-90 -291 0 -7 7 -15 15 -18 8 -4 -32 -22 -93 -43 -59 -21 -108 -37 -109 -37
-3 2 203 560 221 598 22 47 84 118 102 118 7 0 21 -11 29 -24z m-343 -11 c8
-19 8 -43 -1 -97 -18 -102 -95 -408 -126 -497 -14 -41 -25 -78 -25 -82 0 -4
16 -13 35 -20 19 -7 35 -16 35 -19 0 -4 -17 -14 -37 -22 -21 -9 -90 -40 -154
-71 l-116 -55 105 272 c57 149 131 343 164 431 33 88 65 166 70 173 16 19 37
14 50 -13z m494 -80 c16 -108 0 -211 -65 -425 -35 -113 -66 -209 -71 -213 -4
-5 -10 6 -13 23 -8 35 -48 77 -80 82 -12 2 -21 8 -21 13 5 36 178 551 188 557
6 4 21 8 33 8 18 0 23 -7 29 -45z m208 -381 c11 -29 6 -160 -9 -250 -29 -164
-75 -290 -152 -415 -39 -62 -40 -67 -52 -204 -17 -191 -54 -402 -90 -515 -36
-113 -84 -196 -151 -265 -43 -43 -47 -52 -33 -61 14 -9 12 -20 -18 -112 -18
-56 -38 -102 -43 -102 -8 0 -814 309 -824 316 -2 1 34 67 81 146 l84 143 -48
245 c-27 135 -52 268 -55 296 -12 97 44 202 129 245 23 12 49 27 57 34 28 23
464 223 558 256 124 43 152 32 142 -55 -4 -36 -34 -65 -232 -216 -109 -83
-198 -156 -198 -161 0 -6 12 -81 27 -167 17 -101 26 -198 27 -272 1 -105 -1
-120 -25 -171 -33 -70 -88 -132 -157 -176 -41 -27 -53 -39 -50 -56 11 -81 196
50 262 186 53 108 57 199 20 436 -14 91 -26 173 -27 182 -1 10 61 64 168 146
94 72 185 145 204 164 19 19 31 27 28 18 -27 -79 -67 -221 -63 -227 3 -4 28
-19 56 -32 l52 -24 24 29 c54 68 186 361 249 555 15 47 30 88 32 93 7 12 21 8
27 -9z m-5629 -86 c54 -97 214 -264 294 -306 32 -18 97 -42 145 -55 l86 -23
-126 -164 c-69 -91 -130 -169 -134 -174 -26 -27 -187 135 -265 265 -27 46 -73
139 -103 207 l-52 123 52 99 c29 55 55 100 58 100 3 0 23 -33 45 -72z m-871
-43 c55 -9 220 -46 365 -84 l264 -68 58 -121 c32 -67 72 -145 90 -172 33 -51
49 -67 29 -29 -6 11 -10 24 -8 30 2 5 26 -25 53 -67 87 -134 259 -275 302
-248 10 6 72 81 138 167 66 86 121 153 122 149 1 -4 -8 -101 -20 -217 l-22
-210 -35 -3 c-39 -4 -164 15 -195 30 -15 7 -14 4 5 -12 36 -31 125 -71 171
-77 27 -4 39 -11 39 -22 0 -18 -108 -623 -112 -627 -5 -4 -2452 -534 -2454
-531 -2 2 3 27 11 57 10 38 23 61 41 75 329 243 550 466 733 740 194 290 334
631 402 978 21 111 21 119 6 135 -33 32 -49 5 -78 -134 -52 -250 -117 -442
-224 -659 -181 -367 -460 -693 -827 -963 -49 -36 -88 -71 -88 -78 0 -7 -8 -15
-17 -18 -10 -3 -250 -75 -535 -161 -284 -85 -522 -155 -529 -155 -7 0 -105 39
-218 86 -165 70 -802 294 -833 294 -5 0 -8 -7 -8 -15 0 -12 -11 -10 -61 8 -59
21 -61 21 -75 3 -8 -12 -10 -25 -5 -35 14 -25 1164 -455 1200 -448 21 5 88
-19 273 -96 l246 -103 -281 -669 c-154 -369 -281 -671 -282 -673 -2 -2 -1854
877 -1864 885 -2 2 13 28 35 58 21 31 44 64 49 73 6 10 21 33 34 52 13 19 -22
-10 -77 -65 l-101 -99 -38 18 c-107 51 -235 170 -302 280 -78 129 -111 254
-111 422 0 309 164 570 445 704 44 21 679 310 1410 643 732 333 1400 641 1485
686 303 157 558 242 860 286 124 19 412 18 534 0z m1856 -377 c0 -77 -18 -176
-41 -228 l-21 -45 -63 125 c-35 69 -64 128 -64 133 -1 4 14 7 32 7 18 0 58 13
88 29 30 15 57 29 62 30 4 0 7 -23 7 -51z m-81 -363 c41 -16 126 125 137 228
4 35 12 61 20 64 20 7 203 -34 321 -72 361 -119 508 -253 828 -754 l125 -196
380 -329 c209 -180 441 -375 515 -432 74 -58 137 -109 140 -115 4 -5 -113
-201 -260 -435 -274 -438 -290 -470 -229 -462 21 2 68 72 287 423 212 339 267
420 282 417 17 -2 66 78 275 443 140 245 259 443 265 441 5 -2 280 -109 610
-236 330 -128 604 -236 609 -241 7 -7 -173 -418 -632 -1439 -127 -283 -252
-543 -278 -582 -46 -65 -151 -156 -224 -193 -90 -45 -174 -65 -280 -65 -100 0
-181 18 -265 60 -33 17 -373 250 -755 520 l-695 490 -391 371 -390 371 124
502 c68 275 125 517 125 536 2 32 0 35 -28 35 l-29 0 -126 -508 c-69 -280
-129 -507 -135 -505 -8 2 -386 -1002 -498 -1322 l-33 -95 -93 1075 c-51 591
-96 1101 -99 1133 -5 57 -5 58 -32 52 l-26 -6 56 312 56 312 43 16 c48 19 106
62 120 90 9 17 5 16 -47 -5 -64 -26 -96 -30 -90 -11 3 6 38 104 78 216 l74
203 75 -151 c42 -83 82 -153 90 -156z m-337 -2362 c70 -802 126 -1459 124
-1460 -3 -3 -3942 -543 -3962 -543 -10 0 -287 1220 -279 1228 1 2 26 -8 54
-22 28 -15 52 -25 54 -24 9 7 106 -46 100 -55 -3 -6 -1 -7 5 -3 12 7 83 -24
77 -34 -2 -3 4 -7 13 -8 9 -1 25 -3 36 -4 15 -3 32 30 98 187 44 105 81 191
82 193 2 1 72 -15 157 -35 l154 -37 115 -87 c137 -103 261 -183 388 -247 50
-26 90 -52 88 -58 -2 -6 -12 -60 -21 -119 -12 -78 -16 -151 -13 -269 3 -150 5
-164 28 -205 30 -54 64 -80 113 -88 101 -16 208 61 246 178 20 60 25 67 64 84
23 10 65 42 92 70 30 31 68 58 97 69 26 9 66 33 90 51 24 19 52 35 63 35 40 0
121 48 168 98 35 38 71 100 141 245 52 107 100 212 106 233 l12 40 62 -13 c33
-7 72 -13 86 -13 48 0 104 22 137 55 28 28 33 40 33 79 0 26 -6 61 -14 79 -17
43 -102 118 -190 169 -39 23 -157 96 -262 164 -224 143 -268 167 -361 192 -38
11 -96 33 -128 50 -190 95 -485 198 -665 232 -145 27 -231 48 -297 72 -48 18
-52 21 -42 40 6 11 7 23 2 27 -4 4 -95 43 -200 87 -106 43 -193 81 -193 84 0
6 3355 737 3390 739 l25 1 127 -1457z m1102 96 c198 -189 343 -318 405 -362
53 -37 97 -71 99 -75 4 -13 -266 -187 -399 -256 -161 -84 -304 -144 -477 -199
-133 -43 -471 -131 -477 -125 -2 2 3 30 11 63 7 33 14 80 14 105 0 34 54 192
217 633 l217 587 40 -38 c23 -21 180 -171 350 -333z m-4161 227 c65 -20 133
-36 150 -36 50 0 259 -54 382 -98 314 -113 559 -254 713 -409 84 -84 98 -93
120 -71 21 21 14 36 -45 95 -32 31 -51 53 -43 48 8 -5 58 -36 110 -70 52 -34
135 -85 185 -115 89 -53 165 -114 165 -131 0 -20 -98 -7 -197 26 -58 19 -108
35 -112 35 -4 0 -6 -25 -3 -55 6 -79 -8 -123 -107 -329 -88 -184 -146 -267
-192 -279 -16 -4 3 38 91 208 60 118 110 223 110 234 0 23 -37 38 -54 22 -6
-7 -67 -123 -136 -259 -112 -222 -129 -250 -167 -276 -24 -16 -45 -27 -48 -24
-3 3 22 92 55 197 33 106 60 198 60 206 0 21 -30 40 -47 29 -9 -5 -47 -111
-88 -241 -73 -234 -102 -295 -156 -324 -25 -13 -25 -10 6 231 14 107 22 203
19 212 -6 21 -52 25 -59 6 -3 -7 -16 -96 -29 -198 -13 -102 -36 -225 -50 -275
-15 -49 -33 -113 -41 -141 -23 -79 -91 -128 -116 -83 -31 59 -20 340 22 517
10 46 19 88 19 92 0 5 -64 42 -142 82 -167 84 -362 212 -502 328 -88 73 -101
81 -111 66 -11 -15 -21 -14 -129 11 -95 22 -116 30 -111 42 3 9 76 186 163
394 139 334 159 377 177 374 11 -3 73 -21 138 -41z m-1467 -898 l322 -153 148
-668 c82 -368 151 -672 154 -678 4 -5 136 9 336 36 181 25 335 45 342 45 21 0
8 -93 -50 -345 l-50 -220 -51 -53 c-62 -63 -42 -63 -287 1 -357 94 -785 160
-1290 199 -216 17 -952 17 -1170 0 -182 -14 -434 -39 -493 -48 l-38 -6 42 84
c145 288 371 626 628 938 135 163 540 566 708 704 155 128 404 316 418 316 6
0 155 -68 331 -152z m-416 -1908 c337 -26 702 -75 985 -131 141 -29 383 -88
432 -106 20 -7 13 -18 -99 -138 -243 -262 -422 -490 -630 -805 -316 -476 -572
-1005 -664 -1375 l-27 -107 -36 5 c-225 35 -967 34 -1295 -2 -276 -30 -453
-57 -705 -107 -123 -25 -225 -43 -227 -42 -3 3 11 184 56 753 59 729 137 1156
289 1584 52 146 159 397 174 409 19 15 421 55 717 72 192 10 847 4 1030 -10z
m1567 -284 c1 -1 -95 -418 -213 -926 -183 -790 -229 -977 -321 -1283 -88 -295
-110 -357 -122 -352 -9 4 -92 26 -186 50 -180 46 -357 82 -543 111 -94 14
-112 19 -108 33 3 9 10 37 15 62 39 178 183 534 328 809 278 530 637 1030
1017 1417 72 74 95 92 111 87 11 -4 21 -7 22 -8z m3274 -566 c910 -164 1069
-195 1069 -210 0 -7 -1071 -1016 -1115 -1052 -21 -16 -25 -14 -151 84 -209
163 -626 475 -804 602 -91 65 -169 122 -174 126 -6 6 222 620 230 620 0 0 426
-76 945 -170z m-1009 -661 c191 -138 542 -401 762 -573 l129 -100 -46 -41
c-168 -153 -467 -440 -467 -449 0 -6 234 -270 519 -586 l518 -575 -194 -127
c-107 -71 -198 -128 -202 -128 -4 0 -200 225 -435 500 -235 275 -430 500 -434
500 -4 0 -38 -31 -76 -69 -67 -67 -69 -68 -130 -73 -43 -4 -82 -16 -131 -40
-39 -19 -133 -53 -210 -76 -282 -82 -410 -140 -457 -208 -30 -43 -48 -128 -48
-232 l0 -62 -107 71 c-60 40 -109 73 -111 74 -1 1 13 35 31 76 19 41 225 566
458 1166 273 703 428 1091 436 1088 6 -2 94 -63 195 -136z m4738 -502 c-173
-557 -361 -1030 -562 -1417 -75 -144 -249 -443 -323 -552 l-31 -47 -137 63
c-172 81 -404 201 -577 301 -140 81 -467 283 -509 314 l-23 18 1113 779 c613
429 1115 777 1117 774 1 -4 -29 -109 -68 -233z m8957 -1370 c-2 -7 -170 -587
-373 -1289 -203 -703 -372 -1274 -375 -1270 -4 4 -64 149 -134 322 -71 173
-132 321 -138 328 -16 21 -53 14 -220 -42 -466 -156 -815 -343 -1667 -898
-820 -533 -1189 -727 -1700 -893 -911 -296 -2041 -358 -3465 -189 -121 15
-222 28 -224 30 -2 2 49 59 115 127 478 493 849 1107 1154 1907 35 91 102 282
150 424 l87 260 104 -3 c244 -5 589 29 834 84 595 133 1105 362 2150 965 817
472 1153 633 1524 729 96 25 106 30 109 52 2 13 -40 129 -93 258 -52 129 -95
236 -95 238 0 2 509 -251 1131 -562 730 -365 1129 -570 1126 -578z m-17772
673 c66 -5 145 -12 176 -15 l55 -7 -13 -91 c-6 -51 -18 -154 -24 -229 l-12
-138 -51 -14 c-28 -8 -114 -31 -191 -51 -843 -221 -1738 -520 -2108 -707 -50
-25 -58 -27 -53 -11 66 215 141 624 177 965 l12 117 86 20 c321 74 716 133
1076 160 157 12 728 12 870 1z m478 -55 c230 -36 635 -131 660 -154 4 -5 3
-29 -4 -55 -9 -35 -18 -50 -35 -57 -13 -4 -24 -12 -24 -17 0 -5 -60 -12 -132
-15 -187 -9 -495 -56 -667 -103 l-23 -7 6 74 c10 109 36 321 42 342 6 21 -11
22 177 -8z m3630 -551 c96 -49 99 -60 147 -490 23 -203 43 -378 45 -389 3 -15
22 -27 67 -43 35 -13 143 -53 241 -89 l178 -66 -76 -43 c-65 -37 -80 -42 -102
-33 -15 5 -147 86 -293 179 -147 94 -276 170 -288 170 -16 0 -22 -6 -22 -23 0
-19 31 -43 180 -137 99 -62 179 -115 177 -116 -1 -2 -79 21 -172 50 -170 54
-205 57 -205 21 0 -21 11 -25 300 -115 146 -45 266 -83 267 -83 0 -1 -12 -57
-27 -125 -41 -177 -72 -409 -73 -542 -1 -104 1 -120 25 -171 35 -76 75 -104
149 -104 l57 1 6 -60 c3 -32 6 -91 6 -130 0 -40 11 -121 26 -185 59 -262 90
-611 65 -718 -27 -112 -133 -151 -278 -102 -80 27 -137 77 -218 194 -240 343
-418 741 -530 1186 -22 87 -26 126 -29 302 -3 161 -8 221 -25 297 -49 217
-122 389 -237 557 -79 116 -113 217 -121 353 -7 124 8 206 45 241 32 31 123
65 313 119 75 21 168 54 205 74 78 40 144 47 197 20z m2678 -193 c292 -184
487 -294 793 -447 148 -74 271 -136 274 -138 12 -13 -331 -485 -498 -686 -132
-159 -403 -431 -541 -543 -202 -164 -432 -306 -641 -396 -114 -49 -295 -111
-324 -111 -25 0 -388 262 -826 597 l-267 204 -15 69 c-9 38 -16 97 -15 132 l0
63 22 -29 c169 -225 282 -345 358 -381 100 -46 191 -28 237 46 48 78 37 160
-30 227 -38 39 -285 199 -515 334 l-92 54 64 34 c67 36 89 65 79 105 -5 21 7
32 114 104 94 63 121 77 126 65 5 -12 60 21 237 141 l232 157 52 -58 53 -59
83 58 c46 31 253 176 459 321 206 145 376 265 376 265 1 1 93 -57 205 -128z
m-3720 -358 c124 -81 127 -84 138 -131 18 -72 55 -145 116 -232 71 -101 146
-257 183 -385 54 -183 81 -404 63 -515 -10 -61 -8 -75 29 -225 22 -88 51 -193
65 -234 14 -41 23 -76 21 -78 -10 -11 -356 110 -608 213 -86 35 -327 138 -535
230 -446 196 -693 298 -897 369 l-150 52 60 17 c431 118 745 295 1029 580 110
111 215 243 294 369 26 41 47 65 54 61 7 -4 69 -45 138 -91z m5054 -330 c614
-229 1560 -363 2578 -363 114 0 207 -2 207 -4 0 -14 -154 -462 -210 -611 -323
-858 -725 -1513 -1243 -2023 l-73 -73 -155 26 c-925 157 -1716 424 -2454 830
-296 164 -858 516 -839 527 5 3 34 13 64 23 435 139 881 443 1259 859 206 227
396 471 575 738 l99 147 36 -15 c20 -9 90 -36 156 -61z m-10199 -523 c100
-229 158 -377 230 -593 53 -159 94 -289 93 -291 -8 -5 -463 -125 -466 -123 -4
5 -243 1142 -243 1158 0 14 228 159 243 156 5 -2 69 -140 143 -307z m-949 250
c98 -16 213 -30 256 -30 43 0 92 -6 110 -14 44 -18 94 -77 108 -128 13 -46 8
-62 -197 -649 l-58 -166 177 -184 177 -184 -43 -7 c-76 -12 -127 -9 -145 9 -9
9 -94 140 -188 292 -147 237 -174 276 -195 276 -13 0 -25 -7 -27 -15 -1 -8 47
-95 108 -193 60 -98 110 -180 110 -183 0 -3 -57 48 -126 113 -69 65 -132 122
-140 126 -17 10 -44 -8 -44 -28 0 -7 60 -68 133 -136 72 -67 169 -157 213
-199 l82 -77 -80 -99 c-44 -54 -120 -160 -169 -234 -178 -266 -219 -395 -158
-496 19 -31 72 -64 103 -64 9 0 16 -2 16 -4 0 -2 -23 -58 -51 -123 -29 -67
-68 -182 -89 -268 -68 -264 -178 -554 -246 -642 -72 -94 -188 -81 -301 33 -66
68 -85 120 -112 304 -34 237 -45 474 -32 684 19 303 81 667 126 737 162 252
247 700 190 1004 -20 105 -16 189 16 291 29 96 94 218 135 254 31 27 42 30 99
30 35 0 144 -13 242 -30z m7890 -224 c371 -225 402 -246 429 -298 19 -36 13
-66 -22 -107 -66 -78 -180 -8 -365 224 -66 82 -193 265 -185 265 3 0 68 -38
143 -84z m-229 -96 c27 -116 32 -168 41 -364 5 -126 8 -233 5 -237 -11 -19
-74 -21 -100 -4 -48 31 -68 97 -67 215 2 155 65 553 84 533 4 -5 21 -69 37
-143z m362 -515 c224 -172 411 -310 605 -449 108 -77 141 -106 128 -110 -56
-17 -291 -47 -433 -55 -151 -9 -474 0 -487 12 -17 17 -44 192 -49 322 -6 144
-6 152 17 195 25 47 31 117 16 198 -6 34 -5 42 5 36 7 -4 96 -71 198 -149z
m-7750 -795 c-24 -109 -47 -176 -122 -350 -50 -118 -95 -219 -99 -224 -14 -16
-78 4 -96 31 -42 64 -8 170 117 370 60 95 221 316 226 310 2 -2 -10 -63 -26
-137z m255 -52 c54 -84 124 -193 156 -243 93 -143 108 -198 69 -247 -61 -78
-143 -51 -202 67 -45 88 -151 575 -125 575 3 0 49 -69 102 -152z"/>
<path d="M12790 15657 c-89 -25 -151 -78 -184 -159 -12 -29 -13 -38 -2 -53 16
-23 53 -12 62 18 3 12 17 37 31 55 66 88 203 102 295 29 17 -13 15 -22 -22
-148 -43 -142 -46 -172 -17 -177 30 -6 42 14 72 119 24 83 30 97 37 78 5 -13
5 -43 -1 -68 -11 -50 -2 -71 30 -71 28 0 42 37 42 110 0 179 -174 314 -343
267z"/>
<path d="M17546 7891 c-11 -12 -16 -31 -14 -52 3 -33 12 -39 378 -251 215
-124 386 -217 401 -217 34 -1 59 28 59 67 0 38 32 17 -416 275 -193 112 -352
197 -366 197 -14 0 -33 -9 -42 -19z"/>
<path d="M17543 13757 c-65 -92 -138 -215 -174 -294 -42 -93 -89 -248 -92
-301 -2 -44 0 -47 22 -47 22 0 26 8 52 105 47 180 117 325 240 497 60 83 67
113 25 113 -15 0 -36 -22 -73 -73z"/>
<path d="M11850 12267 c-411 -83 -455 -94 -458 -112 -3 -26 274 -895 290 -911
10 -9 76 5 298 65 157 42 358 97 448 120 145 39 162 46 162 65 0 12 -51 210
-113 441 l-112 420 -30 2 c-17 1 -235 -39 -485 -90z m484 26 c53 -180 205
-778 199 -783 -16 -15 -815 -222 -823 -214 -10 12 -272 835 -267 840 6 7 829
172 859 173 17 1 28 -5 32 -16z"/>
<path d="M11851 12058 c-44 -119 -101 -283 -101 -294 0 -17 20 -28 31 -17 5 5
29 65 53 134 24 68 46 124 49 124 3 0 42 -42 87 -93 79 -89 101 -103 108 -70
4 19 -188 238 -209 238 -5 0 -13 -10 -18 -22z"/>
<path d="M11942 11660 c-85 -82 -152 -155 -150 -161 11 -32 39 -11 179 127
134 134 173 185 137 184 -7 -1 -82 -68 -166 -150z"/>
<path d="M2618 13719 c-107 -25 -223 -110 -288 -211 -55 -84 -74 -165 -68
-287 4 -88 9 -108 41 -176 116 -244 406 -342 652 -221 88 44 175 132 216 221
126 269 -23 596 -306 670 -64 16 -187 18 -247 4z m296 -102 c164 -82 259 -262
226 -430 -34 -176 -165 -307 -338 -339 -168 -31 -355 69 -435 231 -30 62 -32
73 -32 171 0 97 2 110 31 170 40 83 87 136 159 179 78 47 135 61 232 58 71 -3
92 -8 157 -40z"/>
<path d="M4017 13719 c-106 -25 -239 -123 -294 -216 -111 -190 -77 -454 78
-600 84 -79 220 -133 334 -133 158 0 321 89 405 221 148 230 70 541 -170 682
-87 51 -245 71 -353 46z m286 -97 c261 -122 322 -458 119 -658 -163 -161 -414
-160 -575 2 -218 219 -123 581 178 681 24 8 73 12 125 10 71 -2 97 -8 153 -35z"/>
<path d="M5401 13714 c-172 -46 -313 -207 -341 -388 -39 -250 118 -483 362
-541 81 -19 142 -19 228 1 156 35 286 155 339 312 28 81 29 216 2 301 -48 154
-187 285 -342 320 -63 15 -185 12 -248 -5z m302 -91 c87 -41 159 -113 200
-201 30 -62 32 -75 32 -172 0 -93 -3 -111 -27 -163 -77 -165 -270 -271 -437
-240 -221 42 -378 256 -341 465 29 160 128 275 285 331 80 28 202 20 288 -20z"/>
<path d="M4393 10036 c-93 -42 -97 -195 -6 -232 57 -24 111 -13 150 30 28 30
33 43 33 86 0 43 -5 56 -33 86 -38 42 -93 53 -144 30z"/>
<path d="M5180 9453 c-167 -24 -310 -49 -317 -55 -18 -14 -16 -63 2 -78 12
-10 82 -3 352 36 186 26 344 52 351 57 15 12 16 59 0 75 -17 17 -51 14 -388
-35z"/>
<path d="M4887 8058 c-18 -29 -67 -108 -107 -175 -41 -67 -77 -120 -80 -118
-3 1 -76 46 -163 99 -86 53 -168 96 -181 96 -24 0 -44 -30 -32 -48 3 -4 81
-54 175 -111 l169 -103 -99 -164 c-54 -91 -99 -176 -99 -188 0 -25 21 -39 44
-30 8 3 60 82 116 175 l101 170 32 -20 c180 -110 305 -181 318 -181 22 0 43
26 36 44 -3 8 -82 60 -176 116 -141 85 -169 105 -161 119 4 9 49 83 99 166 91
149 105 187 75 199 -28 11 -34 7 -67 -46z"/>
</g>
</svg>
