<?xml version="1.0" encoding="UTF-8"?> <svg xmlns="http://www.w3.org/2000/svg" width="615" height="422" viewBox="0 0 615 422" fill="none"> <path d="M150.284 388.096C166.505 372.78 176.87 352.098 183.124 330.685C184.064 327.477 184.919 324.247 185.691 320.996C187.484 313.5 188.888 305.912 190.065 298.294C191.245 290.669 191.225 281.997 192.657 274.126C193.018 272.069 193.518 270.039 194.155 268.05C198.687 254.177 207.49 239.399 216.486 227.936C220.127 223.299 224.069 218.908 228.287 214.79C247.439 196.053 272.06 182.845 298.05 176.677C310.022 173.837 322.437 172.313 333.794 167.722C355.222 159.057 370.735 139.989 378.356 119.045C383.63 104.557 383.986 89.5312 386.776 74.7372C387.589 70.2598 388.712 65.8441 390.137 61.5221C392.174 55.4669 395.192 49.101 400.449 45.4831L415.099 55.2713L401.177 9.36589L333.868 1L344.168 7.88142C338.197 12.9884 334.572 20.1391 332.519 27.7526C331.612 31.1733 330.98 34.6613 330.631 38.1829C329.526 48.9308 331.704 61.2783 328.596 71.7109C326.582 78.4796 322.533 86.0008 319.011 92.2126C310.526 107.193 297.505 120.226 280.871 126.954C269.516 131.545 257.1 133.069 245.128 135.909C203.855 145.701 166.873 173.243 149.39 209.901C147.483 213.89 145.815 217.989 144.395 222.175C138.419 239.807 138.311 259.222 136.53 278.014C134.81 296.168 131.528 313.74 119.887 328.559C115.529 334.098 110.194 338.794 104.147 342.414" stroke="#475DEB" stroke-width="1.5" stroke-linecap="round" stroke-linejoin="round"></path> <path d="M58.2043 344.431C58.2457 344.288 58.2895 344.147 58.3309 344.009C58.4161 343.726 58.5035 343.448 58.591 343.178C66.5417 318.829 85.4011 298.035 109.285 287.282C118.065 283.369 127.184 280.266 136.528 278.014C154.89 273.538 174.528 271.994 192.655 274.127C195.654 274.479 198.609 274.933 201.519 275.49C249.946 284.781 285.46 322.269 326.093 350.338C337.733 358.382 349.795 365.65 362.702 371.261C378.179 377.991 394.661 382.212 411.449 384.753C419.671 385.995 427.969 386.838 436.258 387.369C461.973 389.024 488.575 387.655 512.124 377.498C527.908 370.693 541.912 360.131 556.536 351.149C566.31 345.142 576.362 339.839 587.402 336.838L594.8 355.006L613.634 289.745L556.63 261.276L562.203 274.963C556.976 276.033 551.53 278.09 545.876 280.751C519.796 293.011 489.278 318.072 455.189 318.072C453.108 318.072 451.019 318.065 448.923 318.053C423.603 317.894 397.492 316.497 376.195 307.241C376.126 307.211 376.055 307.181 375.986 307.149C322.357 283.745 283.287 231.754 228.286 214.79C223.926 213.438 219.495 212.329 215.013 211.467C193.932 207.423 171.482 206.935 149.389 209.902C126.128 213.025 103.266 219.975 82.8114 230.631C65.5128 239.644 49.9382 251.308 37.3078 265.547C35.7057 267.354 34.145 269.192 32.6258 271.061C20.1287 286.435 10.4495 303.858 3.47478 322.29C2.74282 324.23 2.03997 326.18 1.36627 328.141" stroke="#475DEB" stroke-width="1.5" stroke-linecap="round" stroke-linejoin="round"></path> <path d="M130.43 408.845C159.211 400.127 188.327 387.247 218.104 391.438C241.574 394.743 262.222 408.324 284.804 415.521C328.337 429.399 378.628 416.11 411.449 384.753C418.926 377.637 425.431 369.565 430.794 360.746C438.832 347.464 444.297 332.921 448.923 318.053C451.536 309.667 453.882 301.174 456.273 292.749C468.388 250.061 482.699 206.873 509.992 171.884C515.558 164.747 523.854 154.473 533.241 143.801C549.608 125.198 569.286 105.387 583.595 98.9036L584.101 99.2764L597.001 109.912V54.6254L511.532 44.0293L523.481 54.5471C512.094 61.5666 486.099 88.5999 472.527 104.156C469.898 107.168 467.736 109.751 466.236 111.675C465.886 112.123 465.537 112.573 465.191 113.023C463.324 115.444 461.489 117.899 459.687 120.388C435.605 153.603 417.155 192.648 406.03 231.851C399.401 255.211 393.126 279.073 380.553 299.849C379.024 302.373 377.502 304.807 375.986 307.149C360.554 330.96 345.449 345.294 326.093 350.338C311.213 354.219 293.82 352.61 271.833 345.602C249.249 338.403 228.603 324.822 205.133 321.519C198.69 320.642 192.17 320.466 185.689 320.997C162.638 322.76 139.949 332.111 117.459 338.925C113.06 340.258 108.622 341.421 104.145 342.415" stroke="#7027E2" stroke-width="1.5" stroke-linecap="round" stroke-linejoin="round"></path> <path d="M450.867 15.4146C452.561 15.4146 453.917 14.0586 453.917 12.3636C453.917 10.6685 452.561 9.3125 450.867 9.3125C449.173 9.3125 447.818 10.6685 447.818 12.3636C447.733 14.0586 449.173 15.4146 450.867 15.4146Z" fill="#00A460"></path> <path d="M464.595 15.4146C466.29 15.4146 467.646 14.0586 467.646 12.3636C467.646 10.6685 466.29 9.3125 464.595 9.3125C462.9 9.3125 461.544 10.6685 461.544 12.3636C461.544 14.0586 462.9 15.4146 464.595 15.4146Z" fill="#00A460"></path> <path d="M477.564 15.4146C479.258 15.4146 480.613 14.0586 480.613 12.3636C480.613 10.6685 479.258 9.3125 477.564 9.3125C475.87 9.3125 474.515 10.6685 474.515 12.3636C474.43 14.0586 475.87 15.4146 477.564 15.4146Z" fill="#00A460"></path> <path d="M491.293 15.4146C492.988 15.4146 494.344 14.0586 494.344 12.3636C494.344 10.6685 492.988 9.3125 491.293 9.3125C489.598 9.3125 488.242 10.6685 488.242 12.3636C488.242 14.0586 489.598 15.4146 491.293 15.4146Z" fill="#00A460"></path> <path d="M450.867 27.6187C452.561 27.6187 453.917 26.2627 453.917 24.5677C453.917 22.8726 452.561 21.5166 450.867 21.5166C449.173 21.5166 447.818 22.8726 447.818 24.5677C447.733 26.2627 449.173 27.6187 450.867 27.6187Z" fill="#00A460"></path> <path d="M464.595 27.6187C466.29 27.6187 467.646 26.2627 467.646 24.5677C467.646 22.8726 466.29 21.5166 464.595 21.5166C462.9 21.5166 461.544 22.8726 461.544 24.5677C461.544 26.2627 462.9 27.6187 464.595 27.6187Z" fill="#00A460"></path> <path d="M477.564 27.6187C479.258 27.6187 480.613 26.2627 480.613 24.5677C480.613 22.8726 479.258 21.5166 477.564 21.5166C475.87 21.5166 474.515 22.8726 474.515 24.5677C474.43 26.2627 475.87 27.6187 477.564 27.6187Z" fill="#00A460"></path> <path d="M491.293 27.6187C492.988 27.6187 494.344 26.2627 494.344 24.5677C494.344 22.8726 492.988 21.5166 491.293 21.5166C489.598 21.5166 488.242 22.8726 488.242 24.5677C488.242 26.2627 489.598 27.6187 491.293 27.6187Z" fill="#00A460"></path> <path d="M450.867 39.8228C452.561 39.8228 453.917 38.4668 453.917 36.7718C453.917 35.0767 452.561 33.7207 450.867 33.7207C449.173 33.7207 447.818 35.0767 447.818 36.7718C447.733 38.382 449.173 39.8228 450.867 39.8228Z" fill="#00A460"></path> <path d="M464.595 39.8228C466.29 39.8228 467.646 38.4668 467.646 36.7718C467.646 35.0767 466.29 33.7207 464.595 33.7207C462.9 33.7207 461.544 35.0767 461.544 36.7718C461.544 38.382 462.9 39.8228 464.595 39.8228Z" fill="#00A460"></path> <path d="M477.564 39.8228C479.258 39.8228 480.613 38.4668 480.613 36.7718C480.613 35.0767 479.258 33.7207 477.564 33.7207C475.87 33.7207 474.515 35.0767 474.515 36.7718C474.43 38.382 475.87 39.8228 477.564 39.8228Z" fill="#00A460"></path> <path d="M491.293 39.8228C492.988 39.8228 494.344 38.4668 494.344 36.7718C494.344 35.0767 492.988 33.7207 491.293 33.7207C489.598 33.7207 488.242 35.0767 488.242 36.7718C488.242 38.382 489.598 39.8228 491.293 39.8228Z" fill="#00A460"></path> <path d="M450.867 51.2642C452.561 51.2642 453.917 50.0776 453.917 48.5945C453.917 47.1113 452.561 45.9248 450.867 45.9248C449.173 45.9248 447.818 47.1113 447.818 48.5945C447.733 50.0776 449.173 51.2642 450.867 51.2642Z" fill="#00A460"></path> <path d="M464.595 51.2642C466.29 51.2642 467.646 50.0776 467.646 48.5945C467.646 47.1113 466.29 45.9248 464.595 45.9248C462.9 45.9248 461.544 47.1113 461.544 48.5945C461.544 50.0776 462.9 51.2642 464.595 51.2642Z" fill="#00A460"></path> <path d="M477.564 51.2642C479.258 51.2642 480.613 50.0776 480.613 48.5945C480.613 47.1113 479.258 45.9248 477.564 45.9248C475.87 45.9248 474.515 47.1113 474.515 48.5945C474.43 50.0776 475.87 51.2642 477.564 51.2642Z" fill="#00A460"></path> <path d="M491.293 51.2642C492.988 51.2642 494.344 50.0776 494.344 48.5945C494.344 47.1113 492.988 45.9248 491.293 45.9248C489.598 45.9248 488.242 47.1113 488.242 48.5945C488.242 50.0776 489.598 51.2642 491.293 51.2642Z" fill="#00A460"></path> <path d="M228.552 162.142L229.731 146.426L223.632 160.957L228.552 162.142Z" fill="white"></path> <path d="M295.782 70.4957C305.802 69.7473 314.027 74.2092 321.362 81.2512L316.8 89.1813L294.131 81.4446L295.782 70.4957Z" fill="white"></path> <path d="M126.845 317.834L126.844 317.834C123.003 320.171 119.152 322.543 115.293 324.951C110.937 330.228 108.301 335.159 108.256 339.64C108.211 343.995 110.621 348.148 116.905 351.94L132.833 347.65L145.037 344.363L134.585 313.178C132.011 314.705 129.431 316.257 126.845 317.834Z" fill="white" stroke="#231F20" stroke-width="1.5"></path> <path d="M241.252 164.381C240.612 166.602 240.035 168.264 239.497 169.8L239.434 169.978C238.825 171.716 238.27 173.298 237.721 175.393C236.585 179.731 235.465 186.298 234.031 200.856L234.027 200.904L234.016 200.951L220.067 261.154L220.062 261.177L220.055 261.2L213.5 283.01L213.339 283.546L212.78 283.545C212.35 283.544 211.92 283.545 211.492 283.552L211.489 283.552C206.011 283.624 200.332 284.418 194.48 285.813L194.48 285.813C192.941 286.18 181.013 289.124 167.327 293.244C153.918 297.281 138.918 302.419 130.315 307.344L146.429 343.988L201.892 329.052L214.314 325.706L224.596 322.936C224.596 322.936 224.596 322.936 224.596 322.936C231.703 321.018 238.308 317.576 243.949 312.847C249.585 308.124 254.125 302.232 257.254 295.579L289.3 213.341L241.252 164.381Z" fill="#475DEB" stroke="#231F20" stroke-width="1.5"></path> <path d="M308.619 309.376L308.229 308.784L301.617 313.148C294.518 314.147 289.362 312.647 285.76 309.125C282.158 305.603 279.984 299.942 279.118 292.32C279.189 292.258 279.26 292.196 279.33 292.133C282.113 289.697 284.836 287.199 287.506 284.666L308.619 309.376ZM308.619 309.376L308.229 308.784L366.231 270.511L308.619 309.376ZM335.619 236.571C334.355 237.551 333.083 238.591 331.801 239.676C330.475 240.801 329.139 241.978 327.793 243.206L335.619 236.571Z" fill="white" stroke="#231F20" stroke-width="1.5"></path> <mask id="path-25-inside-1_6_838" fill="white"> <path fill-rule="evenodd" clip-rule="evenodd" d="M401.335 103.564L401.338 103.581L401.339 103.581L401.332 103.593C400.875 104.368 377.998 143.201 377.501 144.019L409.327 151.949L422.766 112.416L422.738 112.405C426.771 108.395 428.052 99.6721 428.807 90.0474C431.996 85.4246 433.741 79.8887 433.871 73.331C433.876 73.0544 433.842 72.7784 433.768 72.5117C433.179 70.3786 432.297 69.4888 431.046 70.1617C430.413 70.5153 429.94 71.0982 429.724 71.7902C427.73 77.8752 425.527 83.2955 422.863 87.2577L428.527 68.5668C429.415 61.2791 427.964 59.3673 425.158 60.5712C423.811 58.3505 422.505 57.4978 420.315 60.0709C419.409 61.1449 418.702 62.3706 418.224 63.6912L413.007 77.8973C414.7 72.8248 416.033 67.6391 416.997 62.3789C416.968 57.9695 412.891 57.5156 411.815 61.6971L403.611 83.121L403.608 83.1451L403.606 83.146C401.975 83.8288 400.628 85.0532 399.794 86.6127C398.96 88.1723 398.689 89.9717 399.027 91.7077L401.315 103.462L401.305 103.552L401.335 103.564Z"></path> </mask> <path fill-rule="evenodd" clip-rule="evenodd" d="M401.335 103.564L401.338 103.581L401.339 103.581L401.332 103.593C400.875 104.368 377.998 143.201 377.501 144.019L409.327 151.949L422.766 112.416L422.738 112.405C426.771 108.395 428.052 99.6721 428.807 90.0474C431.996 85.4246 433.741 79.8887 433.871 73.331C433.876 73.0544 433.842 72.7784 433.768 72.5117C433.179 70.3786 432.297 69.4888 431.046 70.1617C430.413 70.5153 429.94 71.0982 429.724 71.7902C427.73 77.8752 425.527 83.2955 422.863 87.2577L428.527 68.5668C429.415 61.2791 427.964 59.3673 425.158 60.5712C423.811 58.3505 422.505 57.4978 420.315 60.0709C419.409 61.1449 418.702 62.3706 418.224 63.6912L413.007 77.8973C414.7 72.8248 416.033 67.6391 416.997 62.3789C416.968 57.9695 412.891 57.5156 411.815 61.6971L403.611 83.121L403.608 83.1451L403.606 83.146C401.975 83.8288 400.628 85.0532 399.794 86.6127C398.96 88.1723 398.689 89.9717 399.027 91.7077L401.315 103.462L401.305 103.552L401.335 103.564Z" fill="white"></path> <path d="M401.335 103.564L401.91 102.178L402.654 102.487L402.807 103.277L401.335 103.564ZM401.338 103.581L399.936 104.113L399.891 103.994L399.866 103.868L401.338 103.581ZM401.339 103.581L402.741 103.049L402.996 103.722L402.631 104.342L401.339 103.581ZM401.332 103.593L402.624 104.354L402.624 104.354L401.332 103.593ZM377.501 144.019L377.138 145.474L375.159 144.981L376.219 143.239L377.501 144.019ZM409.327 151.949L410.747 152.432L410.303 153.739L408.964 153.405L409.327 151.949ZM422.766 112.416L423.338 111.03L424.639 111.566L424.186 112.899L422.766 112.416ZM422.738 112.405L422.166 113.792L420.081 112.932L421.68 111.341L422.738 112.405ZM428.807 90.0474L427.311 89.9302L427.343 89.5278L427.572 89.1956L428.807 90.0474ZM433.871 73.331L435.371 73.3606L435.371 73.3607L433.871 73.331ZM433.768 72.5117L435.214 72.1123L435.215 72.1133L433.768 72.5117ZM431.046 70.1617L430.315 68.8522L430.325 68.8464L430.336 68.8407L431.046 70.1617ZM429.724 71.7902L431.156 72.2372L431.153 72.2473L431.149 72.2573L429.724 71.7902ZM422.863 87.2577L424.108 88.0946L421.427 86.8227L422.863 87.2577ZM428.527 68.5668L430.015 68.7484L430 68.8775L429.962 69.0018L428.527 68.5668ZM425.158 60.5712L425.749 61.9498L424.551 62.4636L423.875 61.3492L425.158 60.5712ZM420.315 60.0709L419.168 59.1042L419.173 59.0985L420.315 60.0709ZM418.224 63.6912L419.634 64.2016L419.632 64.2083L418.224 63.6912ZM413.007 77.8973L414.415 78.4144L411.584 77.4223L413.007 77.8973ZM416.997 62.3789L418.497 62.3691L418.498 62.5103L418.472 62.6492L416.997 62.3789ZM411.815 61.6971L413.267 62.071L413.246 62.1537L413.215 62.2335L411.815 61.6971ZM403.611 83.121L402.121 82.9528L402.142 82.763L402.21 82.5846L403.611 83.121ZM403.608 83.1451L405.099 83.3134L405 84.1892L404.187 84.5291L403.608 83.1451ZM403.606 83.146L403.027 81.7623L403.028 81.762L403.606 83.146ZM399.794 86.6127L398.471 85.9053L398.471 85.9053L399.794 86.6127ZM399.027 91.7077L400.499 91.4211L400.499 91.4211L399.027 91.7077ZM401.315 103.462L402.788 103.175L402.832 103.402L402.806 103.63L401.315 103.462ZM401.305 103.552L400.731 104.937L399.688 104.505L399.815 103.383L401.305 103.552ZM402.807 103.277L402.811 103.294L399.866 103.868L399.863 103.851L402.807 103.277ZM402.741 103.048L402.741 103.049L399.936 104.114L399.936 104.113L402.741 103.048ZM402.631 104.342L402.624 104.354L400.039 102.832L400.046 102.82L402.631 104.342ZM402.624 104.354C402.175 105.117 379.287 143.968 378.782 144.799L376.219 143.239C376.71 142.433 399.576 103.618 400.039 102.831L402.624 104.354ZM377.863 142.563L409.689 150.494L408.964 153.405L377.138 145.474L377.863 142.563ZM407.906 151.467L421.346 111.934L424.186 112.899L410.747 152.432L407.906 151.467ZM422.194 113.803L422.166 113.792L423.31 111.018L423.338 111.03L422.194 113.803ZM421.68 111.341C423.395 109.636 424.643 106.789 425.542 102.986C426.433 99.2191 426.935 94.7278 427.311 89.9302L430.302 90.1646C429.924 94.9918 429.408 99.674 428.461 103.677C427.523 107.644 426.114 111.163 423.795 113.469L421.68 111.341ZM427.572 89.1956C430.577 84.8399 432.247 79.5967 432.371 73.3013L435.371 73.3607C435.236 80.1806 433.415 86.0094 430.041 90.8992L427.572 89.1956ZM432.371 73.3014C432.374 73.1692 432.357 73.0374 432.322 72.91L435.215 72.1133C435.326 72.5194 435.379 72.9395 435.371 73.3606L432.371 73.3014ZM432.323 72.911C432.192 72.4387 432.057 72.0792 431.927 71.817C431.794 71.5488 431.692 71.435 431.653 71.4C431.631 71.3804 431.684 71.4309 431.793 71.4399C431.886 71.4477 431.887 71.4128 431.757 71.4826L430.336 68.8407C430.831 68.5741 431.411 68.3981 432.04 68.4501C432.685 68.5034 433.229 68.7835 433.658 69.1689C434.443 69.8744 434.903 70.9865 435.214 72.1123L432.323 72.911ZM431.778 71.4711C431.48 71.6375 431.257 71.9117 431.156 72.2372L428.292 71.3433C428.623 70.2847 429.346 69.3931 430.315 68.8522L431.778 71.4711ZM431.149 72.2573C429.145 78.3734 426.891 83.9551 424.108 88.0946L421.618 86.4209C424.163 82.636 426.315 77.377 428.299 71.3232L431.149 72.2573ZM421.427 86.8227L427.091 68.1319L429.962 69.0018L424.298 87.6927L421.427 86.8227ZM427.038 68.3852C427.254 66.6121 427.321 65.2159 427.271 64.1431C427.221 63.0506 427.053 62.3979 426.879 62.0408C426.798 61.8736 426.73 61.8026 426.702 61.7774C426.679 61.7577 426.666 61.7518 426.644 61.7465C426.573 61.7296 426.31 61.7093 425.749 61.9498L424.566 59.1927C425.409 58.8312 426.38 58.5984 427.343 58.8291C428.386 59.0791 429.124 59.7977 429.577 60.7285C430.006 61.6099 430.209 62.7263 430.268 64.0043C430.328 65.3021 430.244 66.8777 430.015 68.7484L427.038 68.3852ZM423.875 61.3492C423.564 60.8362 423.3 60.4784 423.071 60.2459C422.843 60.0135 422.73 59.9884 422.73 59.9883C422.729 59.9882 422.729 59.9882 422.73 59.9882C422.73 59.9883 422.73 59.9883 422.73 59.9883C422.73 59.9883 422.729 59.9883 422.727 59.9884C422.725 59.9886 422.721 59.989 422.716 59.99C422.695 59.9937 422.633 60.0085 422.527 60.067C422.298 60.1921 421.943 60.4719 421.457 61.0433L419.173 59.0985C420.323 57.7475 421.724 56.695 423.375 57.0584C424.143 57.2275 424.747 57.6712 425.211 58.1428C425.674 58.6144 426.078 59.1959 426.44 59.7933L423.875 61.3492ZM421.462 61.0376C420.671 61.9762 420.052 63.0474 419.634 64.2016L416.813 63.1809C417.351 61.6937 418.148 60.3135 419.168 59.1042L421.462 61.0376ZM419.632 64.2083L414.415 78.4144L411.599 77.3802L416.816 63.1742L419.632 64.2083ZM411.584 77.4223C413.255 72.4167 414.571 67.2994 415.522 62.1087L418.472 62.6492C417.496 67.9787 416.145 73.2328 414.43 78.3723L411.584 77.4223ZM415.497 62.3887C415.485 60.5554 414.699 60.3154 414.616 60.3052C414.524 60.2939 413.71 60.3504 413.267 62.071L410.362 61.3233C410.995 58.8623 412.758 57.0549 414.981 57.3276C417.213 57.6013 418.48 59.7931 418.497 62.3691L415.497 62.3887ZM413.215 62.2335L405.012 83.6574L402.21 82.5846L410.414 61.1607L413.215 62.2335ZM405.102 83.2892L405.099 83.3134L402.118 82.9769L402.121 82.9528L405.102 83.2892ZM404.187 84.5291L404.185 84.53L403.028 81.762L403.03 81.7612L404.187 84.5291ZM404.185 84.5297C402.872 85.0794 401.788 86.0649 401.117 87.3202L398.471 85.9053C399.468 84.0414 401.077 82.5782 403.027 81.7623L404.185 84.5297ZM401.117 87.3202C400.445 88.5755 400.227 90.0238 400.499 91.4211L397.554 91.9944C397.151 89.9196 397.474 87.7691 398.471 85.9053L401.117 87.3202ZM400.499 91.4211L402.788 103.175L399.843 103.749L397.554 91.9944L400.499 91.4211ZM402.806 103.63L402.796 103.72L399.815 103.383L399.825 103.294L402.806 103.63ZM401.88 102.166L401.91 102.178L400.761 104.95L400.731 104.937L401.88 102.166Z" fill="#231F20" mask="url(#path-25-inside-1_6_838)"></path> <path d="M424.47 61.9434L420.275 74.9104" stroke="#231F20" stroke-width="1.5" stroke-linecap="round" stroke-linejoin="round"></path> <path d="M422.699 90.6543C418.811 95.6455 416.095 100.915 415.142 106.604" stroke="#231F20" stroke-width="1.5" stroke-linecap="round" stroke-linejoin="round"></path> <path d="M404.638 83.3012L415.352 78.2305C416.757 77.7089 417.297 77.5288 418.701 77.0071C419.691 76.6394 420.833 76.2796 421.759 76.7873C422.834 77.3761 423.048 78.9177 422.545 80.0352C422.043 81.1526 421.031 81.9419 420.056 82.6845L412.355 88.553C412.646 90.2716 412.91 92.0575 413.201 93.7761C413.675 96.5805 414.146 99.4925 413.391 102.235C412.641 104.963 410.584 107.237 408.042 108.458" stroke="#231F20" stroke-width="1.5" stroke-linecap="round" stroke-linejoin="round"></path> <path d="M212.782 282.796L223.507 297.677" stroke="#231F20" stroke-width="1.5" stroke-linecap="round" stroke-linejoin="round"></path> <mask id="path-31-inside-2_6_838" fill="white"> <path fill-rule="evenodd" clip-rule="evenodd" d="M281.743 223.308C261.861 223.148 249.703 215.844 241.248 205.811C233.25 196.322 231.359 183.101 236.154 171.655L241.701 158.412L254.105 154.782L374.987 192.69L392.349 198.134C416.461 205.694 419.614 238.073 398.379 250.437L322.229 303.754L295.081 273.569L337.249 233.958L331.684 232.311L281.743 223.308Z"></path> </mask> <path fill-rule="evenodd" clip-rule="evenodd" d="M281.743 223.308C261.861 223.148 249.703 215.844 241.248 205.811C233.25 196.322 231.359 183.101 236.154 171.655L241.701 158.412L254.105 154.782L374.987 192.69L392.349 198.134C416.461 205.694 419.614 238.073 398.379 250.437L322.229 303.754L295.081 273.569L337.249 233.958L331.684 232.311L281.743 223.308Z" fill="#475DEB"></path> <path d="M241.248 205.811L240.101 206.778L240.101 206.778L241.248 205.811ZM281.743 223.308L281.755 221.808L281.883 221.809L282.009 221.832L281.743 223.308ZM236.154 171.655L234.77 171.075L234.77 171.075L236.154 171.655ZM241.701 158.412L240.317 157.832L240.594 157.173L241.28 156.972L241.701 158.412ZM254.105 154.782L253.684 153.343L254.12 153.215L254.554 153.351L254.105 154.782ZM374.987 192.69L374.539 194.121L374.538 194.121L374.987 192.69ZM392.349 198.134L391.9 199.565L391.9 199.565L392.349 198.134ZM398.379 250.437L397.519 249.208L397.57 249.172L397.624 249.14L398.379 250.437ZM322.229 303.754L323.09 304.982L322.002 305.744L321.114 304.757L322.229 303.754ZM295.081 273.569L293.966 274.572L292.984 273.48L294.054 272.475L295.081 273.569ZM337.249 233.958L337.675 232.52L340.181 233.262L338.276 235.052L337.249 233.958ZM331.684 232.311L331.951 230.835L332.031 230.849L332.11 230.873L331.684 232.311ZM242.395 204.845C250.569 214.544 262.313 221.652 281.755 221.808L281.731 224.808C261.409 224.645 248.837 217.144 240.101 206.778L242.395 204.845ZM237.537 172.234C232.955 183.173 234.768 195.795 242.395 204.845L240.101 206.778C231.733 196.849 229.763 183.028 234.77 171.075L237.537 172.234ZM243.084 158.991L237.537 172.234L234.77 171.075L240.317 157.832L243.084 158.991ZM254.526 156.222L242.122 159.851L241.28 156.972L253.684 153.343L254.526 156.222ZM374.538 194.121L253.656 156.214L254.554 153.351L375.436 191.258L374.538 194.121ZM391.9 199.565L374.539 194.121L375.436 191.258L392.798 196.703L391.9 199.565ZM397.624 249.14C417.749 237.423 414.751 206.73 391.9 199.565L392.798 196.703C418.171 204.658 421.48 238.722 399.134 251.733L397.624 249.14ZM399.239 251.665L323.09 304.982L321.369 302.525L397.519 249.208L399.239 251.665ZM321.114 304.757L293.966 274.572L296.196 272.566L323.345 302.75L321.114 304.757ZM294.054 272.475L336.222 232.865L338.276 235.052L296.108 274.662L294.054 272.475ZM332.11 230.873L337.675 232.52L336.823 235.397L331.259 233.749L332.11 230.873ZM282.009 221.832L331.951 230.835L331.418 233.787L281.477 224.784L282.009 221.832Z" fill="#231F20" mask="url(#path-31-inside-2_6_838)"></path> <path d="M360.623 225.879L338.597 234.357" stroke="#231F20" stroke-width="1.5" stroke-linecap="round" stroke-linejoin="round"></path> <path d="M257.104 191.613L233.477 205.304L235.367 195.778L257.104 191.613Z" fill="#231F20"></path> <mask id="path-35-inside-3_6_838" fill="white"> <path fill-rule="evenodd" clip-rule="evenodd" d="M161.149 135.267C162.52 142.014 167.193 148.13 174.996 150.632L219.149 131.793L220.071 132.249L245.629 124.544C245.451 125.221 245.277 125.895 245.105 126.565C244.521 128.864 243.982 131.144 243.488 133.407C243.015 135.576 242.585 137.727 242.199 139.861C240.721 147.811 239.905 155.87 239.761 163.955C269.146 174.554 309.557 179.348 309.557 179.348C309.557 179.348 316.424 172.62 315.507 166.554L319.037 156.994L325.727 138.877L326.965 135.524L326.993 135.55C327.083 135.294 327.172 135.038 327.26 134.781C327.172 135.038 327.083 135.294 326.993 135.55L332.616 140.908L345.636 153.314L378.707 176.609C380.656 177.982 382.882 178.909 385.229 179.326C387.575 179.742 389.985 179.638 392.287 179.02C394.589 178.402 396.726 177.286 398.549 175.75C400.371 174.214 401.834 172.297 402.833 170.133L406.542 162.1L406.542 162.1L406.549 162.084L410.063 154.473L409.987 154.414L424.381 122.298L391.728 109.633L379.591 130.779L372.22 125.047L354.23 109.483C353.272 108.013 352.385 106.621 351.544 105.302C347.127 98.373 343.996 93.4606 338.649 89.9243C336.391 88.4295 333.737 87.1811 330.423 86.1294L330.423 86.1292C328.087 85.4045 325.712 84.8154 323.309 84.365C321.652 84.8108 301.9 79.9517 290.477 77.0689C287.502 76.3205 285.093 75.7037 283.714 75.3487C282.902 75.1417 282.449 75.0234 282.449 75.0234C268.362 70.6353 252.324 74.417 238.841 82.3082L176.507 110.695L172.838 112.346C163.146 116.707 159.371 126.517 161.149 135.267Z"></path> </mask> <path fill-rule="evenodd" clip-rule="evenodd" d="M161.149 135.267C162.52 142.014 167.193 148.13 174.996 150.632L219.149 131.793L220.071 132.249L245.629 124.544C245.451 125.221 245.277 125.895 245.105 126.565C244.521 128.864 243.982 131.144 243.488 133.407C243.015 135.576 242.585 137.727 242.199 139.861C240.721 147.811 239.905 155.87 239.761 163.955C269.146 174.554 309.557 179.348 309.557 179.348C309.557 179.348 316.424 172.62 315.507 166.554L319.037 156.994L325.727 138.877L326.965 135.524L326.993 135.55C327.083 135.294 327.172 135.038 327.26 134.781C327.172 135.038 327.083 135.294 326.993 135.55L332.616 140.908L345.636 153.314L378.707 176.609C380.656 177.982 382.882 178.909 385.229 179.326C387.575 179.742 389.985 179.638 392.287 179.02C394.589 178.402 396.726 177.286 398.549 175.75C400.371 174.214 401.834 172.297 402.833 170.133L406.542 162.1L406.542 162.1L406.549 162.084L410.063 154.473L409.987 154.414L424.381 122.298L391.728 109.633L379.591 130.779L372.22 125.047L354.23 109.483C353.272 108.013 352.385 106.621 351.544 105.302C347.127 98.373 343.996 93.4606 338.649 89.9243C336.391 88.4295 333.737 87.1811 330.423 86.1294L330.423 86.1292C328.087 85.4045 325.712 84.8154 323.309 84.365C321.652 84.8108 301.9 79.9517 290.477 77.0689C287.502 76.3205 285.093 75.7037 283.714 75.3487C282.902 75.1417 282.449 75.0234 282.449 75.0234C268.362 70.6353 252.324 74.417 238.841 82.3082L176.507 110.695L172.838 112.346C163.146 116.707 159.371 126.517 161.149 135.267Z" fill="white"></path> <path d="M174.996 150.632L175.585 152.012L175.071 152.231L174.538 152.06L174.996 150.632ZM161.149 135.267L162.619 134.969L162.619 134.969L161.149 135.267ZM219.149 131.793L218.56 130.413L219.195 130.143L219.814 130.448L219.149 131.793ZM220.071 132.249L220.504 133.685L219.937 133.856L219.406 133.594L220.071 132.249ZM245.629 124.544L245.196 123.108L247.76 122.335L247.08 124.925L245.629 124.544ZM245.105 126.565L243.652 126.195L243.652 126.194L245.105 126.565ZM243.488 133.407L244.954 133.727L244.954 133.727L243.488 133.407ZM242.199 139.861L243.675 140.128L243.673 140.135L242.199 139.861ZM239.761 163.955L239.252 165.366L238.242 165.002L238.261 163.928L239.761 163.955ZM309.557 179.348L310.607 180.419L310.094 180.922L309.381 180.837L309.557 179.348ZM315.507 166.554L314.024 166.778L313.966 166.397L314.1 166.034L315.507 166.554ZM319.037 156.994L317.63 156.474L317.63 156.474L319.037 156.994ZM325.727 138.877L327.135 139.397L327.134 139.397L325.727 138.877ZM326.965 135.524L325.558 135.004L326.354 132.849L328.007 134.444L326.965 135.524ZM326.993 135.55L328.408 136.049L327.632 138.251L325.952 136.63L326.993 135.55ZM327.26 134.781L325.839 134.298L328.68 135.263L327.26 134.781ZM326.993 135.55L325.958 136.636L325.256 135.967L325.578 135.052L326.993 135.55ZM332.616 140.908L333.651 139.821L333.651 139.822L332.616 140.908ZM345.636 153.314L344.772 154.54L344.682 154.476L344.601 154.4L345.636 153.314ZM378.707 176.609L377.844 177.836L377.843 177.836L378.707 176.609ZM385.229 179.326L385.491 177.849L385.491 177.849L385.229 179.326ZM392.287 179.02L392.676 180.469L392.676 180.469L392.287 179.02ZM398.549 175.75L397.582 174.603L397.582 174.603L398.549 175.75ZM402.833 170.133L404.195 170.762L404.195 170.762L402.833 170.133ZM406.542 162.1L405.18 161.471L405.764 160.206L407.068 160.695L406.542 162.1ZM406.542 162.1L407.911 162.713L407.335 163.999L406.015 163.504L406.542 162.1ZM406.549 162.084L405.18 161.47L405.184 161.463L405.187 161.455L406.549 162.084ZM410.063 154.473L410.983 153.289L411.924 154.02L411.424 155.102L410.063 154.473ZM409.987 154.414L409.066 155.598L408.136 154.875L408.618 153.801L409.987 154.414ZM424.381 122.298L424.924 120.9L426.396 121.471L425.75 122.912L424.381 122.298ZM391.728 109.633L390.427 108.886L391.069 107.768L392.27 108.234L391.728 109.633ZM379.591 130.779L380.892 131.525L380.033 133.022L378.67 131.963L379.591 130.779ZM372.22 125.047L371.299 126.231L371.268 126.207L371.239 126.181L372.22 125.047ZM354.23 109.483L353.249 110.617L353.089 110.479L352.974 110.302L354.23 109.483ZM351.544 105.302L352.809 104.495L352.809 104.495L351.544 105.302ZM338.649 89.9243L337.821 91.1755L337.821 91.175L338.649 89.9243ZM330.423 86.1294L329.969 87.5591L329.077 87.2761L328.939 86.3505L330.423 86.1294ZM330.423 86.1292L330.867 84.6966L331.767 84.9759L331.906 85.9081L330.423 86.1292ZM323.309 84.365L322.919 82.9165L323.249 82.8277L323.585 82.8907L323.309 84.365ZM290.477 77.0689L290.843 75.6142L290.844 75.6145L290.477 77.0689ZM283.714 75.3487L284.085 73.8952L284.088 73.8961L283.714 75.3487ZM282.449 75.0234L282.07 76.4747L282.036 76.4659L282.003 76.4555L282.449 75.0234ZM238.841 82.3082L239.599 83.6028L239.532 83.6415L239.463 83.6733L238.841 82.3082ZM176.507 110.695L177.128 112.06L177.122 112.062L176.507 110.695ZM172.838 112.346L173.453 113.714L173.453 113.714L172.838 112.346ZM174.538 152.06C166.177 149.38 161.149 142.801 159.679 135.566L162.619 134.969C163.891 141.227 168.209 146.881 175.454 149.204L174.538 152.06ZM219.738 133.173L175.585 152.012L174.408 149.252L218.56 130.413L219.738 133.173ZM219.406 133.594L218.484 133.138L219.814 130.448L220.736 130.904L219.406 133.594ZM246.062 125.98L220.504 133.685L219.638 130.813L245.196 123.108L246.062 125.98ZM243.652 126.194C243.824 125.52 244 124.843 244.178 124.163L247.08 124.925C246.903 125.599 246.729 126.269 246.559 126.936L243.652 126.194ZM242.023 133.087C242.52 130.808 243.063 128.51 243.652 126.195L246.559 126.935C245.979 129.217 245.444 131.481 244.954 133.727L242.023 133.087ZM240.723 139.594C241.112 137.442 241.546 135.273 242.023 133.087L244.954 133.727C244.484 135.879 244.058 138.013 243.675 140.128L240.723 139.594ZM238.261 163.928C238.407 155.76 239.231 147.619 240.724 139.587L243.673 140.135C242.211 148.004 241.404 155.98 241.261 163.982L238.261 163.928ZM309.557 179.348C309.381 180.837 309.38 180.837 309.38 180.837C309.379 180.837 309.379 180.837 309.378 180.837C309.377 180.837 309.375 180.837 309.372 180.836C309.367 180.836 309.359 180.835 309.349 180.833C309.329 180.831 309.299 180.827 309.26 180.823C309.181 180.813 309.064 180.799 308.911 180.78C308.605 180.742 308.154 180.685 307.569 180.608C306.401 180.456 304.7 180.226 302.569 179.918C298.307 179.3 292.318 178.367 285.408 177.101C271.604 174.573 254.06 170.707 239.252 165.366L240.27 162.544C254.847 167.802 272.201 171.632 285.949 174.15C292.815 175.408 298.766 176.336 302.999 176.949C305.115 177.255 306.802 177.483 307.958 177.634C308.536 177.709 308.981 177.765 309.281 177.803C309.431 177.821 309.545 177.835 309.621 177.845C309.659 177.849 309.688 177.853 309.707 177.855C309.716 177.856 309.723 177.857 309.728 177.857C309.73 177.858 309.732 177.858 309.733 177.858C309.733 177.858 309.733 177.858 309.734 177.858C309.734 177.858 309.734 177.858 309.557 179.348ZM316.99 166.33C317.536 169.94 315.774 173.544 314.13 176.049C313.283 177.339 312.409 178.424 311.749 179.185C311.418 179.566 311.138 179.87 310.938 180.08C310.838 180.185 310.758 180.267 310.702 180.324C310.674 180.353 310.651 180.375 310.635 180.391C310.627 180.399 310.621 180.405 310.616 180.41C310.614 180.412 310.612 180.414 310.61 180.416C310.61 180.417 310.609 180.417 310.608 180.418C310.608 180.418 310.608 180.418 310.608 180.419C310.607 180.419 310.607 180.419 309.557 179.348C308.508 178.276 308.507 178.276 308.507 178.277C308.507 178.277 308.507 178.277 308.507 178.277C308.507 178.277 308.507 178.277 308.507 178.277C308.507 178.277 308.507 178.277 308.508 178.276C308.51 178.274 308.513 178.27 308.518 178.265C308.528 178.256 308.544 178.239 308.566 178.217C308.61 178.173 308.677 178.104 308.763 178.014C308.935 177.832 309.185 177.563 309.483 177.219C310.081 176.529 310.867 175.552 311.622 174.402C313.182 172.027 314.395 169.234 314.024 166.778L316.99 166.33ZM320.444 157.514L316.914 167.074L314.1 166.034L317.63 156.474L320.444 157.514ZM327.134 139.397L320.444 157.514L317.63 156.474L324.32 138.358L327.134 139.397ZM328.372 136.043L327.135 139.397L324.32 138.358L325.558 135.004L328.372 136.043ZM325.952 136.63L325.924 136.603L328.007 134.444L328.034 134.471L325.952 136.63ZM328.68 135.264C328.59 135.526 328.5 135.788 328.408 136.049L325.578 135.052C325.667 134.801 325.754 134.549 325.839 134.298L328.68 135.264ZM325.578 135.052C325.667 134.801 325.754 134.55 325.839 134.298L328.68 135.263C328.591 135.526 328.5 135.787 328.408 136.049L325.578 135.052ZM331.581 141.994L325.958 136.636L328.028 134.464L333.651 139.821L331.581 141.994ZM344.601 154.4L331.581 141.993L333.651 139.822L346.671 152.228L344.601 154.4ZM377.843 177.836L344.772 154.54L346.5 152.088L379.571 175.383L377.843 177.836ZM384.967 180.802C382.403 180.347 379.972 179.335 377.844 177.836L379.571 175.383C381.34 176.629 383.361 177.47 385.491 177.849L384.967 180.802ZM392.676 180.469C390.161 181.143 387.53 181.257 384.967 180.802L385.491 177.849C387.621 178.227 389.808 178.132 391.898 177.571L392.676 180.469ZM399.515 176.897C397.525 178.574 395.19 179.794 392.676 180.469L391.898 177.571C393.987 177.01 395.928 175.997 397.582 174.603L399.515 176.897ZM404.195 170.762C403.103 173.125 401.506 175.22 399.515 176.897L397.582 174.603C399.237 173.209 400.564 171.469 401.471 169.505L404.195 170.762ZM407.904 162.728L404.195 170.762L401.471 169.505L405.18 161.471L407.904 162.728ZM407.068 160.695L407.069 160.695L406.015 163.504L406.015 163.504L407.068 160.695ZM405.173 161.486L405.18 161.47L407.918 162.697L407.911 162.713L405.173 161.486ZM411.424 155.102L407.911 162.712L405.187 161.455L408.701 153.844L411.424 155.102ZM410.907 153.23L410.983 153.289L409.142 155.657L409.066 155.598L410.907 153.23ZM408.618 153.801L423.013 121.685L425.75 122.912L411.355 155.028L408.618 153.801ZM423.839 123.697L391.186 111.031L392.27 108.234L424.924 120.9L423.839 123.697ZM393.029 110.379L380.892 131.525L378.29 130.032L390.427 108.886L393.029 110.379ZM373.141 123.863L380.512 129.595L378.67 131.963L371.299 126.231L373.141 123.863ZM355.212 108.348L373.202 123.913L371.239 126.181L353.249 110.617L355.212 108.348ZM352.809 104.495C353.65 105.815 354.534 107.201 355.487 108.663L352.974 110.302C352.011 108.825 351.119 107.426 350.279 106.108L352.809 104.495ZM339.476 88.6732C345.136 92.4164 348.428 97.6237 352.809 104.495L350.279 106.108C345.826 99.1224 342.855 94.5048 337.821 91.1755L339.476 88.6732ZM330.876 84.6996C334.299 85.7857 337.084 87.0892 339.477 88.6737L337.821 91.175C335.699 89.7697 333.175 88.5764 329.969 87.5591L330.876 84.6996ZM331.906 85.9081L331.906 85.9082L328.939 86.3505L328.939 86.3504L331.906 85.9081ZM323.585 82.8907C326.045 83.3518 328.477 83.9548 330.867 84.6966L329.978 87.5618C327.698 86.8542 325.379 86.2791 323.033 85.8393L323.585 82.8907ZM290.844 75.6145C296.553 77.0553 304.335 78.9878 310.893 80.5037C314.174 81.2622 317.135 81.913 319.371 82.3458C320.492 82.5626 321.411 82.7207 322.089 82.8108C322.429 82.8561 322.687 82.8811 322.867 82.89C323.101 82.9016 323.065 82.8773 322.919 82.9165L323.699 85.8135C323.346 85.9084 322.961 85.8984 322.719 85.8864C322.422 85.8717 322.074 85.8352 321.693 85.7846C320.929 85.6831 319.944 85.5122 318.801 85.2911C316.511 84.8481 313.509 84.1876 310.217 83.4266C303.629 81.9038 295.824 79.9654 290.11 78.5233L290.844 75.6145ZM284.088 73.8961C285.465 74.2505 287.871 74.8666 290.843 75.6142L290.111 78.5236C287.133 77.7744 284.721 77.1568 283.34 76.8014L284.088 73.8961ZM282.449 75.0234C282.828 73.5721 282.828 73.5721 282.828 73.5721C282.828 73.5721 282.828 73.5721 282.828 73.5721C282.828 73.5721 282.828 73.5721 282.828 73.5721C282.828 73.5722 282.828 73.5722 282.828 73.5722C282.828 73.5722 282.829 73.5723 282.829 73.5724C282.83 73.5726 282.831 73.5729 282.833 73.5734C282.836 73.5743 282.841 73.5756 282.848 73.5774C282.862 73.5809 282.882 73.5863 282.91 73.5933C282.964 73.6075 283.045 73.6285 283.152 73.6561C283.365 73.7112 283.68 73.7921 284.085 73.8952L283.344 76.8023C282.936 76.6984 282.618 76.6167 282.402 76.5608C282.294 76.5329 282.211 76.5115 282.155 76.4969C282.127 76.4897 282.106 76.4842 282.092 76.4804C282.085 76.4786 282.079 76.4772 282.076 76.4762C282.074 76.4757 282.072 76.4754 282.071 76.4751C282.071 76.475 282.07 76.4749 282.07 76.4748C282.07 76.4748 282.07 76.4748 282.07 76.4747C282.07 76.4747 282.07 76.4747 282.07 76.4747C282.07 76.4747 282.07 76.4747 282.07 76.4747C282.07 76.4747 282.07 76.4747 282.449 75.0234ZM238.083 81.0136C251.788 72.9923 268.272 69.036 282.895 73.5913L282.003 76.4555C268.453 72.2346 252.859 75.8417 239.599 83.6028L238.083 81.0136ZM175.885 109.329L238.219 80.9431L239.463 83.6733L177.128 112.06L175.885 109.329ZM172.222 110.978L175.891 109.327L177.122 112.062L173.453 113.714L172.222 110.978ZM159.679 135.566C157.778 126.211 161.817 115.66 172.222 110.978L173.453 113.714C164.475 117.754 160.964 126.822 162.619 134.969L159.679 135.566Z" fill="#231F20" mask="url(#path-35-inside-3_6_838)"></path> <path d="M379.733 130.531L366.072 152.38" stroke="#231F20" stroke-width="1.5" stroke-linecap="round" stroke-linejoin="round"></path> <path d="M314.937 173.407L284.96 166.668" stroke="#231F20" stroke-width="1.5" stroke-linecap="round" stroke-linejoin="round"></path> <path d="M310.726 91.4043L296.827 168.179" stroke="#231F20" stroke-width="1.5" stroke-linecap="round" stroke-linejoin="round"></path> <path d="M326.966 135.523L333.424 109.224" stroke="#231F20" stroke-width="1.5" stroke-linecap="round" stroke-linejoin="round"></path> <path d="M217.581 198.787L314.506 185.54L308.238 113.582L203.69 136.296L217.581 198.787Z" fill="#00A460" stroke="#231F20" stroke-width="1.5"></path> <mask id="path-42-inside-4_6_838" fill="white"> <path fill-rule="evenodd" clip-rule="evenodd" d="M174.699 149.175L232.026 162.977L232.144 162.757C236.848 166.813 242.107 170.193 247.769 172.792C246.701 176.862 246.313 181.082 246.618 185.279C246.689 186.247 246.824 187.277 247.455 188.014C248.962 189.772 251.783 188.075 252.479 186.464C252.913 185.461 253.158 184.434 253.405 183.397C253.485 183.064 253.564 182.731 253.65 182.397C254.53 183.125 255.264 182.6 256.035 182.049C256.081 182.016 256.127 181.983 256.173 181.951C256.445 181.758 257.043 181.317 258.325 179.475C260.094 179.516 261.573 178.37 262.762 177.06C264.244 177.263 265.727 176.502 266.761 175.421C267.795 174.34 268.46 172.968 269.108 171.621L271.577 166.489C272.061 165.483 272.55 164.463 272.771 163.367C272.798 163.232 272.826 163.102 272.854 162.974C272.962 162.476 273.059 162.03 273.027 161.598C273.061 161.611 273.095 161.623 273.129 161.635L273.13 161.636C274.953 162.295 276.834 162.975 278.735 162.688C279.17 162.647 279.584 162.482 279.929 162.214C280.614 161.612 280.555 160.471 280.048 159.713C279.07 158.248 277.074 157.103 275.326 156.1C274.747 155.768 274.195 155.451 273.716 155.144L266.573 150.556C265.599 149.89 264.57 149.31 263.495 148.824C262.498 148.407 261.451 148.156 260.383 147.995C259.958 147.751 259.522 147.521 259.076 147.306C252.915 144.339 246.813 141.966 239.988 141.012L239.93 141.099C234.101 139.584 226.709 136.428 218.624 132.976L218.623 132.976L218.623 132.976C212.006 130.15 204.925 127.127 197.857 124.643L174.699 149.175Z"></path> </mask> <path fill-rule="evenodd" clip-rule="evenodd" d="M174.699 149.175L232.026 162.977L232.144 162.757C236.848 166.813 242.107 170.193 247.769 172.792C246.701 176.862 246.313 181.082 246.618 185.279C246.689 186.247 246.824 187.277 247.455 188.014C248.962 189.772 251.783 188.075 252.479 186.464C252.913 185.461 253.158 184.434 253.405 183.397C253.485 183.064 253.564 182.731 253.65 182.397C254.53 183.125 255.264 182.6 256.035 182.049C256.081 182.016 256.127 181.983 256.173 181.951C256.445 181.758 257.043 181.317 258.325 179.475C260.094 179.516 261.573 178.37 262.762 177.06C264.244 177.263 265.727 176.502 266.761 175.421C267.795 174.34 268.46 172.968 269.108 171.621L271.577 166.489C272.061 165.483 272.55 164.463 272.771 163.367C272.798 163.232 272.826 163.102 272.854 162.974C272.962 162.476 273.059 162.03 273.027 161.598C273.061 161.611 273.095 161.623 273.129 161.635L273.13 161.636C274.953 162.295 276.834 162.975 278.735 162.688C279.17 162.647 279.584 162.482 279.929 162.214C280.614 161.612 280.555 160.471 280.048 159.713C279.07 158.248 277.074 157.103 275.326 156.1C274.747 155.768 274.195 155.451 273.716 155.144L266.573 150.556C265.599 149.89 264.57 149.31 263.495 148.824C262.498 148.407 261.451 148.156 260.383 147.995C259.958 147.751 259.522 147.521 259.076 147.306C252.915 144.339 246.813 141.966 239.988 141.012L239.93 141.099C234.101 139.584 226.709 136.428 218.624 132.976L218.623 132.976L218.623 132.976C212.006 130.15 204.925 127.127 197.857 124.643L174.699 149.175Z" fill="white"></path> <path d="M232.026 162.977L233.346 163.688L232.798 164.706L231.674 164.436L232.026 162.977ZM174.699 149.175L174.348 150.633L171.832 150.028L173.609 148.145L174.699 149.175ZM232.144 162.757L230.824 162.046L231.709 160.401L233.124 161.621L232.144 162.757ZM247.769 172.792L248.395 171.428L249.54 171.954L249.22 173.172L247.769 172.792ZM246.618 185.279L245.122 185.389L245.122 185.388L246.618 185.279ZM247.455 188.014L246.317 188.99L246.317 188.99L247.455 188.014ZM252.479 186.464L253.856 187.059L253.856 187.059L252.479 186.464ZM253.405 183.397L254.864 183.745L254.864 183.745L253.405 183.397ZM253.65 182.397L252.198 182.023L252.788 179.737L254.607 181.242L253.65 182.397ZM256.035 182.049L256.907 183.269L256.907 183.269L256.035 182.049ZM256.173 181.951L257.04 183.174L257.04 183.175L256.173 181.951ZM258.325 179.475L257.094 178.618L257.554 177.957L258.36 177.976L258.325 179.475ZM262.762 177.06L261.652 176.052L262.183 175.467L262.966 175.574L262.762 177.06ZM266.761 175.421L265.677 174.384L265.677 174.384L266.761 175.421ZM269.108 171.621L270.46 172.271L270.46 172.271L269.108 171.621ZM271.577 166.489L270.225 165.839L270.225 165.839L271.577 166.489ZM272.771 163.367L271.3 163.071L271.3 163.071L272.771 163.367ZM272.854 162.974L271.388 162.656L271.388 162.656L272.854 162.974ZM273.027 161.598L271.531 161.709L271.361 159.401L273.537 160.188L273.027 161.598ZM273.129 161.635L273.639 160.225L273.645 160.227L273.129 161.635ZM273.13 161.636L272.62 163.046L272.614 163.044L273.13 161.636ZM278.735 162.688L278.512 161.205L278.552 161.199L278.594 161.195L278.735 162.688ZM279.929 162.214L280.919 163.341L280.885 163.371L280.85 163.398L279.929 162.214ZM280.048 159.713L278.801 160.546L278.801 160.546L280.048 159.713ZM275.326 156.1L276.073 154.799L276.073 154.799L275.326 156.1ZM273.716 155.144L274.527 153.882L274.527 153.882L273.716 155.144ZM266.573 150.556L265.762 151.818L265.744 151.806L265.726 151.793L266.573 150.556ZM263.495 148.824L264.073 147.44L264.094 147.448L264.114 147.457L263.495 148.824ZM260.383 147.995L260.159 149.478L259.881 149.436L259.636 149.296L260.383 147.995ZM259.076 147.306L259.727 145.954L259.727 145.954L259.076 147.306ZM239.988 141.012L238.744 140.175L239.267 139.397L240.196 139.527L239.988 141.012ZM239.93 141.099L241.174 141.937L240.58 142.818L239.552 142.551L239.93 141.099ZM218.624 132.976L219.15 131.571L219.182 131.583L219.213 131.596L218.624 132.976ZM218.623 132.976L218.097 134.38L218.064 134.368L218.033 134.354L218.623 132.976ZM218.623 132.976L219.212 131.596L219.214 131.597L218.623 132.976ZM197.857 124.643L196.766 123.613L197.435 122.904L198.354 123.227L197.857 124.643ZM231.674 164.436L174.348 150.633L175.051 147.717L232.377 161.519L231.674 164.436ZM233.465 163.468L233.346 163.688L230.705 162.266L230.824 162.046L233.465 163.468ZM247.144 174.155C241.353 171.498 235.975 168.041 231.165 163.893L233.124 161.621C237.721 165.585 242.861 168.889 248.395 171.428L247.144 174.155ZM245.122 185.388C244.805 181.026 245.209 176.641 246.318 172.411L249.22 173.172C248.194 177.083 247.821 181.137 248.114 185.17L245.122 185.388ZM246.317 188.99C245.327 187.836 245.191 186.326 245.122 185.389L248.114 185.17C248.187 186.168 248.32 186.718 248.594 187.038L246.317 188.99ZM253.856 187.059C253.329 188.279 252.125 189.359 250.845 189.888C249.525 190.434 247.65 190.546 246.317 188.99L248.594 187.038C248.767 187.24 249.056 187.382 249.698 187.116C250.379 186.834 250.933 186.26 251.102 185.87L253.856 187.059ZM254.864 183.745C254.621 184.763 254.35 185.918 253.856 187.059L251.102 185.87C251.476 185.005 251.695 184.104 251.946 183.049L254.864 183.745ZM255.103 182.772C255.021 183.09 254.944 183.411 254.864 183.745L251.946 183.049C252.025 182.718 252.108 182.372 252.198 182.023L255.103 182.772ZM256.907 183.269C256.583 183.501 255.982 183.953 255.288 184.147C254.898 184.256 254.449 184.298 253.967 184.193C253.488 184.089 253.064 183.859 252.694 183.553L254.607 181.242C254.676 181.299 254.674 181.277 254.604 181.261C254.531 181.246 254.478 181.258 254.479 181.258C254.494 181.254 254.556 181.232 254.686 181.154C254.818 181.074 254.96 180.973 255.163 180.829L256.907 183.269ZM257.04 183.175C256.997 183.205 256.953 183.236 256.907 183.269L255.163 180.829C255.208 180.796 255.257 180.761 255.306 180.727L257.04 183.175ZM259.556 180.332C258.206 182.271 257.493 182.854 257.04 183.174L255.306 180.727C255.398 180.662 255.88 180.362 257.094 178.618L259.556 180.332ZM263.873 178.069C262.622 179.446 260.749 181.032 258.29 180.975L258.36 177.976C259.44 178.001 260.523 177.295 261.652 176.052L263.873 178.069ZM267.845 176.458C266.607 177.752 264.675 178.836 262.559 178.547L262.966 175.574C263.813 175.69 264.847 175.252 265.677 174.384L267.845 176.458ZM270.46 172.271C269.829 173.582 269.07 175.177 267.845 176.458L265.677 174.384C266.519 173.504 267.09 172.354 267.756 170.97L270.46 172.271ZM272.929 167.14L270.46 172.271L267.756 170.97L270.225 165.839L272.929 167.14ZM274.241 163.664C273.978 164.974 273.399 166.162 272.929 167.14L270.225 165.839C270.723 164.804 271.123 163.951 271.3 163.071L274.241 163.664ZM274.32 163.292C274.292 163.421 274.266 163.541 274.241 163.664L271.3 163.071C271.33 162.924 271.361 162.782 271.388 162.656L274.32 163.292ZM274.523 161.488C274.574 162.176 274.417 162.846 274.32 163.292L271.388 162.656C271.508 162.106 271.544 161.883 271.531 161.709L274.523 161.488ZM273.537 160.188C273.571 160.2 273.605 160.212 273.639 160.225L272.619 163.046C272.585 163.034 272.551 163.021 272.517 163.009L273.537 160.188ZM273.645 160.227L273.646 160.227L272.614 163.044L272.613 163.044L273.645 160.227ZM273.64 160.225C275.541 160.913 277.052 161.425 278.512 161.205L278.959 164.171C276.615 164.525 274.365 163.677 272.62 163.046L273.64 160.225ZM278.594 161.195C278.745 161.181 278.888 161.123 279.008 161.03L280.85 163.398C280.28 163.842 279.596 164.113 278.877 164.181L278.594 161.195ZM278.939 161.087C278.892 161.129 278.934 161.137 278.936 160.998C278.938 160.851 278.887 160.675 278.801 160.546L281.296 158.88C281.716 159.509 281.948 160.283 281.936 161.047C281.923 161.818 281.652 162.698 280.919 163.341L278.939 161.087ZM278.801 160.546C278.46 160.036 277.888 159.509 277.109 158.958C276.338 158.412 275.465 157.91 274.579 157.401L276.073 154.799C276.935 155.294 277.935 155.866 278.843 156.51C279.743 157.147 280.658 157.925 281.296 158.88L278.801 160.546ZM274.579 157.401C274.009 157.074 273.422 156.738 272.905 156.406L274.527 153.882C274.968 154.165 275.485 154.462 276.073 154.799L274.579 157.401ZM272.905 156.406L265.762 151.818L267.383 149.293L274.527 153.882L272.905 156.406ZM265.726 151.793C264.825 151.177 263.871 150.64 262.876 150.19L264.114 147.457C265.268 147.98 266.374 148.602 267.42 149.318L265.726 151.793ZM262.917 150.208C262.066 149.852 261.146 149.627 260.159 149.478L260.607 146.512C261.756 146.685 262.93 146.962 264.073 147.44L262.917 150.208ZM259.727 145.954C260.207 146.185 260.674 146.432 261.13 146.694L259.636 149.296C259.241 149.069 258.838 148.856 258.425 148.657L259.727 145.954ZM240.196 139.527C247.241 140.511 253.503 142.957 259.727 145.954L258.425 148.657C252.327 145.72 246.386 143.421 239.781 142.498L240.196 139.527ZM238.685 140.262L238.744 140.175L241.232 141.85L241.174 141.937L238.685 140.262ZM219.213 131.596C227.339 135.066 234.612 138.167 240.307 139.648L239.552 142.551C233.59 141.001 226.078 137.79 218.034 134.355L219.213 131.596ZM219.15 131.571L219.15 131.571L218.097 134.38L218.097 134.38L219.15 131.571ZM219.214 131.597L219.214 131.597L218.033 134.354L218.033 134.354L219.214 131.597ZM198.354 123.227C205.477 125.731 212.603 128.774 219.212 131.596L218.034 134.355C211.41 131.527 204.374 128.523 197.36 126.058L198.354 123.227ZM173.609 148.145L196.766 123.613L198.948 125.672L175.79 150.205L173.609 148.145Z" fill="#231F20" mask="url(#path-42-inside-4_6_838)"></path> <mask id="path-44-inside-5_6_838" fill="white"> <path fill-rule="evenodd" clip-rule="evenodd" d="M304.999 59.7118C304.78 59.1491 304.576 58.5869 304.389 58.0266C303.588 55.632 303.367 52.5886 303.428 50.0609C303.613 42.4028 307.929 36.0097 315.237 33.5409C322.973 30.928 332.372 32.748 337.218 39.6282C343.246 48.1828 338.18 58.502 334.064 66.8886C333.804 67.4172 333.548 67.9382 333.3 68.4505C331.72 71.7009 329.488 75.7475 325.984 77.2192C324.046 78.0333 321.861 78.104 319.81 77.6103L316.149 83.5393L316.147 83.5396L314.653 91.3837C311.299 102.126 298.379 93.8983 292.482 77.5747C296.707 75.0181 302.214 66.9225 304.999 59.7118Z"></path> </mask> <path fill-rule="evenodd" clip-rule="evenodd" d="M304.999 59.7118C304.78 59.1491 304.576 58.5869 304.389 58.0266C303.588 55.632 303.367 52.5886 303.428 50.0609C303.613 42.4028 307.929 36.0097 315.237 33.5409C322.973 30.928 332.372 32.748 337.218 39.6282C343.246 48.1828 338.18 58.502 334.064 66.8886C333.804 67.4172 333.548 67.9382 333.3 68.4505C331.72 71.7009 329.488 75.7475 325.984 77.2192C324.046 78.0333 321.861 78.104 319.81 77.6103L316.149 83.5393L316.147 83.5396L314.653 91.3837C311.299 102.126 298.379 93.8983 292.482 77.5747C296.707 75.0181 302.214 66.9225 304.999 59.7118Z" fill="white"></path> <path d="M304.389 58.0266L302.966 58.502L302.966 58.5019L304.389 58.0266ZM304.999 59.7118L306.397 59.1667L306.608 59.7091L306.398 60.2522L304.999 59.7118ZM303.428 50.0609L304.928 50.097L304.928 50.0973L303.428 50.0609ZM315.237 33.5409L314.757 32.1198L314.757 32.1198L315.237 33.5409ZM337.218 39.6282L335.992 40.4922L335.992 40.4919L337.218 39.6282ZM334.064 66.8886L335.41 67.5495L335.41 67.5495L334.064 66.8886ZM333.3 68.4505L334.649 69.1061L334.649 69.1061L333.3 68.4505ZM325.984 77.2192L326.565 78.6022L326.565 78.6022L325.984 77.2192ZM319.81 77.6103L318.534 76.8222L319.105 75.8976L320.161 76.152L319.81 77.6103ZM316.149 83.5393L317.425 84.3274L317.087 84.8757L316.456 85.0076L316.149 83.5393ZM316.147 83.5396L314.674 83.2589L314.861 82.276L315.84 82.0713L316.147 83.5396ZM314.653 91.3837L316.126 91.6644L316.11 91.7487L316.085 91.8307L314.653 91.3837ZM292.482 77.5747L291.071 78.0844L290.653 76.9279L291.706 76.2914L292.482 77.5747ZM305.811 57.5511C305.99 58.087 306.186 58.626 306.397 59.1667L303.602 60.2568C303.374 59.6722 303.161 59.0867 302.966 58.502L305.811 57.5511ZM304.928 50.0973C304.869 52.5473 305.09 55.393 305.811 57.5512L302.966 58.5019C302.087 55.8711 301.866 52.63 301.929 50.0246L304.928 50.0973ZM315.717 34.962C309.054 37.2127 305.098 43.0161 304.928 50.097L301.929 50.0248C302.127 41.7896 306.803 34.8066 314.757 32.1198L315.717 34.962ZM335.992 40.4919C331.623 34.2889 322.994 32.5042 315.717 34.962L314.757 32.1198C322.952 29.3517 333.122 31.2071 338.444 38.7645L335.992 40.4919ZM332.717 66.2276C334.792 62.0006 336.998 57.4893 337.98 53.0009C338.95 48.5629 338.687 44.3166 335.992 40.4922L338.444 38.7642C341.777 43.4943 341.995 48.6849 340.91 53.6419C339.837 58.5484 337.452 63.39 335.41 67.5495L332.717 66.2276ZM331.95 67.795C332.201 67.2795 332.458 66.7557 332.717 66.2276L335.41 67.5495C335.15 68.0787 334.896 68.5969 334.649 69.1061L331.95 67.795ZM325.403 75.8363C326.812 75.2444 328.051 74.0948 329.161 72.6057C330.266 71.1215 331.17 69.4021 331.95 67.795L334.649 69.1061C333.85 70.7493 332.848 72.6784 331.566 74.3981C330.289 76.1128 328.659 77.7224 326.565 78.6022L325.403 75.8363ZM320.161 76.152C321.955 76.584 323.807 76.5066 325.403 75.8363L326.565 78.6022C324.284 79.56 321.766 79.6241 319.459 79.0686L320.161 76.152ZM314.873 82.7512L318.534 76.8222L321.086 78.3984L317.425 84.3274L314.873 82.7512ZM315.84 82.0713L315.842 82.071L316.456 85.0076L316.454 85.0079L315.84 82.0713ZM313.179 91.1029L314.674 83.2589L317.621 83.8203L316.126 91.6644L313.179 91.1029ZM293.893 77.0651C296.769 85.0256 301.304 90.8371 305.319 93.3586C307.334 94.6238 309.003 94.9351 310.208 94.6063C311.333 94.2995 312.479 93.3123 313.221 90.9366L316.085 91.8307C315.149 94.8261 313.423 96.8388 310.998 97.5005C308.653 98.1402 306.095 97.3885 303.723 95.8992C298.966 92.9115 294.093 86.4474 291.071 78.0844L293.893 77.0651ZM306.398 60.2522C304.959 63.9785 302.828 67.9101 300.513 71.2441C298.225 74.5389 295.646 77.4134 293.259 78.8581L291.706 76.2914C293.543 75.1795 295.83 72.7279 298.049 69.5331C300.24 66.3774 302.254 62.6558 303.6 59.1713L306.398 60.2522Z" fill="#231F20" mask="url(#path-44-inside-5_6_838)"></path> <path d="M209.052 127.668L233.342 137.824L219.068 171.835L174.284 148.9L183.461 136.235L194.292 122.747L209.052 127.668Z" fill="white"></path> <path d="M173.392 148.96L219.83 171.072L234.104 137.06L209.814 126.904L195.054 121.983" stroke="#231F20" stroke-width="1.5"></path> <path d="M220.071 132.25L192.414 121.835" stroke="#231F20" stroke-width="1.5" stroke-linecap="round" stroke-linejoin="round"></path> <path d="M258.569 148.136C262.705 150.128 266.415 152.596 269.279 156.163" stroke="#231F20" stroke-width="1.5" stroke-linecap="round" stroke-linejoin="round"></path> <path d="M253.65 180.872L254.929 170.492" stroke="#231F20" stroke-width="1.5" stroke-linecap="round" stroke-linejoin="round"></path> <path d="M258.029 178.232L261.239 167.968" stroke="#231F20" stroke-width="1.5" stroke-linecap="round" stroke-linejoin="round"></path> <path d="M262.762 175.535L268.212 164.8" stroke="#231F20" stroke-width="1.5" stroke-linecap="round" stroke-linejoin="round"></path> <path d="M333.739 59.4412C333.57 60.1598 333.801 60.8293 334.255 60.9363C334.71 61.0434 335.215 60.5477 335.385 59.8291C335.554 59.1104 335.323 58.441 334.869 58.3339C334.414 58.2268 333.909 58.7225 333.739 59.4412Z" fill="#231F20"></path> <path d="M323.498 55.7205C323.328 56.4391 323.56 57.1086 324.014 57.2157C324.468 57.3227 324.974 56.827 325.144 56.1084C325.313 55.3897 325.082 54.7203 324.628 54.6132C324.173 54.5061 323.667 55.0018 323.498 55.7205Z" fill="#231F20"></path> <path d="M322.818 53.2943C322.017 53.0292 321.206 52.683 320.649 52.0499C320.472 51.8686 320.352 51.6395 320.305 51.3909C320.227 50.8093 320.763 50.3265 321.301 50.0908C322.683 49.4844 324.307 49.7572 325.697 50.3461C326.561 50.6939 327.351 51.2021 328.026 51.8441C328.347 52.1357 328.592 52.5006 328.741 52.9075C328.813 53.1115 328.833 53.3301 328.801 53.544C328.769 53.7579 328.685 53.9606 328.556 54.1345C327.927 54.8946 326.951 54.6931 326.191 54.3768C325.098 53.9221 323.939 53.6655 322.818 53.2943Z" fill="#231F20"></path> <path d="M332.417 56.7207C332.938 57.3117 333.695 57.6351 334.442 57.8839C335.238 58.1473 336.054 58.349 336.849 58.6177C338.931 58.7908 339.667 57.2039 338.07 55.5951C337.768 55.4202 337.455 55.2644 337.133 55.1286C335.834 54.5791 334.318 54.3243 333.026 54.89C332.523 55.1104 332.023 55.5622 332.095 56.105C332.139 56.3374 332.251 56.5515 332.417 56.7207V56.7207Z" fill="#231F20"></path> <path d="M309.911 68.9121L316.148 83.5397L316.15 83.5393L320.072 77.1878C318.158 76.4603 314.874 73.8435 309.911 68.9121Z" fill="#231F20"></path> <path d="M325.23 67.5585C323.039 67.3352 321.139 65.0462 320.95 62.4014" stroke="#231F20" stroke-width="1.5" stroke-linecap="round" stroke-linejoin="round"></path> <path d="M341.049 53.3905C340.669 53.3914 340.287 53.3622 339.926 53.3365C338.65 53.2618 337.433 52.7773 336.455 51.9551C335.232 50.898 334.159 49.6793 333.265 48.3325C333.103 49.0977 332.247 49.5573 331.466 49.5206C330.684 49.4839 329.974 49.071 329.327 48.63C327.335 47.2164 325.64 45.425 324.338 43.3577C324.584 43.8151 324.661 44.3441 324.557 44.8526C324.453 45.3612 324.173 45.8171 323.768 46.1412C323.362 46.4652 322.856 46.6369 322.337 46.6262C321.818 46.6156 321.319 46.4234 320.927 46.083C320.542 47.8279 319.862 49.6125 319.212 51.3044C319.038 51.8158 318.799 52.3026 318.5 52.7528C318.085 53.3054 317.51 53.7175 316.853 53.9337C316.197 54.15 315.49 54.16 314.827 53.9623C314.653 53.8924 314.47 53.8461 314.284 53.8247C313.493 53.7925 312.792 54.4928 312.022 54.5775C310.895 54.7015 309.67 54.2005 308.735 53.6161C309.142 53.8704 307.129 57.9266 306.896 58.3588C306.16 59.7258 305.28 61.2476 304.02 62.1978C302.602 57.7257 302.796 52.9244 303.004 48.2376C303.1 46.0654 303.755 43.9051 304.315 41.8039C305.062 38.994 305.364 35.7737 307.947 33.9781C308.701 33.4605 309.555 33.1046 310.454 32.933C311.352 32.7614 312.277 32.7777 313.169 32.9809C313.535 33.0977 313.916 33.1588 314.3 33.1621C314.72 33.099 315.123 32.9516 315.484 32.7287C317.759 31.5497 320.291 30.6923 322.845 30.895C323.985 31.0136 325.109 31.2588 326.195 31.6263C330.327 32.9139 334.328 34.8623 337.613 37.7117C340.928 40.5864 343.955 43.8401 347.043 46.9764C347.702 47.6517 348.412 48.5936 348.001 49.4426C347.696 50.0741 346.908 50.2922 346.208 50.3441C345.127 50.4235 344.041 50.2743 343.021 49.9061C343.865 50.384 343.989 51.6725 343.406 52.4474C342.825 53.2197 341.943 53.3884 341.049 53.3905Z" fill="#231F20"></path> <path d="M300.832 55.3702C299.297 51.1112 301.506 46.4149 305.766 44.8806C310.026 43.3463 314.723 45.555 316.258 49.8139C317.792 54.0728 315.583 58.7692 311.323 60.3035C307.064 61.8378 302.367 59.6291 300.832 55.3702Z" fill="white"></path> <path d="M314.06 54.4389C314.55 52.9766 314.439 51.3795 313.751 49.9991C313.063 48.6187 311.855 47.5681 310.392 47.0784C308.93 46.5886 307.332 46.6998 305.952 47.3876C304.571 48.0753 303.52 49.2833 303.03 50.7457" stroke="#231F20" stroke-width="1.5" stroke-linecap="round" stroke-linejoin="round"></path> <path d="M313.084 48.959L311.047 55.8426" stroke="#231F20" stroke-width="1.5" stroke-linecap="round" stroke-linejoin="round"></path> <path d="M332.095 56.1045L329.723 61.4148C330.964 63.0991 331.203 64.1978 327.642 65.0327" stroke="#231F20" stroke-width="1.5" stroke-linecap="round" stroke-linejoin="round"></path> <path d="M321.81 85.2354L321.363 81.251C316.778 83.3341 317.533 83.8449 314.332 83.2281L310.153 96.1562C316.745 96.3232 321.391 86.244 321.81 85.2354Z" fill="white"></path> <path d="M311.42 82.3654L310.152 96.1558C300.345 97.6142 295.236 89.365 292.483 77.5738L295.783 70.4951C299.881 77.9098 304.703 83.0786 311.42 82.3654Z" fill="white"></path> <path d="M279.331 292.133C279.26 292.196 279.189 292.258 279.118 292.32C279.985 299.941 282.158 305.602 285.76 309.124C289.362 312.646 294.518 314.147 301.617 313.147L307.52 309.252L286.933 285.208C284.447 287.555 281.915 289.871 279.331 292.133Z" fill="#7027E2" stroke="#231F20" stroke-width="1.5"></path> <path d="M298.251 317.604L298.23 317.141L298.635 316.916L301.25 315.458C301.381 315.385 301.489 315.275 301.56 315.143C301.631 315.01 301.662 314.86 301.651 314.711C301.639 314.561 301.585 314.418 301.494 314.298C301.403 314.178 301.28 314.087 301.139 314.035L301.139 314.035L290.412 310.078L289.977 309.918L289.926 309.458L288.012 292.397C287.921 291.585 287.642 290.805 287.197 290.12C286.752 289.434 286.153 288.862 285.448 288.449C284.743 288.035 283.951 287.791 283.136 287.737C282.339 287.684 281.54 287.813 280.801 288.115C279.942 288.641 279.049 289.11 278.129 289.521L278.074 289.545L278.016 289.561C273.123 290.86 269.859 291.892 267.669 292.836C267.036 293.28 266.639 293.702 266.378 294.12C266.11 294.549 265.96 295.013 265.873 295.567L265.873 295.568C265.099 300.445 265.993 304.983 268.483 308.456C271.338 311.972 273.201 316.926 274.199 321.5C274.701 323.799 274.989 326.024 275.072 327.956C275.15 329.774 275.049 331.38 274.743 332.55C277.751 347.027 283.161 357.795 289.709 366.807L289.711 366.81C290.67 368.143 291.998 369.168 293.531 369.758C295.408 370.468 297.025 370.63 298.402 370.299L298.406 370.298C298.67 370.236 298.929 370.154 299.181 370.052C299.896 369.754 300.514 369.262 300.965 368.632C301.417 368 301.683 367.256 301.734 366.481L301.734 366.477C302.152 360.591 301.25 354.029 299.572 347.05L299.555 346.98L299.552 346.908L298.313 318.991L298.313 318.991L298.251 317.604Z" fill="white" stroke="black" stroke-width="1.5"></path> <path d="M262.705 296.744C261.905 301.787 262.824 306.541 265.46 310.206C270.978 316.985 272.791 329.55 271.545 333.819C274.568 348.498 280.041 359.411 286.675 368.542C287.72 369.994 289.166 371.11 290.836 371.752C293.191 372.644 295.264 372.755 297.037 372.037C297.611 371.805 298.135 371.462 298.577 371.028C297.01 371.404 295.235 371.204 293.263 370.458C291.593 369.816 290.146 368.7 289.102 367.248C282.469 358.119 276.994 347.204 273.971 332.525C275.217 328.256 273.405 315.691 267.886 308.912C265.25 305.247 264.331 300.493 265.131 295.45C265.328 294.2 265.838 293.183 267.301 292.177C263.899 293.658 262.986 294.963 262.705 296.744Z" fill="#231F20"></path> <path d="M296.564 317.346C300.447 319.526 304.3 321.772 308.023 324.218C310.361 325.753 315.663 327.895 313.768 331.573C311.986 335.033 308.361 332.84 306.504 330.872C302.771 326.916 299.494 322.358 296.564 317.346Z" stroke="#231F20" stroke-width="1.5" stroke-linecap="round" stroke-linejoin="round"></path> <path d="M296.291 317.408C297.442 321.71 298.525 326.035 299.374 330.408C299.908 333.153 302.078 338.443 298.122 339.656C294.4 340.797 293.439 336.671 293.55 333.968C293.774 328.534 294.749 323.006 296.291 317.408Z" stroke="#231F20" stroke-width="1.5" stroke-linecap="round" stroke-linejoin="round"></path> <path d="M282.817 308.837L296.29 317.409L282.498 313.132" stroke="#231F20" stroke-width="1.5" stroke-linecap="round" stroke-linejoin="round"></path> <path d="M108.254 339.64C108.21 343.994 110.62 348.148 116.904 351.94L132.147 347.834L125.938 318.385C122.397 320.544 118.848 322.732 115.292 324.951C110.936 330.228 108.3 335.159 108.254 339.64Z" fill="#7027E2" stroke="#231F20" stroke-width="1.5"></path> <path d="M123.644 350.64L123.826 350.214L124.288 350.186L127.277 350.008C127.427 349.999 127.571 349.947 127.693 349.859C127.814 349.77 127.908 349.649 127.963 349.509C128.017 349.369 128.03 349.216 128.001 349.069C127.971 348.921 127.9 348.786 127.795 348.678L127.795 348.678L119.849 340.457L119.527 340.124L119.681 339.687L125.364 323.488C125.635 322.717 125.722 321.893 125.619 321.082C125.515 320.272 125.224 319.496 124.769 318.818C124.313 318.139 123.706 317.576 122.995 317.173C122.3 316.78 121.524 316.549 120.727 316.5C119.725 316.601 118.717 316.637 117.71 316.607L117.65 316.605L117.591 316.594C112.619 315.641 109.231 315.154 106.847 315.053C106.085 315.178 105.544 315.387 105.127 315.65C104.7 315.92 104.363 316.273 104.044 316.734L104.043 316.735C101.229 320.793 100.064 325.269 100.799 329.479C101.844 333.885 101.371 339.156 100.285 343.71C99.7386 345.999 99.0322 348.129 98.2684 349.905C97.5494 351.577 96.7603 352.98 95.977 353.901C92.4005 368.248 92.5992 380.296 94.5856 391.257L94.5863 391.261C94.8712 392.878 95.6223 394.378 96.7473 395.574C98.1303 397.029 99.516 397.876 100.901 398.176L100.904 398.177C101.169 398.236 101.438 398.274 101.709 398.292C102.483 398.333 103.253 398.158 103.933 397.786C104.614 397.414 105.178 396.858 105.56 396.182L105.562 396.179C108.494 391.058 110.53 384.755 112.048 377.74L112.064 377.669L112.092 377.603L123.097 351.916L123.097 351.916L123.644 350.64Z" fill="white" stroke="black" stroke-width="1.5"></path> <path d="M100.678 316.42C97.7681 320.616 96.5318 325.297 97.315 329.743C99.343 338.245 95.5205 350.352 92.5444 353.656C88.8946 368.192 89.0866 380.399 91.0988 391.504C91.4092 393.266 92.2277 394.899 93.4536 396.202C95.1877 398.027 97.0073 399.027 98.9155 399.15C99.5339 399.19 100.154 399.109 100.741 398.909C99.1661 398.568 97.6537 397.617 96.2015 396.09C94.9756 394.786 94.1571 393.153 93.8467 391.391C91.8347 380.289 91.6425 368.08 95.2924 353.544C98.2684 350.239 102.091 338.133 100.063 329.631C99.2796 325.185 100.516 320.503 103.426 316.308C104.146 315.267 105.047 314.573 106.802 314.301C103.094 314.158 101.704 314.938 100.678 316.42Z" fill="#231F20"></path> <path d="M122.237 349.675C124.788 353.325 127.284 357.02 129.577 360.839C131.016 363.237 134.862 367.468 131.559 369.959C128.451 372.302 126.138 368.753 125.319 366.175C123.673 360.99 122.701 355.462 122.237 349.675Z" stroke="#231F20" stroke-width="1.5" stroke-linecap="round" stroke-linejoin="round"></path> <path d="M121.962 349.613C121.131 353.988 120.229 358.355 119.096 362.662C118.384 365.367 118.042 371.074 113.952 370.45C110.104 369.862 111.029 365.729 112.303 363.342C114.865 358.544 118.143 353.987 121.962 349.613Z" stroke="#231F20" stroke-width="1.5" stroke-linecap="round" stroke-linejoin="round"></path> <path d="M113.547 336.043L121.962 349.613L111.394 339.774" stroke="#231F20" stroke-width="1.5" stroke-linecap="round" stroke-linejoin="round"></path> <path d="M247.229 122.447C261.735 112.378 271.861 98.5773 275.119 78.9248" stroke="#231F20" stroke-width="1.5" stroke-linecap="round" stroke-linejoin="round"></path> <path d="M314.332 83.2279L318.844 92.2251C321.235 90.0959 321.586 85.9569 321.363 81.251" stroke="#231F20" stroke-width="1.5" stroke-linecap="round" stroke-linejoin="round"></path> <path d="M311.42 82.3658L303.393 92.8218C298.637 90.6336 295.244 84.9222 292.483 77.5742" stroke="#231F20" stroke-width="1.5" stroke-linecap="round" stroke-linejoin="round"></path> <path d="M500.443 225.175L516.401 241.13" stroke="#00A460" stroke-width="1.5" stroke-linecap="round" stroke-linejoin="round"></path> <path d="M500.443 241.13L516.401 225.175" stroke="#00A460" stroke-width="1.5" stroke-linecap="round" stroke-linejoin="round"></path> <path d="M252.893 24.4238L260.059 31.5884" stroke="#00A460" stroke-width="1.5" stroke-linecap="round" stroke-linejoin="round"></path> <path d="M252.893 31.5884L260.059 24.4238" stroke="#00A460" stroke-width="1.5" stroke-linecap="round" stroke-linejoin="round"></path> <path d="M104.569 231.678L121.916 242.12" stroke="#7027E2" stroke-width="1.5" stroke-linecap="round" stroke-linejoin="round"></path> <path d="M108.02 245.571L118.465 228.227" stroke="#7027E2" stroke-width="1.5" stroke-linecap="round" stroke-linejoin="round"></path> <path d="M366.793 341.745C366.793 343.358 367.417 344.715 369.698 344.715C371.303 344.715 372.603 343.358 372.603 341.745C372.603 340.133 371.303 338.827 369.698 338.827C368.093 338.827 366.793 340.133 366.793 341.745Z" fill="#00A460"></path> <path d="M103.808 183.854C103.808 185.466 104.432 186.823 106.713 186.823C108.318 186.823 109.617 185.466 109.617 183.854C109.617 182.241 108.318 180.936 106.713 180.936C105.107 180.936 103.808 182.241 103.808 183.854Z" fill="#7027E2"></path> <path d="M132.977 196.167C127.871 196.882 122.77 197.636 117.664 198.351C116.298 198.547 115.997 196.422 117.363 196.225C122.469 195.51 127.57 194.757 132.676 194.042C134.042 193.845 134.343 195.971 132.977 196.167Z" fill="#475DEB"></path> <path d="M409.538 285.683C415.313 282.354 421.063 278.982 426.837 275.653C428.38 274.756 429.77 277.158 428.227 278.055C422.453 281.384 416.703 284.756 410.928 288.085C409.385 288.982 407.995 286.58 409.538 285.683Z" fill="#00A460"></path> <path d="M422.75 232.38C428.513 235.73 434.301 239.036 440.064 242.386C441.61 243.277 440.219 245.679 438.673 244.788C432.91 241.438 427.122 238.131 421.36 234.782C419.814 233.891 421.204 231.489 422.75 232.38Z" fill="#7027E2"></path> <path d="M273.754 130.244L296.187 125.77L301.64 146.119L280.619 151.751L273.754 130.244Z" fill="white"></path> <path d="M302.12 145.989L296.668 125.64C296.601 125.39 296.346 125.226 296.092 125.283L273.659 129.757C273.514 129.784 273.397 129.874 273.325 129.998C273.253 130.122 273.219 130.259 273.282 130.405L280.135 151.915C280.216 152.173 280.476 152.313 280.738 152.242L301.759 146.61C302.03 146.526 302.19 146.25 302.12 145.989ZM295.825 126.343L301.03 145.769L280.949 151.15L274.408 130.627L295.825 126.343Z" fill="#151517"></path> <path d="M289.933 137.583C289.912 137.507 289.884 137.445 289.82 137.38L285.285 132.264C285.168 132.133 284.989 132.076 284.822 132.109C284.644 132.145 284.501 132.265 284.44 132.432L281.945 139.432C281.851 139.69 281.987 139.98 282.243 140.062C282.503 140.156 282.794 140.019 282.878 139.764L285.083 133.564L289.059 138.038C289.243 138.245 289.553 138.266 289.762 138.082C289.927 137.957 289.979 137.757 289.933 137.583Z" fill="#151517"></path> <path d="M290.889 138.92C290.868 138.844 290.823 138.763 290.759 138.699C290.567 138.506 290.248 138.498 290.057 138.701L283.138 145.501C282.944 145.693 282.946 146.007 283.138 146.2C283.33 146.392 283.649 146.4 283.84 146.198L290.759 139.398C290.888 139.27 290.932 139.083 290.889 138.92Z" fill="#151517"></path> <path d="M302.428 79.4872C304.869 81.928 309.548 82.5382 311.582 82.5382C302.734 82.8433 297.47 74.5292 295.945 70.334M299.377 70.334H295.945M295.945 70.334L292.131 77.5803M314.251 83.301C315.268 83.9366 318.141 84.3689 321.498 81.0127L318.065 78.343" stroke="#231F20" stroke-width="1.5"></path> <path d="M314.633 83.3018L309.675 97.0316L311.201 82.5391" stroke="#231F20" stroke-width="1.5"></path> <path d="M305.479 60.4187C303.954 59.656 300.826 58.8169 300.521 53.9352C300.14 47.8331 304.716 43.2565 311.2 44.782C316.387 46.0024 318.065 49.4858 317.683 52.0283" stroke="#231F20" stroke-width="1.5" stroke-linecap="square"></path> <circle cx="65.6695" cy="103.897" r="10.6915" stroke="#7027E2" stroke-width="1.5"></circle> <circle cx="99.2315" cy="103.897" r="10.6915" stroke="#7027E2" stroke-width="1.5"></circle> <circle cx="132.794" cy="103.897" r="10.6915" stroke="#7027E2" stroke-width="1.5"></circle> </svg> 