<svg xmlns="http://www.w3.org/2000/svg" width="2563" height="1758" viewBox="0 0 2563 1758" version="1.1"><path d="M 1109.802 514.343 C 1015.917 534.779, 939.417 551.798, 939.802 552.163 C 940.186 552.527, 949.375 556.518, 960.221 561.032 C 978.602 568.681, 979.870 569.374, 978.879 571.227 C 978.293 572.320, 978.194 573.561, 978.657 573.983 C 980.558 575.716, 996.351 580.120, 1009 582.444 C 1031.424 586.563, 1051.821 593.413, 1077.274 605.373 C 1083.518 608.307, 1090.344 611.030, 1092.442 611.423 C 1099.086 612.670, 1106.287 616.470, 1126.158 629.214 C 1136.796 636.037, 1149.142 643.774, 1153.594 646.408 C 1168.675 655.329, 1175.004 662.516, 1174.996 670.710 C 1174.992 675.478, 1172.035 680.413, 1167.906 682.549 C 1164.273 684.427, 1152.632 684.707, 1147.051 683.050 C 1143.467 681.985, 1142.049 682.792, 1142.015 685.914 C 1141.997 687.588, 1126.944 719.042, 1122.308 727.095 C 1117.014 736.289, 1106.874 743.920, 1099.872 743.978 C 1098.427 743.990, 1096.627 744.752, 1095.872 745.671 C 1093.789 748.207, 1085.853 753, 1083.737 753 C 1082.708 753, 1079.189 755.587, 1075.917 758.750 C 1072.645 761.913, 1068.116 765.400, 1065.853 766.500 C 1062.219 768.266, 1061.531 769.175, 1059.970 774.273 C 1057.779 781.430, 1054.221 786.200, 1048.635 789.474 C 1038.675 795.310, 1028.798 792.921, 1024.027 783.521 C 1021.569 778.678, 1021.503 778.009, 1021.592 759.021 C 1021.657 745.101, 1022.156 737.225, 1023.328 731.570 C 1024.233 727.208, 1024.866 723.568, 1024.736 723.481 C 1024.606 723.394, 1019.728 720.786, 1013.895 717.685 C 1001.236 710.955, 987.954 702.350, 975 692.487 L 965.500 685.253 950.165 681.545 C 941.731 679.505, 934.628 678.039, 934.380 678.287 C 933.930 678.736, 918 716.143, 918 716.750 C 918 716.926, 916.987 716.528, 915.750 715.866 C 914.513 715.204, 913.275 714.686, 913 714.715 C 912.725 714.744, 908.112 712.566, 902.750 709.875 C 897.388 707.184, 893 705.218, 893 705.508 C 893 705.797, 890.705 704.871, 887.901 703.450 C 885.096 702.028, 882.602 701.065, 882.359 701.308 C 881.857 701.810, 908.759 823.093, 909.547 823.880 C 910.148 824.482, 1304.695 770.780, 1306.146 769.899 C 1306.779 769.515, 1302.609 717.419, 1294.568 625.262 C 1287.656 546.042, 1282 480.275, 1282 479.113 C 1282 477.951, 1281.662 477.042, 1281.250 477.093 C 1280.838 477.144, 1203.686 493.906, 1109.802 514.343 M 1185.507 531.324 C 1148.851 538.695, 1139.451 540.899, 1139.204 542.180 C 1138.697 544.812, 1167.267 633.165, 1168.817 633.760 C 1170.434 634.380, 1257.006 611.394, 1258.436 609.964 C 1259.042 609.358, 1255.178 593.230, 1247.844 565.755 C 1236.811 524.424, 1236.191 522.491, 1233.899 522.288 C 1232.579 522.171, 1210.803 526.238, 1185.507 531.324 M 1186.101 535.581 C 1163.331 540.193, 1144.515 544.152, 1144.287 544.380 C 1143.730 544.937, 1169.943 627.254, 1171.044 628.405 C 1171.910 629.310, 1251.686 608.574, 1253.339 607.014 C 1253.800 606.579, 1250.052 590.760, 1245.010 571.861 C 1231.857 522.558, 1233.324 526.983, 1230.179 527.099 C 1228.706 527.153, 1208.870 530.970, 1186.101 535.581 M 1185.128 552.250 C 1174.966 580.035, 1173.750 584.898, 1177.251 583.760 C 1177.938 583.537, 1180.545 577.667, 1183.044 570.716 C 1185.544 563.765, 1187.820 557.846, 1188.104 557.563 C 1188.387 557.279, 1192.368 561.328, 1196.949 566.561 C 1204.907 575.650, 1207.147 577.153, 1207.790 573.838 C 1208.170 571.883, 1188.999 550, 1186.907 550 C 1186.381 550, 1185.580 551.013, 1185.128 552.250 M 1194.162 592.027 C 1185.726 600.246, 1179.004 607.511, 1179.224 608.172 C 1180.257 611.272, 1183.174 609.182, 1197.096 595.371 C 1210.696 581.880, 1213.420 578.223, 1210.500 577.375 C 1209.950 577.216, 1202.598 583.809, 1194.162 592.027 M 1177.698 683.781 C 1175.443 686.273, 1175.545 690.278, 1177.918 692.425 C 1180.497 694.760, 1183.859 694.091, 1186.345 690.750 L 1188.391 688 1186.346 685.250 C 1183.841 681.880, 1180.008 681.229, 1177.698 683.781 M 1167 1205.376 C 1163.425 1207.240, 1156.900 1209.754, 1152.500 1210.964 C 1148.100 1212.173, 1138.364 1215.185, 1130.864 1217.658 C 1111.634 1223.997, 1110.119 1225.988, 1110.061 1245 C 1110.012 1260.900, 1113.608 1271.945, 1123.346 1285.805 C 1133.625 1300.433, 1140.525 1316.797, 1145.601 1338.579 C 1148.063 1349.148, 1148.407 1352.729, 1148.627 1370.148 C 1148.866 1389.148, 1148.996 1390.269, 1152.571 1404.148 C 1160.019 1433.071, 1172.164 1464.158, 1185.095 1487.400 C 1193.289 1502.130, 1209.099 1526.032, 1213.669 1530.602 C 1221.952 1538.885, 1238.569 1542.618, 1246.732 1538.030 C 1253.900 1534.002, 1254.511 1531.934, 1254.422 1512 C 1254.338 1493.120, 1252.907 1481.109, 1247.938 1457.592 C 1246.179 1449.264, 1244.997 1440.638, 1244.991 1436.092 C 1244.987 1431.916, 1244.707 1426.210, 1244.371 1423.410 L 1243.759 1418.321 1238.117 1418.398 C 1228.558 1418.527, 1223.470 1413.023, 1220.972 1399.850 C 1219.147 1390.227, 1222.854 1358.515, 1228.558 1334.959 C 1229.923 1329.320, 1230.868 1324.535, 1230.659 1324.325 C 1230.449 1324.116, 1217.983 1320.138, 1202.957 1315.487 C 1187.930 1310.835, 1175.310 1306.501, 1174.911 1305.855 C 1173.757 1303.989, 1175.023 1301.999, 1177.357 1302.011 C 1178.536 1302.017, 1186.669 1304.261, 1195.431 1306.997 C 1204.192 1309.733, 1211.515 1311.818, 1211.703 1311.630 C 1211.891 1311.442, 1203.938 1306.161, 1194.029 1299.894 C 1179.407 1290.647, 1176.012 1288.076, 1176.006 1286.250 C 1176.002 1284.618, 1176.586 1284, 1178.132 1284 C 1179.305 1284, 1192.592 1291.860, 1207.659 1301.466 C 1222.726 1311.073, 1236.054 1319.060, 1237.277 1319.216 C 1240.052 1319.570, 1254.419 1311.877, 1252.823 1310.891 C 1252.195 1310.502, 1241.409 1306.430, 1228.855 1301.842 C 1206.675 1293.736, 1206.013 1293.415, 1205.490 1290.500 C 1205.193 1288.850, 1203.158 1271.319, 1200.966 1251.543 C 1196.625 1212.379, 1196.278 1210.969, 1189.642 1205.598 C 1186.554 1203.099, 1184.875 1202.539, 1179.713 1202.288 C 1174.273 1202.024, 1172.692 1202.408, 1167 1205.376 M 540.771 1320.327 C 534.320 1324.272, 529.033 1328.130, 529.021 1328.899 C 528.998 1330.458, 552.873 1444.206, 553.317 1444.650 C 553.590 1444.923, 599.146 1432.922, 599.854 1432.391 C 600.049 1432.245, 595.885 1419.159, 590.601 1403.313 C 583.389 1381.683, 577.646 1366.902, 567.562 1344.022 C 560.174 1327.259, 553.763 1313.456, 553.315 1313.349 C 552.867 1313.242, 547.222 1316.382, 540.771 1320.327 M 440.216 1317.161 C 437.224 1318.700, 429.748 1330.773, 426.586 1339.176 C 425.209 1342.834, 423.535 1349.612, 422.866 1354.239 C 421.817 1361.494, 421.892 1364.128, 423.412 1373.389 C 428.581 1404.889, 421.379 1445.401, 406.072 1470.931 C 402.924 1476.181, 401.606 1480.010, 399.509 1490 C 391.242 1529.371, 389.325 1566.805, 393.620 1605 C 396.752 1632.847, 399.303 1640.538, 407.966 1648.244 C 414.405 1653.971, 420.146 1656.337, 426.196 1655.755 C 433.151 1655.087, 436.187 1651.795, 443.031 1637.500 C 450.236 1622.450, 455.791 1606.557, 460.540 1587.407 C 462.756 1578.473, 466.393 1567.416, 469.619 1559.810 C 472.578 1552.831, 475 1546.939, 475 1546.718 C 475 1546.497, 473.294 1545.805, 471.208 1545.181 C 463.219 1542.787, 459.177 1534.766, 460.985 1524.890 C 462.946 1514.176, 477.654 1489.413, 494.475 1468.502 C 499.023 1462.848, 503.002 1457.806, 503.317 1457.296 C 503.631 1456.787, 494.482 1447.658, 482.984 1437.009 C 471.486 1426.360, 461.834 1417.011, 461.536 1416.233 C 460.753 1414.192, 461.795 1412.994, 464.309 1413.043 C 465.705 1413.071, 471.038 1417.396, 479 1424.959 C 485.875 1431.489, 491.641 1436.691, 491.813 1436.520 C 491.985 1436.348, 487.137 1428.124, 481.041 1418.243 C 469.952 1400.273, 468.550 1396.484, 473.250 1397.197 C 474.656 1397.411, 480.307 1405.665, 492.413 1425.190 C 501.856 1440.419, 510.347 1453.726, 511.283 1454.760 C 512.798 1456.434, 513.781 1456.549, 520.242 1455.809 C 524.234 1455.352, 528.151 1454.869, 528.946 1454.736 C 529.779 1454.596, 522.894 1446.815, 512.696 1436.369 C 502.963 1426.401, 495 1417.920, 495 1417.524 C 495 1417.127, 500.732 1400.535, 507.737 1380.652 C 521.846 1340.605, 522.263 1338.538, 517.778 1330.884 C 513.884 1324.239, 509.135 1322.004, 498.864 1321.982 C 494.264 1321.972, 484.200 1320.843, 476.500 1319.473 C 459.768 1316.497, 443.522 1315.461, 440.216 1317.161 M 1232.631 1343.957 C 1229.577 1358.167, 1226.877 1379.228, 1226.729 1390 C 1226.565 1401.834, 1228.593 1408.377, 1233.402 1411.528 C 1235.975 1413.214, 1242.282 1412.971, 1243.412 1411.142 C 1243.678 1410.713, 1243.446 1400.042, 1242.898 1387.431 C 1242.044 1367.788, 1241.462 1362.564, 1238.845 1351 C 1237.164 1343.575, 1235.466 1337.151, 1235.070 1336.726 C 1234.675 1336.300, 1233.577 1339.554, 1232.631 1343.957 M 494.248 1478.757 C 484.403 1491.817, 475.031 1506.621, 470.295 1516.594 C 464.423 1528.960, 465.725 1538.107, 473.567 1539.579 C 475.537 1539.948, 477.494 1539.857, 477.914 1539.375 C 478.335 1538.894, 482.803 1528.825, 487.843 1517 C 495.254 1499.613, 497.572 1492.925, 499.961 1482.041 C 501.585 1474.638, 502.787 1468.454, 502.631 1468.297 C 502.474 1468.141, 498.702 1472.848, 494.248 1478.757" stroke="none" fill="#fb7450" fill-rule="evenodd"/><path d="M 1388.667 1.667 C 1386.196 4.138, 1388.884 6.584, 1408.268 19.502 L 1428.535 33.009 1422.671 39.255 C 1402.549 60.684, 1388.824 88.002, 1380.517 123.159 L 1377.785 134.719 1370.313 132.347 C 1352.779 126.778, 1331.250 127.044, 1312.467 133.061 C 1307.421 134.678, 1301.509 136, 1299.328 136 C 1289.593 136, 1279.067 142.015, 1275.078 149.857 C 1274.059 151.861, 1272.311 156.425, 1271.194 160 C 1270.077 163.575, 1267.593 169.875, 1265.673 174 C 1263.753 178.125, 1261.532 184.001, 1260.736 187.059 C 1259.941 190.116, 1257.862 194.589, 1256.116 196.999 C 1244.694 212.766, 1247.612 242.056, 1261.363 249.674 C 1263.099 250.635, 1262.802 251.539, 1257.050 262.823 C 1253.652 269.487, 1248.660 278.328, 1245.956 282.469 C 1241.184 289.780, 1240.923 290, 1237.020 290 C 1234.809 290, 1233 290.436, 1233 290.969 C 1233 291.501, 1232.368 291.695, 1231.596 291.399 C 1230.609 291.020, 1228.344 294.436, 1223.954 302.930 C 1220.240 310.116, 1217.116 315, 1216.234 315 C 1215.420 315, 1202.546 311.893, 1187.627 308.096 C 1152.293 299.104, 1148.645 298.558, 1124 298.571 C 1101.523 298.584, 1090.838 299.859, 1069.213 305.110 C 1045.886 310.774, 1016.696 322.417, 997.405 333.751 C 994.707 335.336, 929.406 365.340, 852.292 400.426 C 775.177 435.513, 709.294 465.858, 705.884 467.860 C 687.008 478.944, 671.216 501.039, 665.304 524.637 C 662.949 534.037, 662.963 557.765, 665.328 567.353 C 672.467 596.291, 692.632 620.107, 719.343 631.149 C 727.415 634.486, 730.192 634.828, 734.500 633.020 C 737.359 631.820, 738.970 632.458, 768.750 646.568 C 785.938 654.712, 800 661.702, 800 662.102 C 800 662.501, 794.038 667.315, 786.750 672.799 C 758.233 694.259, 726.971 722.769, 703.227 748.969 C 673.687 781.565, 643.147 825.700, 625.014 862 C 622.678 866.675, 620.612 870.670, 620.423 870.878 C 620.233 871.085, 612.073 872.520, 602.289 874.065 C 436.507 900.251, 289.612 969.708, 183.701 1071.988 C 131.968 1121.947, 83.728 1188.575, 47.577 1260 C 41.314 1272.375, 33.221 1289.132, 29.594 1297.237 C 16.520 1326.453, 1.620 1365.847, 2.640 1368.504 C 3.026 1369.510, 4.171 1369.995, 5.709 1369.804 C 7.932 1369.529, 8.940 1367.429, 16.413 1347.500 C 28.281 1315.853, 35.608 1299.089, 51.162 1268 C 78.608 1213.141, 108.268 1167.555, 145.262 1123.371 C 243.361 1006.206, 388.866 924.081, 562.068 888.119 C 578.239 884.761, 611.630 879, 614.920 879 C 617.031 879, 617.031 879.006, 614.633 883.750 C 610.932 891.074, 601.658 915.113, 597.177 929 C 583.116 972.573, 577.183 1011.018, 570.015 1105 C 568.358 1126.725, 566.730 1146.986, 566.398 1150.023 L 565.793 1155.547 552.646 1158.900 C 534.822 1163.448, 499.191 1175.242, 478.500 1183.444 C 421.789 1205.924, 377.264 1234.711, 336.940 1274.968 C 305.257 1306.598, 283.501 1336.232, 263.868 1374.500 C 251.297 1399.001, 238.253 1432.070, 239.548 1436.152 C 239.907 1437.282, 241.080 1438, 242.567 1438 C 243.905 1438, 245 1437.880, 245 1437.734 C 245 1436.720, 254.423 1410.810, 257.451 1403.500 C 262.939 1390.249, 277.011 1363.056, 284.745 1350.758 C 309.039 1312.126, 338.296 1279.272, 373.500 1251.089 C 411.772 1220.451, 451.292 1199.485, 508.525 1179.454 C 523.059 1174.368, 561.354 1163, 563.955 1163 C 565.450 1163, 565.145 1166.810, 561.397 1195 C 558.492 1216.846, 553.503 1242.229, 548.423 1261 C 545.035 1273.518, 543.951 1275.727, 540.107 1277.938 C 538.989 1278.581, 538.936 1279.377, 539.838 1281.964 C 540.823 1284.790, 540.528 1286.348, 537.457 1294.548 C 529.794 1315.005, 523.877 1325.278, 520.837 1323.399 C 519.396 1322.509, 519.911 1324.609, 522.490 1330.151 C 524.375 1334.200, 524.983 1337.164, 524.990 1342.347 C 524.999 1348.527, 523.875 1352.398, 513.433 1382.147 C 507.072 1400.271, 502.009 1415.509, 502.183 1416.008 C 502.358 1416.507, 509.362 1424.098, 517.750 1432.877 C 526.137 1441.656, 533 1449.523, 533 1450.360 C 533 1451.197, 533.450 1452.160, 534 1452.500 C 534.550 1452.840, 535 1453.991, 535 1455.059 C 535 1456.127, 535.112 1456.986, 535.250 1456.969 C 535.388 1456.952, 584.325 1443.755, 644 1427.642 C 703.675 1411.529, 752.617 1398.423, 752.761 1398.517 C 753.266 1398.849, 743.789 1425.659, 738.273 1439.500 C 711.981 1505.480, 676.851 1560.886, 633.263 1605.116 C 622.574 1615.963, 620.945 1619.132, 625.711 1619.813 C 627.374 1620.051, 630.585 1617.404, 639.053 1608.813 C 688.851 1558.291, 728.608 1490.927, 756.533 1409.753 L 761.262 1396.007 765.381 1394.920 C 767.646 1394.322, 801.137 1385.321, 839.805 1374.917 C 878.473 1364.512, 910.943 1356, 911.961 1356 C 914.742 1356, 944.237 1366.314, 963.500 1374.023 C 982.042 1381.443, 998.706 1388.560, 1032.500 1403.493 C 1076.695 1423.022, 1110.306 1436.310, 1133.500 1443.424 C 1140.100 1445.448, 1146.030 1447.279, 1146.677 1447.493 C 1148.088 1447.958, 1146.432 1442.213, 1144.619 1440.351 C 1144.003 1439.719, 1139.450 1437.987, 1134.500 1436.502 C 1112.886 1430.018, 1081.274 1417.375, 1026.969 1393.494 C 983.595 1374.421, 963.489 1366.121, 942.099 1358.461 L 924.698 1352.230 930.599 1350.613 C 973.662 1338.818, 1005.114 1321.072, 1033.503 1292.554 C 1044.543 1281.463, 1055.040 1268.340, 1062.943 1255.750 C 1065.273 1252.037, 1067.376 1249, 1067.616 1249 C 1067.856 1249, 1074.116 1253.058, 1081.526 1258.018 C 1095.685 1267.494, 1095.855 1267.524, 1094.414 1260.318 C 1093.931 1257.903, 1091.814 1256.089, 1082.414 1250.031 C 1076.136 1245.986, 1071 1242.509, 1071 1242.305 C 1071 1242.101, 1072.052 1239.811, 1073.338 1237.217 C 1074.624 1234.623, 1095.183 1182.325, 1119.024 1121 C 1142.866 1059.675, 1162.505 1009.322, 1162.666 1009.104 C 1163.110 1008.503, 1169.551 1012.930, 1191.495 1028.915 C 1213.835 1045.190, 1266.279 1085.038, 1269.736 1088.365 L 1271.972 1090.517 1246.486 1114.386 C 1232.469 1127.514, 1221.012 1138.760, 1221.027 1139.377 C 1221.041 1139.995, 1244.366 1166.375, 1272.861 1198 L 1324.668 1255.500 1305.265 1268.250 C 1294.593 1275.262, 1285.525 1281, 1285.114 1281 C 1284.703 1281, 1265.112 1258.478, 1241.578 1230.952 C 1218.045 1203.425, 1198.418 1181.038, 1197.964 1181.202 C 1197.010 1181.547, 1182 1196.015, 1182 1196.590 C 1182 1197.450, 1189.488 1200.027, 1190.670 1199.573 C 1192.594 1198.835, 1198.737 1205.150, 1200.925 1210.115 C 1202.353 1213.355, 1203.943 1224.158, 1207.017 1251.500 C 1209.305 1271.850, 1211.322 1288.647, 1211.499 1288.827 C 1212.156 1289.495, 1246.547 1301.984, 1247.750 1301.992 C 1248.438 1301.996, 1249 1302.569, 1249 1303.265 C 1249 1303.961, 1251.192 1305.309, 1253.872 1306.261 L 1258.743 1307.991 1271.273 1299.517 C 1281.117 1292.859, 1283.930 1291.375, 1284.396 1292.590 C 1284.855 1293.786, 1290.230 1290.585, 1308.125 1278.458 L 1331.261 1262.780 1336.473 1268.608 L 1341.686 1274.436 1344.593 1272.542 C 1346.192 1271.500, 1366.995 1256.997, 1390.823 1240.314 L 1434.146 1209.981 1452.823 1221.886 C 1479.860 1239.120, 1507.013 1254.468, 1535.349 1268.531 C 1549.016 1275.314, 1560.420 1281.086, 1560.691 1281.358 C 1561.393 1282.060, 1544.488 1306.867, 1531.633 1324 C 1480.789 1391.765, 1430.919 1431.993, 1374.149 1451.038 L 1359.798 1455.852 1347.649 1447.227 C 1327.104 1432.641, 1299.298 1412.037, 1274.593 1393.092 C 1261.616 1383.142, 1250.839 1375, 1250.643 1375 C 1250.448 1375, 1250.731 1377.241, 1251.273 1379.981 L 1252.257 1384.962 1276.379 1403.338 C 1302.240 1423.039, 1329.693 1443.336, 1342.254 1452.042 C 1347.227 1455.488, 1349.559 1457.664, 1348.754 1458.107 C 1343.504 1461.003, 1295.821 1465.464, 1280.540 1464.490 C 1276.668 1464.243, 1269.534 1463.802, 1264.686 1463.510 L 1255.872 1462.978 1256.186 1466.239 C 1256.492 1469.418, 1256.651 1469.520, 1262.500 1470.309 C 1265.800 1470.754, 1280.200 1470.909, 1294.500 1470.653 C 1320.529 1470.187, 1330.972 1469.134, 1349.891 1465.066 L 1358.281 1463.262 1379.891 1477.484 C 1483.313 1545.550, 1570.889 1580.954, 1686.740 1601.530 C 1697.523 1603.445, 1706.516 1605.182, 1706.723 1605.390 C 1707.258 1605.925, 1684.575 1625.344, 1671.500 1635.544 C 1657.083 1646.791, 1625.499 1667.902, 1609.748 1676.821 C 1482.606 1748.808, 1337.161 1769.033, 1205.747 1733.001 C 1174.426 1724.413, 1144.320 1712.832, 1081.151 1685.071 C 1006.437 1652.236, 976.567 1641.333, 937.356 1632.582 C 909.215 1626.302, 892.581 1624.592, 859.500 1624.580 C 823.451 1624.566, 801.560 1626.828, 763 1634.552 C 725.111 1642.142, 690.602 1652.013, 610 1678.319 C 582.225 1687.383, 555.606 1695.984, 550.847 1697.431 C 541.921 1700.145, 539.353 1701.872, 540.357 1704.487 C 541.628 1707.800, 543.640 1707.241, 616.500 1683.334 C 737.760 1643.545, 787.651 1632.457, 850.783 1631.267 C 889.666 1630.534, 913.382 1633.169, 948.284 1642.101 C 983.473 1651.106, 1011.337 1661.720, 1086.500 1694.749 C 1179.479 1735.607, 1223.016 1748.510, 1290.500 1755.208 C 1310.495 1757.192, 1367.383 1756.863, 1388.437 1754.640 C 1508.864 1741.929, 1619.470 1693.315, 1706.917 1614.661 C 1712.096 1610.003, 1716.821 1606.359, 1717.417 1606.565 C 1718.013 1606.770, 1729.300 1608.279, 1742.500 1609.918 C 1769.123 1613.224, 1805.546 1616.412, 1834.500 1617.972 C 1858.904 1619.287, 1921.681 1619.288, 1943 1617.974 C 2011.100 1613.776, 2070.111 1601.673, 2122 1581.260 C 2161.557 1565.698, 2195.357 1546.835, 2267 1500.340 C 2330.175 1459.340, 2348.255 1448.600, 2380.500 1432.919 C 2400.381 1423.251, 2422.076 1414.437, 2437.642 1409.704 L 2445.783 1407.229 2446.754 1409.364 C 2447.288 1410.539, 2453.932 1426.800, 2461.519 1445.500 C 2469.106 1464.200, 2475.748 1480.063, 2476.279 1480.750 C 2477.375 1482.168, 2480.618 1482.427, 2481.402 1481.159 C 2481.687 1480.697, 2499.702 1418.741, 2521.435 1343.480 C 2553.576 1232.170, 2560.719 1206.363, 2559.724 1205.148 C 2558.546 1203.711, 2320.610 1085, 2318.906 1085 C 2318.446 1085, 2317.643 1085.798, 2317.121 1086.774 C 2316.400 1088.122, 2318.794 1095.010, 2327.087 1115.440 C 2333.090 1130.230, 2337.867 1142.466, 2337.703 1142.631 C 2337.538 1142.795, 2331.952 1144.499, 2325.289 1146.417 C 2290.910 1156.312, 2261.772 1170.564, 2178.230 1218.344 C 2151.978 1233.359, 2122.845 1249.754, 2113.489 1254.779 C 2043.945 1292.131, 1986.598 1312.702, 1933 1319.521 C 1915.968 1321.688, 1876 1322.762, 1876 1321.053 C 1876 1320.367, 1878 1313.212, 1880.444 1305.153 C 1882.888 1297.094, 1891.864 1265.975, 1900.391 1236 C 1923.093 1156.188, 1935.403 1115.753, 1951.497 1068.124 C 1999.470 926.158, 2051.318 821.048, 2116.804 733 C 2149.693 688.780, 2209.924 616.774, 2256.298 566.236 C 2276.736 543.962, 2319.752 500.649, 2336.263 485.719 C 2369.928 455.276, 2400.192 432.471, 2423.522 419.965 L 2431.545 415.665 2459.022 438.363 C 2477.764 453.845, 2487.136 460.973, 2488.500 460.781 C 2490.485 460.502, 2490.502 459.643, 2490.754 342.770 L 2491.008 225.040 2488.754 224.509 C 2483.321 223.227, 2130.758 180.032, 2129.926 180.546 C 2129.417 180.860, 2129 182.109, 2129 183.320 C 2129 184.934, 2134.621 190.462, 2150.038 204.011 C 2161.608 214.180, 2172.212 223.439, 2173.601 224.588 L 2176.126 226.675 2167.372 233.036 C 2132.254 258.550, 2059.078 329.629, 1992.394 403 C 1959.946 438.700, 1943.734 458.130, 1922.305 487 C 1840.953 596.595, 1772.056 725.393, 1723.579 858.500 C 1719.373 870.050, 1715.476 880.578, 1714.920 881.896 C 1713.968 884.155, 1713.652 883.840, 1709.432 876.435 C 1700.334 860.471, 1688.555 847.424, 1673.715 836.874 C 1657.187 825.124, 1655.873 824.665, 1487.500 771.933 C 1401.150 744.889, 1329.890 722.433, 1329.144 722.032 C 1328.356 721.608, 1334.022 719.742, 1342.644 717.586 C 1386.186 706.696, 1420.754 691.350, 1452.072 669.008 C 1456.704 665.704, 1461.035 663, 1461.698 663 C 1462.361 663, 1488.836 681.264, 1520.532 703.588 C 1553.783 727.006, 1581.195 745.608, 1585.331 747.561 C 1596.581 752.874, 1603.832 754.415, 1617.500 754.398 C 1630.993 754.382, 1638.128 752.858, 1649.500 747.562 C 1662.783 741.377, 1674.654 730.444, 1681.746 717.866 C 1687.736 707.243, 1777.057 508.977, 1777.017 506.393 C 1777.008 505.784, 1773.063 503.790, 1768.250 501.960 C 1763.438 500.131, 1759.392 498.572, 1759.260 498.494 C 1758.493 498.045, 1768.303 471.295, 1769.865 469.577 C 1780.712 457.645, 1788.314 431.257, 1792.437 391.219 C 1793.603 379.897, 1794.343 376.326, 1796.008 373.988 C 1799.713 368.786, 1806.767 352.774, 1809.440 343.500 C 1812.681 332.259, 1815.353 312.468, 1814.724 304.364 C 1814.142 296.848, 1809.962 288.549, 1805.633 286.310 C 1803.710 285.316, 1801.028 284.935, 1797.996 285.226 L 1793.323 285.675 1793.412 272.088 C 1793.494 259.486, 1793.319 258.141, 1791 253.552 C 1787.946 247.508, 1784.704 245.026, 1778.913 244.301 C 1776.371 243.982, 1773.440 242.793, 1772 241.496 C 1763.949 234.245, 1755.361 235.689, 1746.189 245.837 C 1743.877 248.396, 1742.711 249.094, 1742.324 248.153 C 1740.961 244.845, 1735.485 239.926, 1732.004 238.883 C 1726.649 237.279, 1721.526 238.530, 1717.108 242.521 C 1712.518 246.669, 1713.726 243.879, 1693.501 297 C 1681.233 329.223, 1676.364 340.888, 1674.719 341.997 C 1669.098 345.788, 1662.519 352.995, 1659.667 358.484 C 1656.751 364.094, 1656.539 365.208, 1656.520 375 C 1656.504 383.368, 1657.389 390.070, 1660.879 408 L 1665.257 430.500 1658.484 442 C 1654.759 448.325, 1651.205 454.055, 1650.586 454.734 C 1649.704 455.701, 1647.310 455.122, 1639.524 452.059 L 1629.587 448.151 1627.963 450.825 C 1627.070 452.296, 1616.300 471.050, 1604.028 492.500 C 1591.757 513.950, 1581.185 532.079, 1580.536 532.787 C 1579.588 533.819, 1578.329 533.258, 1574.177 529.952 C 1571.330 527.685, 1569 525.458, 1569 525.004 C 1569 524.549, 1570.595 520.450, 1572.545 515.895 C 1586.753 482.700, 1595.557 447.408, 1602.954 394 C 1613.435 318.325, 1616.899 298.791, 1624.463 272.693 C 1631.816 247.326, 1638.806 230.681, 1648.057 216.510 C 1653.188 208.650, 1663.800 196.716, 1667.350 194.814 C 1668.877 193.996, 1674.505 197.355, 1699.578 214.052 C 1725.188 231.107, 1730.195 234.083, 1731.478 233.018 C 1732.315 232.324, 1733 231.084, 1733 230.263 C 1733 227.995, 1675.137 37.737, 1674.146 36.746 C 1673.397 35.997, 1397.021 1.075, 1391.417 1.020 C 1390.271 1.009, 1389.033 1.300, 1388.667 1.667 M 1422.255 20.509 C 1430.915 26.290, 1437.994 31.577, 1437.987 32.259 C 1437.980 32.942, 1434.027 37.592, 1429.203 42.594 C 1409.467 63.058, 1395.278 90.619, 1387.427 123.742 C 1384.081 137.862, 1384.103 138.027, 1389.703 140.999 C 1394.513 143.550, 1416.855 164.583, 1438.750 187.171 C 1449.772 198.543, 1451 200.168, 1451 203.382 C 1451 208.600, 1447.987 210.261, 1439.292 209.834 L 1432.490 209.500 1432.827 213.011 C 1433.288 217.807, 1430.076 221.804, 1425.124 222.596 C 1421.441 223.185, 1421.370 223.284, 1419.580 230.346 C 1418.582 234.281, 1415.787 242.540, 1413.368 248.700 C 1407.701 263.133, 1391.391 296.653, 1386.041 304.866 C 1380.772 312.954, 1373.087 321.094, 1367.084 324.946 C 1363.027 327.549, 1361.859 329.142, 1358.316 336.900 L 1354.227 345.850 1361.864 347.533 C 1383.558 352.315, 1406.646 362.305, 1420.995 373.117 C 1436.196 384.572, 1447.202 398.028, 1468.528 431.237 L 1481.433 451.333 1519.467 484.269 C 1540.385 502.384, 1558.695 518.059, 1560.156 519.104 L 1562.812 521.002 1567.383 510.171 C 1581.935 475.696, 1588.869 445.773, 1598.584 375.529 C 1606.998 314.689, 1610.227 297.335, 1618.499 268.500 C 1627.486 237.174, 1638.892 214.058, 1652.896 198.785 C 1658.317 192.873, 1666.919 186, 1668.898 186 C 1669.519 186, 1682.111 194.064, 1696.880 203.920 L 1723.734 221.840 1721.367 214.170 C 1720.065 209.952, 1707.900 169.825, 1694.335 125 C 1680.770 80.175, 1669.407 43.194, 1669.085 42.820 C 1668.578 42.230, 1411.996 9.967, 1408.005 9.991 C 1407.183 9.996, 1413.595 14.729, 1422.255 20.509 M 1353 186.226 C 1353 191.379, 1346.643 195.880, 1341.269 194.531 C 1339.746 194.149, 1338.383 193.761, 1338.241 193.668 C 1338.098 193.576, 1336.254 198.490, 1334.142 204.589 C 1332.031 210.688, 1329.499 217.039, 1328.516 218.703 C 1326.860 221.507, 1322.314 225.007, 1320.346 224.995 C 1319.881 224.992, 1319.473 222.179, 1319.439 218.745 C 1319.252 199.692, 1308.064 189.620, 1287 189.544 C 1278.590 189.514, 1276.916 189.817, 1272.410 192.191 C 1262.593 197.361, 1257 206.497, 1256.213 218.646 C 1255.282 233.026, 1259.612 241.251, 1271.190 247.096 C 1274.386 248.709, 1276.998 250.585, 1276.995 251.264 C 1276.976 256.036, 1261.175 285.269, 1250.794 299.736 L 1244.884 307.972 1247.828 312.251 C 1252.826 319.514, 1265.405 330.675, 1272.780 334.389 C 1279.829 337.939, 1288.220 340, 1295.625 340 C 1297.966 340, 1300.104 340.359, 1300.375 340.798 C 1300.647 341.238, 1300.003 349.192, 1298.944 358.475 C 1297.886 367.758, 1297.240 375.574, 1297.510 375.843 C 1297.779 376.113, 1298 375.669, 1298 374.857 C 1298 374.045, 1300.025 367.810, 1302.500 361 C 1304.975 354.190, 1306.947 348.142, 1306.882 347.559 C 1306.584 344.897, 1307.234 344.078, 1310.500 343 C 1312.425 342.365, 1314 341.635, 1314 341.379 C 1314 341.123, 1309.004 329.204, 1302.897 314.893 C 1296.791 300.582, 1292.053 288.613, 1292.370 288.297 C 1292.687 287.980, 1297.120 291.695, 1302.223 296.553 C 1315.970 309.640, 1327.075 318.182, 1328.647 316.878 C 1329.548 316.131, 1331.424 316.140, 1335.011 316.909 C 1349.537 320.024, 1360.576 315.783, 1370.536 303.260 C 1376.098 296.268, 1398.144 252.540, 1397.265 250.247 C 1396.890 249.272, 1397.068 248.924, 1397.733 249.335 C 1398.352 249.717, 1399.269 248.666, 1399.903 246.850 C 1401.360 242.670, 1401.370 242.696, 1398.530 243.239 C 1397.172 243.499, 1396.298 243.326, 1396.589 242.856 C 1396.880 242.385, 1396.399 242, 1395.519 242 C 1394.640 242, 1392.126 241.085, 1389.934 239.966 L 1385.947 237.932 1382.878 244.716 C 1378.119 255.235, 1378.086 255.366, 1379.568 258.042 C 1382.945 264.140, 1379.955 269.858, 1372.011 272.496 C 1365.420 274.686, 1362.500 274.241, 1362.500 271.049 C 1362.500 269.004, 1363.397 268.256, 1367.923 266.529 C 1374.031 264.198, 1374.837 263.033, 1372.575 259.803 C 1371.709 258.567, 1370.999 256.868, 1370.999 256.027 C 1370.998 255.187, 1373.311 249.269, 1376.139 242.876 C 1381.269 231.278, 1381.292 231.247, 1386.387 229.023 C 1391.455 226.809, 1397.645 226.628, 1403.685 228.516 C 1405.597 229.114, 1406.010 228.676, 1407 224.999 C 1407.622 222.688, 1407.989 220.697, 1407.816 220.573 C 1407.642 220.449, 1405.856 219.359, 1403.847 218.152 C 1400.351 216.051, 1396.062 211.785, 1391.278 205.651 C 1389.242 203.040, 1388.922 202.935, 1387.458 204.399 C 1384.628 207.229, 1381.088 207.441, 1376.215 205.074 C 1370.135 202.120, 1363.695 196.733, 1357.834 189.698 C 1353.766 184.816, 1353 184.265, 1353 186.226 M 2143 188.414 C 2143 188.539, 2152.450 196.924, 2164 207.048 C 2175.657 217.265, 2185 226.200, 2185 227.130 C 2185 228.093, 2181.281 231.464, 2176.250 235.060 C 2150.902 253.180, 2127.709 274.182, 2076.435 325.444 C 1996.924 404.938, 1956.515 450.864, 1914.485 509.505 C 1837.057 617.535, 1773.353 740.074, 1725.874 872.310 L 1718.044 894.120 1720.574 902.810 C 1724.822 917.398, 1726.277 929.714, 1725.618 945.500 C 1724.493 972.454, 1716.741 995.037, 1701.609 1015.447 C 1695.273 1023.992, 1683.534 1036.021, 1677.594 1040.054 C 1674.463 1042.180, 1673.663 1043.613, 1671.484 1051 C 1670.105 1055.675, 1663.566 1075.925, 1656.953 1096 C 1632.804 1169.305, 1610.142 1218.772, 1577.354 1269.747 L 1572.049 1277.994 1575.775 1279.556 C 1590.582 1285.768, 1616.987 1294.256, 1637.500 1299.399 C 1690.926 1312.795, 1769.880 1320.970, 1846 1320.986 L 1868.500 1320.990 1871.303 1311.745 C 1872.844 1306.660, 1882.630 1272.715, 1893.050 1236.311 C 1927.089 1117.389, 1946.413 1057.187, 1971.406 992.203 C 2016.533 874.869, 2064.638 787.552, 2129.693 704.893 C 2233.243 573.322, 2334.677 468.766, 2400.512 425.739 C 2413.708 417.115, 2429.071 408.990, 2432.083 409.042 C 2433.718 409.071, 2442.423 415.637, 2459 429.348 L 2483.500 449.612 2483.754 340.610 C 2483.894 280.659, 2483.669 231.318, 2483.254 230.962 C 2482.840 230.606, 2406.900 221.008, 2314.500 209.633 C 2222.100 198.257, 2145.713 188.779, 2144.750 188.569 C 2143.787 188.359, 2143 188.289, 2143 188.414 M 1278.951 192.314 C 1270.119 194.789, 1263.935 200.125, 1260.573 208.171 C 1259.351 211.096, 1259.314 212.048, 1260.368 213.489 C 1262.028 215.759, 1265.650 214.713, 1266.565 211.699 C 1266.932 210.489, 1268.331 208.033, 1269.674 206.241 C 1276.321 197.369, 1289.981 196.026, 1299.243 203.335 C 1300.880 204.627, 1300.743 205.518, 1296.962 218.105 C 1292.693 232.318, 1292.415 235.273, 1295.298 235.822 C 1298.337 236.402, 1299.535 234.430, 1302.517 223.940 C 1304.883 215.618, 1305.541 214.231, 1306.236 216.108 C 1306.713 217.400, 1306.659 220.356, 1306.111 222.928 C 1305.049 227.906, 1305.930 230, 1309.087 230 C 1311.876 230, 1313.295 226.294, 1313.283 219.041 C 1313.253 201.089, 1295.883 187.567, 1278.951 192.314 M 1756.642 255.105 C 1754.709 257.363, 1752.363 260.822, 1751.429 262.791 C 1749.606 266.633, 1728.980 322.362, 1729.305 322.567 C 1729.412 322.634, 1734.335 321.007, 1740.243 318.949 C 1746.295 316.842, 1750.335 314.959, 1749.493 314.636 C 1748.672 314.321, 1748 313.507, 1748 312.828 C 1748 312.148, 1752.066 299.029, 1757.035 283.674 C 1765.580 257.269, 1765.985 255.627, 1764.512 253.378 C 1762.321 250.034, 1760.674 250.395, 1756.642 255.105 M 1725.225 253.250 C 1724.663 253.938, 1721.497 261.700, 1718.187 270.500 C 1714.878 279.300, 1707.482 298.710, 1701.751 313.634 L 1691.332 340.769 1702.916 335.264 C 1709.287 332.236, 1716.188 329.070, 1718.250 328.228 C 1720.313 327.386, 1722 326.405, 1722 326.049 C 1722 325.693, 1720.425 324.832, 1718.500 324.136 C 1716.575 323.440, 1715 322.528, 1715 322.110 C 1715 321.692, 1716.137 318.009, 1717.527 313.925 C 1720.551 305.037, 1728.271 274.417, 1730.051 264.249 C 1731.012 258.761, 1731.044 256.392, 1730.182 254.499 C 1728.948 251.791, 1726.847 251.262, 1725.225 253.250 M 1773.357 258.765 C 1772.438 259.356, 1755.101 310.931, 1754.630 314.476 C 1754.558 315.013, 1755.475 315.602, 1756.667 315.785 C 1759.861 316.275, 1763.949 320.495, 1764.656 324.032 C 1764.997 325.733, 1765.617 326.759, 1766.035 326.312 C 1766.453 325.866, 1769.612 316.275, 1773.055 305 C 1779.599 283.571, 1781.172 273.301, 1779.559 262.544 C 1778.988 258.737, 1778.523 258.002, 1776.689 258.015 C 1775.485 258.024, 1773.986 258.361, 1773.357 258.765 M 1797.693 299.750 C 1797.460 300.163, 1796.021 304.325, 1794.497 309 C 1788.180 328.374, 1775.022 357.678, 1769.566 364.520 L 1767.230 367.450 1762.049 365.023 C 1759.200 363.689, 1756.652 362.245, 1756.386 361.816 C 1756.001 361.192, 1759.967 347.012, 1762.740 339.096 C 1763.048 338.218, 1761.769 339.029, 1759.900 340.897 C 1758.030 342.766, 1748.850 350.138, 1739.500 357.280 C 1728.769 365.478, 1722.567 370.862, 1722.681 371.883 C 1722.780 372.772, 1724.018 380.956, 1725.431 390.069 C 1729.115 413.830, 1728.701 422.902, 1723.441 433.692 C 1716.821 447.271, 1698.338 460.386, 1697.190 452.319 C 1696.949 450.630, 1698.075 449.372, 1702.190 446.732 C 1709.076 442.315, 1714.575 436.137, 1717.865 429.120 C 1720.259 424.013, 1720.491 422.450, 1720.401 412 C 1720.337 404.601, 1719.357 394.902, 1717.651 384.804 C 1716.193 376.171, 1715 368.663, 1715 368.119 C 1715 367.576, 1723.888 360.333, 1734.750 352.023 C 1754.578 336.856, 1757.632 334.022, 1758.021 330.437 C 1758.522 325.806, 1757.906 323.914, 1755.544 322.838 C 1753.508 321.910, 1751.496 322.269, 1743.794 324.930 C 1734.372 328.185, 1690.755 348.175, 1688 350.501 C 1687.175 351.197, 1684.631 352.706, 1682.347 353.854 C 1673.787 358.157, 1668.207 368.703, 1669.371 378.377 C 1669.711 381.195, 1672.183 394.525, 1674.865 408 L 1679.741 432.500 1671.290 446.836 C 1666.642 454.721, 1662.987 461.276, 1663.169 461.403 C 1664.165 462.100, 1744.772 493, 1745.593 493 C 1746.133 493, 1748.081 488.404, 1749.922 482.787 C 1752.936 473.592, 1753.109 472.471, 1751.651 471.552 C 1750.259 470.674, 1750.723 469.827, 1754.957 465.515 C 1761.715 458.634, 1766.501 450.263, 1770.099 439.033 C 1773.744 427.654, 1777.403 406.640, 1779.072 387.500 C 1780.262 373.844, 1780.389 373.343, 1784.253 367.106 C 1791.998 354.601, 1796.618 341.995, 1799.459 325.619 C 1801.017 316.638, 1801.508 303.487, 1800.393 300.582 C 1799.751 298.909, 1798.404 298.494, 1797.693 299.750 M 1227.228 311.966 L 1221.957 321.902 1227.248 334.201 C 1230.158 340.965, 1234.781 350.277, 1237.520 354.892 C 1245.257 367.930, 1261.422 384.126, 1263.954 381.377 C 1264.398 380.895, 1270.450 373.092, 1277.404 364.038 L 1290.047 347.576 1281.399 345.281 C 1276.644 344.018, 1270.101 341.572, 1266.861 339.845 C 1258.909 335.607, 1242.880 318.893, 1237.500 309.231 C 1235.300 305.279, 1233.275 302.043, 1233 302.039 C 1232.725 302.034, 1230.128 306.502, 1227.228 311.966 M 1097 313.475 C 1066.761 317.941, 1041.347 326.413, 1011 342.143 C 1002.475 346.562, 935.650 377.403, 862.500 410.679 C 789.350 443.954, 725.900 472.901, 721.500 475.005 C 693.417 488.431, 676.969 514.464, 677.017 545.410 C 677.044 562.195, 680.331 574.664, 688.145 587.619 C 694.798 598.648, 707.575 610.513, 718.279 615.602 L 722.058 617.398 730.300 609.199 C 734.833 604.690, 738.982 601.014, 739.521 601.030 C 740.059 601.047, 739.712 601.519, 738.750 602.080 C 737.788 602.641, 737 603.751, 737 604.547 C 737 605.343, 734.975 608.745, 732.500 612.107 C 730.025 615.469, 728.016 618.508, 728.035 618.860 C 728.070 619.498, 914.188 708.228, 914.491 707.751 C 914.578 707.613, 927.280 677.368, 942.716 640.539 L 970.782 573.578 946.244 563.343 C 927.716 555.615, 921.015 553.247, 918.887 553.673 C 915.349 554.380, 800.311 511.427, 798.945 508.888 C 798.390 507.857, 798.571 506.602, 799.446 505.405 C 800.777 503.585, 800.978 503.593, 806.907 505.727 C 811.913 507.528, 813 507.658, 813 506.459 C 813 505.657, 813.346 505, 813.768 505 C 816.939 505, 880.597 527.436, 897.062 534.357 C 908.371 539.111, 918.196 543, 918.896 543 C 919.596 543, 943.418 536.003, 971.834 527.451 C 1000.250 518.898, 1024.287 511.668, 1025.250 511.383 C 1026.213 511.098, 1027 510.285, 1027 509.577 C 1027 508.868, 1030.938 505.385, 1035.750 501.837 C 1085.679 465.022, 1118.829 418.767, 1135.101 363.213 C 1136.826 357.321, 1139.448 346.683, 1140.926 339.573 C 1143.808 325.710, 1145.396 322.968, 1148.656 326.228 C 1150.248 327.820, 1150.212 328.632, 1148.051 339.711 C 1141.285 374.402, 1127.279 408.522, 1107.910 437.500 C 1089.628 464.851, 1067.500 487.191, 1034.612 511.500 C 1032.755 512.872, 1031.462 515.212, 1030.490 518.953 C 1029.711 521.953, 1029.199 524.533, 1029.353 524.686 C 1029.639 524.973, 1274.288 472.008, 1274.763 471.557 C 1275.158 471.182, 1285.988 410.750, 1285.994 408.882 C 1285.998 407.753, 1284.810 407.104, 1282.068 406.736 C 1277.176 406.080, 1267 401.509, 1267 399.967 C 1267 399.160, 1268.248 399.066, 1271.250 399.649 C 1273.588 400.102, 1278.187 400.479, 1281.470 400.486 L 1287.441 400.500 1289.682 379.500 C 1290.915 367.950, 1291.829 358.180, 1291.712 357.790 C 1291.595 357.399, 1286.100 364.103, 1279.500 372.688 C 1272.900 381.273, 1266.711 388.791, 1265.747 389.395 C 1261.504 392.054, 1244.844 378.532, 1235.914 365.180 C 1233.089 360.956, 1230.378 357.444, 1229.889 357.375 C 1229.400 357.306, 1228.518 357.194, 1227.929 357.125 C 1227.340 357.056, 1223.795 350.619, 1220.051 342.820 L 1213.244 328.640 1186.872 321.857 C 1172.367 318.127, 1155.942 314.383, 1150.372 313.537 C 1138.151 311.682, 1109.363 311.648, 1097 313.475 M 1339.500 332.613 C 1340.600 333.465, 1342.382 334.797, 1343.459 335.572 C 1344.991 336.674, 1345.155 337.245, 1344.209 338.191 C 1342.262 340.138, 1342.674 345, 1344.785 345 C 1345.988 345, 1347.620 342.872, 1349.785 338.481 C 1351.553 334.896, 1353 331.746, 1353 331.481 C 1353 331.216, 1349.513 331.014, 1345.250 331.032 C 1338.054 331.061, 1337.643 331.174, 1339.500 332.613 M 1329.071 349.141 C 1326.085 350.713, 1322.147 352, 1320.321 352 C 1318.494 352, 1317.023 352.337, 1317.052 352.750 C 1317.081 353.163, 1319.967 359.125, 1323.467 366 L 1329.830 378.500 1331.854 373.994 C 1335.025 366.933, 1337.615 345.696, 1335.250 346.141 C 1334.838 346.219, 1332.057 347.569, 1329.071 349.141 M 1304.048 377.142 C 1300.004 388.339, 1296.491 398.063, 1296.241 398.750 C 1295.551 400.647, 1298.833 400.227, 1305.219 397.601 C 1310.427 395.459, 1310.849 395.414, 1309.947 397.099 C 1308.450 399.895, 1302.680 404.170, 1297.856 406.056 L 1293.554 407.738 1287.953 438.910 L 1282.352 470.082 1285.033 469.493 C 1287.659 468.916, 1287.724 469.022, 1288.234 474.702 C 1288.520 477.891, 1292.953 528.875, 1298.085 588 L 1307.417 695.500 1310.727 686 C 1321.887 653.965, 1359.717 553.554, 1360.527 553.817 C 1361.062 553.992, 1367.144 531.267, 1374.042 503.317 L 1386.584 452.500 1389.542 452.500 C 1392.285 452.500, 1392.489 452.754, 1392.347 456 C 1392.262 457.925, 1386.604 482.063, 1379.772 509.641 L 1367.350 559.781 1406.425 596.914 L 1445.500 634.047 1515 683.028 C 1553.225 709.968, 1587.200 733.348, 1590.500 734.983 C 1598.934 739.163, 1607.042 741.002, 1616.960 740.985 C 1627.615 740.967, 1636.004 739.030, 1644.953 734.523 C 1652.278 730.835, 1662.844 721.718, 1667.379 715.174 C 1670.043 711.330, 1682.498 685.294, 1695.209 657 C 1741.068 554.916, 1759.139 513.754, 1758.392 513.085 C 1757.902 512.644, 1730.500 501.826, 1697.500 489.044 C 1664.500 476.261, 1637.046 465.616, 1636.491 465.387 C 1635.936 465.158, 1624.011 485.004, 1609.991 509.488 C 1589.062 546.038, 1584.151 553.960, 1582.548 553.752 C 1580.974 553.549, 1575.527 561.609, 1554.339 595.500 C 1532.413 630.573, 1527.677 637.551, 1525.627 637.808 C 1519.542 638.572, 1521.091 635.444, 1548.517 591.575 C 1563.152 568.166, 1574.859 548.581, 1574.532 548.052 C 1574.206 547.524, 1567.883 542.393, 1560.482 536.649 C 1553.082 530.906, 1529.921 511.429, 1509.014 493.367 L 1471.001 460.527 1458.481 440.892 C 1426.547 390.810, 1411.759 377.355, 1375.657 365.529 C 1363.948 361.693, 1345.589 357.560, 1343.618 358.316 C 1342.826 358.620, 1342.005 361.239, 1341.611 364.720 C 1340.454 374.951, 1331.952 389.070, 1327.887 387.510 C 1327.096 387.207, 1323.063 380.169, 1318.924 371.871 L 1311.400 356.784 1304.048 377.142 M 261.105 386.583 C 253.163 388.718, 246.257 392.795, 240.026 399.026 C 230.721 408.331, 225.975 419.832, 226.024 432.960 C 226.073 445.972, 230.032 455.755, 239.230 465.587 C 261.985 489.912, 301.684 483.676, 316.633 453.427 C 320.116 446.380, 320.474 444.877, 320.841 435.759 C 321.330 423.565, 319.414 415.498, 314.059 407.213 C 302.735 389.692, 281.012 381.229, 261.105 386.583 M 401.105 386.583 C 388.011 390.103, 376.788 399.521, 370.515 412.250 C 367.061 419.260, 366.650 420.946, 366.219 429.897 C 365.461 445.638, 369.275 455.756, 380.082 466.674 C 403.023 489.851, 442.206 482.921, 456.780 453.109 C 460.469 445.563, 460.500 445.396, 460.500 433 C 460.500 420.631, 460.461 420.418, 456.772 412.692 C 452.479 403.701, 444.477 395.083, 436.425 390.779 C 425.960 385.184, 412.327 383.565, 401.105 386.583 M 541.105 386.583 C 527.767 390.169, 516.388 399.791, 510.228 412.692 C 506.537 420.423, 506.500 420.623, 506.500 433.052 C 506.500 445.591, 506.504 445.612, 510.337 453.367 C 524.837 482.706, 562.651 489.690, 586.068 467.354 C 596.280 457.613, 601.010 446.745, 600.988 433.068 C 600.967 419.314, 596.561 408.613, 586.974 399.026 C 583.935 395.987, 579.176 392.277, 576.399 390.783 C 566.005 385.189, 552.335 383.562, 541.105 386.583 M 261.487 393.799 C 249.543 397.929, 241.942 404.682, 236.638 415.877 C 233.739 421.995, 233.500 423.302, 233.500 433.021 C 233.500 442.920, 233.697 443.942, 236.827 450.301 C 242.902 462.640, 254.077 470.994, 267.610 473.312 C 293.819 477.801, 318.730 452.963, 314.142 426.917 C 310.482 406.137, 293.754 391.930, 273.068 392.033 C 269.456 392.051, 264.244 392.845, 261.487 393.799 M 401.487 393.799 C 393.937 396.410, 387.658 400.445, 383.112 405.610 C 361.737 429.894, 375.303 467.778, 407.339 473.265 C 419.805 475.401, 433.347 470.876, 442.500 461.517 C 460.546 443.064, 457.706 413.590, 436.474 398.982 C 426.877 392.379, 411.976 390.172, 401.487 393.799 M 540.579 394.045 C 511.605 404.293, 503.030 440.163, 524.439 461.558 C 544.593 481.700, 578.127 475.954, 590.291 450.275 C 593.298 443.927, 593.500 442.808, 593.500 432.500 C 593.500 422.481, 593.251 420.992, 590.705 415.808 C 586.394 407.029, 580.013 400.610, 571.332 396.320 C 564.727 393.055, 562.777 392.568, 555.161 392.279 C 548.313 392.020, 545.260 392.389, 540.579 394.045 M 1109.802 514.343 C 1015.917 534.779, 939.417 551.798, 939.802 552.163 C 940.186 552.527, 949.375 556.518, 960.221 561.032 C 978.602 568.681, 979.870 569.374, 978.879 571.227 C 978.293 572.320, 978.194 573.561, 978.657 573.983 C 980.558 575.716, 996.351 580.120, 1009 582.444 C 1031.424 586.563, 1051.821 593.413, 1077.274 605.373 C 1083.518 608.307, 1090.344 611.030, 1092.442 611.423 C 1099.086 612.670, 1106.287 616.470, 1126.158 629.214 C 1136.796 636.037, 1149.142 643.774, 1153.594 646.408 C 1168.675 655.329, 1175.004 662.516, 1174.996 670.710 C 1174.992 675.478, 1172.035 680.413, 1167.906 682.549 C 1164.273 684.427, 1152.632 684.707, 1147.051 683.050 C 1143.467 681.985, 1142.049 682.792, 1142.015 685.914 C 1141.997 687.588, 1126.944 719.042, 1122.308 727.095 C 1117.014 736.289, 1106.874 743.920, 1099.872 743.978 C 1098.427 743.990, 1096.627 744.752, 1095.872 745.671 C 1093.789 748.207, 1085.853 753, 1083.737 753 C 1082.708 753, 1079.189 755.587, 1075.917 758.750 C 1072.645 761.913, 1068.116 765.400, 1065.853 766.500 C 1062.219 768.266, 1061.531 769.175, 1059.970 774.273 C 1057.779 781.430, 1054.221 786.200, 1048.635 789.474 C 1038.675 795.310, 1028.798 792.921, 1024.027 783.521 C 1021.569 778.678, 1021.503 778.009, 1021.592 759.021 C 1021.657 745.101, 1022.156 737.225, 1023.328 731.570 C 1024.233 727.208, 1024.866 723.568, 1024.736 723.481 C 1024.606 723.394, 1019.728 720.786, 1013.895 717.685 C 1001.236 710.955, 987.954 702.350, 975 692.487 L 965.500 685.253 950.165 681.545 C 941.731 679.505, 934.628 678.039, 934.380 678.287 C 933.930 678.736, 918 716.143, 918 716.750 C 918 716.926, 916.987 716.528, 915.750 715.866 C 914.513 715.204, 913.275 714.686, 913 714.715 C 912.725 714.744, 908.112 712.566, 902.750 709.875 C 897.388 707.184, 893 705.218, 893 705.508 C 893 705.797, 890.705 704.871, 887.901 703.450 C 885.096 702.028, 882.602 701.065, 882.359 701.308 C 881.857 701.810, 908.759 823.093, 909.547 823.880 C 910.148 824.482, 1304.695 770.780, 1306.146 769.899 C 1306.779 769.515, 1302.609 717.419, 1294.568 625.262 C 1287.656 546.042, 1282 480.275, 1282 479.113 C 1282 477.951, 1281.662 477.042, 1281.250 477.093 C 1280.838 477.144, 1203.686 493.906, 1109.802 514.343 M 1343.689 635.733 C 1327.424 679.782, 1321.987 695.627, 1321.979 699 C 1321.973 701.475, 1321.335 706.196, 1320.559 709.492 C 1319.784 712.787, 1319.300 715.634, 1319.484 715.817 C 1320.252 716.585, 1354.737 707.435, 1369.827 702.460 C 1388.133 696.423, 1404.279 689.532, 1419.349 681.324 C 1431.804 674.540, 1455.202 659.093, 1454.796 657.923 C 1454.633 657.452, 1450.165 654.014, 1444.867 650.284 C 1438.675 645.923, 1424.210 632.991, 1404.367 614.075 C 1387.390 597.891, 1371.675 582.921, 1369.445 580.808 L 1365.389 576.965 1343.689 635.733 M 956.770 624.715 C 948.119 645.497, 940.790 663.205, 940.483 664.068 C 940.029 665.346, 942.078 666.132, 951.593 668.331 C 962.354 670.816, 963.355 670.897, 964.471 669.371 C 965.543 667.905, 966.813 668.656, 975.591 675.953 C 989.622 687.616, 1009.145 700.416, 1025.750 708.840 C 1033.588 712.816, 1040 716.468, 1040 716.955 C 1040 717.443, 1039.125 721.590, 1038.055 726.171 C 1033.924 743.857, 1032.777 771.978, 1035.946 777.898 C 1038.364 782.417, 1045.181 777.497, 1047.484 769.571 C 1048.294 766.782, 1050.134 760.450, 1051.572 755.500 C 1053.011 750.550, 1055.268 738.175, 1056.590 728 C 1057.911 717.825, 1059.204 708.938, 1059.464 708.250 C 1060.190 706.333, 1064.778 706.724, 1065.423 708.758 C 1065.730 709.725, 1064.862 719.287, 1063.495 730.008 C 1060.416 754.143, 1060.410 754.386, 1062.903 753.052 C 1068.275 750.177, 1071.201 744.119, 1078.531 720.698 C 1082.595 707.711, 1086.448 697.120, 1087.305 696.579 C 1089.028 695.492, 1092 697.366, 1092 699.540 C 1092 700.252, 1089.291 709.488, 1085.980 720.064 C 1082.669 730.640, 1080.200 739.533, 1080.493 739.827 C 1080.787 740.120, 1082.933 739.042, 1085.263 737.430 C 1089.070 734.797, 1090.768 731.994, 1102 709.795 C 1108.875 696.207, 1115.017 684.575, 1115.649 683.945 C 1117.330 682.272, 1121 683.775, 1121 686.136 C 1121 687.237, 1116.033 697.744, 1109.962 709.485 C 1101.157 726.514, 1099.330 730.726, 1100.935 730.307 C 1105.535 729.104, 1111.252 720.776, 1120.119 702.362 C 1130.019 681.805, 1131.447 677.404, 1130.790 669.485 C 1130.540 666.468, 1130.673 664, 1131.085 664 C 1131.497 664, 1136.541 665.575, 1142.294 667.500 C 1152.186 670.810, 1162 672.113, 1162 670.116 C 1162 668.415, 1154.351 662.347, 1145.465 656.999 C 1140.534 654.032, 1132.225 648.856, 1127 645.498 C 1121.775 642.139, 1116.842 638.993, 1116.039 638.506 C 1115.235 638.019, 1117.147 640.191, 1120.289 643.332 C 1126.155 649.198, 1126.880 650.720, 1124.800 652.800 C 1122.636 654.964, 1121.183 654.099, 1112.792 645.656 C 1097.399 630.166, 1072.903 616.133, 1041.500 604.815 C 1029.218 600.389, 1008.263 595, 1003.333 595 C 1001.564 595, 994.803 593.365, 988.308 591.366 C 981.814 589.367, 975.600 587.551, 974.500 587.331 C 972.731 586.977, 970.684 591.292, 956.770 624.715 M 791.990 677.572 C 732.439 722.242, 684.638 774.330, 648.601 833.824 C 640.956 846.445, 628.712 869.046, 629.236 869.570 C 629.470 869.803, 632.999 869.571, 637.080 869.055 C 678.620 863.798, 737.382 861.750, 782 864.004 C 840.185 866.944, 901.283 876.191, 941 888.070 L 950.500 890.911 956.163 885.205 L 961.826 879.500 966.832 857.500 C 972.573 832.269, 973.921 822.999, 971.848 823.002 C 971.107 823.003, 955.679 825.033, 937.565 827.512 C 917.587 830.246, 904.399 831.645, 904.042 831.067 C 903.718 830.544, 896.773 800.052, 888.609 763.308 L 873.765 696.500 841.633 681.237 C 823.960 672.842, 809.031 665.979, 808.459 665.987 C 807.886 665.994, 800.475 671.208, 791.990 677.572 M 1177.698 683.781 C 1175.443 686.273, 1175.545 690.278, 1177.918 692.425 C 1180.497 694.760, 1183.859 694.091, 1186.345 690.750 L 1188.391 688 1186.346 685.250 C 1183.841 681.880, 1180.008 681.229, 1177.698 683.781 M 437.771 755.745 C 434.144 757.995, 431.694 764.228, 432.519 769.110 C 433.754 776.424, 441.022 780.260, 448.789 777.699 C 457.946 774.680, 459.775 761.158, 451.783 755.561 C 448.852 753.508, 441.217 753.608, 437.771 755.745 M 518.699 812.879 C 495.650 816.263, 486.641 817.954, 485.964 819.024 C 484.534 821.285, 484.819 823.526, 486.759 825.282 C 488.373 826.743, 491.274 826.478, 522.176 822.046 C 540.689 819.392, 556.322 816.919, 556.918 816.551 C 558.374 815.651, 558.295 810.695, 556.800 809.200 C 555.154 807.554, 554.637 807.604, 518.699 812.879 M 696.500 871.026 C 678.691 872.063, 663.210 873.373, 641.656 875.669 C 622.995 877.657, 625.388 875.674, 616.754 896.311 C 594.855 948.657, 585.520 994.470, 578.512 1084 C 577.112 1101.875, 575.297 1124.560, 574.478 1134.411 C 573.659 1144.262, 573.199 1152.532, 573.456 1152.790 C 573.714 1153.047, 581.704 1151.622, 591.212 1149.622 C 622.617 1143.016, 655.661 1138.438, 689.187 1136.047 C 716.905 1134.071, 769.107 1134.825, 794.208 1137.564 C 799.859 1138.180, 799.921 1138.159, 800.539 1135.343 C 803.008 1124.089, 808.062 1108.154, 813.633 1094.054 C 838.958 1029.968, 885.764 957.523, 934.200 907.443 L 944.901 896.380 930.800 892.587 C 896.187 883.277, 848.183 875.710, 800 871.968 C 781.767 870.552, 715.083 869.945, 696.500 871.026 M 939.859 911.785 C 888.871 964.413, 840.248 1041.183, 816.470 1106.602 C 812.179 1118.406, 806.577 1137.910, 807.275 1138.609 C 807.435 1138.769, 812.501 1139.617, 818.533 1140.494 C 835.119 1142.905, 861.795 1148.484, 877.977 1152.925 C 885.931 1155.108, 892.517 1156.805, 892.612 1156.697 C 892.707 1156.589, 897.562 1140.525, 903.401 1121 C 912.435 1090.790, 917.209 1071.719, 935.442 993.018 C 956.835 900.680, 957.143 899.067, 953.373 899.015 C 952.754 899.007, 946.672 904.753, 939.859 911.785 M 1177.750 970.307 C 1171.287 986.972, 1166 1000.865, 1166 1001.182 C 1166 1001.499, 1173.088 1006.840, 1181.750 1013.052 C 1199.853 1026.032, 1237.012 1053.842, 1260.887 1072.277 C 1276.920 1084.658, 1277.319 1084.893, 1279.429 1083.215 C 1283.929 1079.635, 1391 978.657, 1391 977.993 C 1391 976.492, 1375.115 973.371, 1284.093 956.990 C 1232.169 947.645, 1189.644 940.002, 1189.593 940.004 C 1189.542 940.007, 1184.213 953.643, 1177.750 970.307 M 482.322 963.215 C 477.274 971.622, 472.520 979.335, 471.758 980.356 C 470.452 982.105, 469.419 981.629, 453.696 972.030 C 444.524 966.431, 436.228 962, 435.260 962.183 C 434.231 962.378, 433.398 963.552, 433.254 965.009 C 433.033 967.239, 434.741 968.538, 449.535 977.397 C 458.626 982.840, 466.252 987.599, 466.482 987.972 C 466.713 988.344, 462.393 996.165, 456.882 1005.351 C 451.372 1014.536, 447.013 1022.828, 447.195 1023.776 C 447.404 1024.857, 448.455 1025.500, 450.014 1025.500 C 452.164 1025.500, 453.851 1023.242, 462.500 1008.785 C 468 999.591, 472.812 992.054, 473.193 992.035 C 473.575 992.016, 481.398 996.521, 490.579 1002.047 C 499.759 1007.573, 507.997 1011.957, 508.885 1011.789 C 509.773 1011.621, 510.630 1010.362, 510.789 1008.991 C 511.050 1006.748, 509.429 1005.515, 494.508 996.604 C 485.395 991.162, 477.701 986.325, 477.412 985.857 C 477.122 985.388, 481.436 977.536, 486.997 968.406 C 492.559 959.277, 496.969 951.063, 496.796 950.154 C 496.624 949.244, 495.362 948.372, 493.991 948.215 C 491.758 947.959, 490.550 949.512, 482.322 963.215 M 1754.655 968.829 C 1752.929 970.736, 1752.492 974.653, 1753.780 976.679 C 1755.102 978.757, 1829.137 1021, 1831.457 1021 C 1834.771 1021, 1837.198 1017.777, 1836.820 1013.876 C 1836.508 1010.645, 1835.592 1010.039, 1799 988.839 C 1777.499 976.381, 1760.393 967.088, 1758.905 967.056 C 1757.478 967.025, 1755.565 967.823, 1754.655 968.829 M 1552.748 1126.945 C 1491.835 1169.600, 1441.885 1204.931, 1441.748 1205.458 C 1441.453 1206.600, 1471.997 1225.989, 1494.500 1238.946 C 1508.410 1246.954, 1563.312 1275, 1565.080 1275 C 1565.980 1275, 1583.550 1246.668, 1591.824 1231.874 C 1616.156 1188.370, 1636.593 1138.732, 1657.078 1073.392 C 1660.957 1061.018, 1663.989 1050.555, 1663.816 1050.142 C 1663.642 1049.729, 1613.662 1084.290, 1552.748 1126.945 M 2327 1096.457 C 2327 1096.710, 2331.275 1107.374, 2336.500 1120.157 C 2345.867 1143.073, 2347.210 1147.678, 2344.750 1148.460 C 2344.063 1148.679, 2337.474 1150.467, 2330.110 1152.435 C 2296.488 1161.417, 2259.943 1179.131, 2180.500 1224.953 C 2093.645 1275.050, 2054.293 1294.135, 2004.500 1310.312 C 1966.144 1322.773, 1934.157 1328.044, 1895.109 1328.338 L 1873.500 1328.500 1866.634 1349.500 C 1852.185 1393.691, 1839.400 1425.462, 1821.564 1461.500 C 1796.049 1513.053, 1769.517 1551.510, 1734.166 1588.177 C 1727.869 1594.708, 1722.894 1600.211, 1723.109 1600.406 C 1723.324 1600.601, 1733.400 1601.934, 1745.500 1603.369 C 1858.563 1616.770, 1954.136 1615.624, 2032.500 1599.926 C 2087.855 1588.838, 2134.065 1571.726, 2183.409 1544.044 C 2206.098 1531.316, 2219.941 1522.708, 2269.500 1490.512 C 2323.024 1455.739, 2346.992 1441.494, 2375.500 1427.513 C 2405.210 1412.942, 2445.849 1398.145, 2449.607 1400.530 C 2450.448 1401.063, 2456.989 1415.900, 2464.144 1433.500 C 2471.299 1451.100, 2477.473 1465.832, 2477.865 1466.239 C 2478.257 1466.645, 2495.162 1409.495, 2515.433 1339.239 C 2535.703 1268.982, 2552.488 1210.958, 2552.733 1210.296 C 2553.014 1209.537, 2511.282 1188.142, 2440.089 1152.545 C 2377.890 1121.444, 2327 1096.205, 2327 1096.457 M 688 1143.045 C 651.479 1145.832, 609.345 1152.297, 574.381 1160.477 C 572.547 1160.906, 572.168 1161.952, 571.570 1168.236 C 570.332 1181.241, 566.046 1211.613, 563.460 1225.717 C 561.157 1238.273, 554.832 1265.668, 553.336 1269.567 C 552.873 1270.773, 554.177 1270.438, 558.610 1268.208 C 595.716 1249.547, 685.133 1219.567, 769.500 1197.500 C 777.200 1195.486, 785.792 1193.188, 788.593 1192.394 L 793.685 1190.950 794.933 1176.725 C 795.619 1168.901, 796.752 1158.675, 797.451 1154 C 798.150 1149.325, 798.636 1145.389, 798.531 1145.253 C 796.832 1143.060, 710.419 1141.334, 688 1143.045 M 805.595 1147.750 C 805.011 1149.641, 802.550 1169.905, 801.448 1181.897 L 800.767 1189.294 803.134 1188.647 C 820.340 1183.943, 851.123 1179.163, 869.750 1178.303 C 877.038 1177.967, 883 1177.300, 883 1176.821 C 883 1176.342, 884.063 1175.546, 885.362 1175.053 C 887.079 1174.399, 888.048 1172.866, 888.914 1169.429 C 889.568 1166.830, 889.743 1164.348, 889.302 1163.913 C 886.910 1161.555, 849.143 1152.659, 824.018 1148.535 C 805.643 1145.520, 806.275 1145.547, 805.595 1147.750 M 1559.466 1297.220 C 1548.777 1313.102, 1527.259 1341.879, 1515.888 1355.500 C 1503.467 1370.378, 1478.178 1395.840, 1464 1407.743 C 1439.654 1428.182, 1409.257 1446.094, 1382.255 1455.911 C 1376.070 1458.160, 1370.332 1460, 1369.505 1460 C 1368.677 1460, 1368.004 1460.338, 1368.010 1460.750 C 1368.021 1461.636, 1397.959 1481.381, 1416.500 1492.732 C 1503.313 1545.879, 1588.305 1577.511, 1692.912 1595.607 L 1713.492 1599.167 1726.523 1585.834 C 1783.506 1527.529, 1822.996 1457.483, 1858.438 1351.848 C 1862.597 1339.452, 1866 1329.085, 1866 1328.812 C 1866 1328.538, 1850.362 1328.030, 1831.250 1327.683 C 1748.760 1326.183, 1687.586 1319.302, 1632.510 1305.327 C 1616.196 1301.188, 1586.404 1291.566, 1573.386 1286.232 L 1568.272 1284.136 1559.466 1297.220 M 543.506 1298.500 C 538.664 1309.794, 537.205 1313.531, 537.518 1313.847 C 537.706 1314.038, 540.744 1312.463, 544.268 1310.347 L 550.674 1306.500 547.947 1300.500 L 545.221 1294.500 543.506 1298.500 M 540.771 1320.327 C 534.320 1324.272, 529.033 1328.130, 529.021 1328.899 C 528.998 1330.458, 552.873 1444.206, 553.317 1444.650 C 553.590 1444.923, 599.146 1432.922, 599.854 1432.391 C 600.049 1432.245, 595.885 1419.159, 590.601 1403.313 C 583.389 1381.683, 577.646 1366.902, 567.562 1344.022 C 560.174 1327.259, 553.763 1313.456, 553.315 1313.349 C 552.867 1313.242, 547.222 1316.382, 540.771 1320.327" stroke="none" fill="#3f28b4" fill-rule="evenodd"/></svg>